<svg width="224" height="234" viewBox="0 0 224 234" fill="none" xmlns="http://www.w3.org/2000/svg">
<path fill-rule="evenodd" clip-rule="evenodd" d="M124.263 180.699C109.663 181.663 94.621 178.558 81.0191 170.705C62.4646 159.993 50.0436 142.684 45.1742 123.411C78.3951 102.599 121.863 100.445 158.385 121.437L124.263 180.699ZM124.263 180.699L103.805 216.133L8.62042 161.272C17.8428 145.298 30.5176 132.527 45.1447 123.301C40.4119 104.757 42.6804 84.3971 52.9902 66.5401C74.0526 30.059 120.634 17.5186 157.115 38.581C193.637 59.5737 206.137 106.225 185.074 142.706C171.975 165.556 148.757 179.029 124.263 180.699Z" fill="#EE2C3C"/>
<path fill-rule="evenodd" clip-rule="evenodd" d="M135.658 91.8545C94.5875 80.5123 50.1586 92.0633 19.8945 121.93L22.1266 123.218C51.6363 94.4975 94.5652 83.2896 134.479 94.0572L135.658 91.8545Z" fill="#282828"/>
<path d="M124.262 180.699C109.662 181.663 94.62 178.559 81.0181 170.705C62.4636 159.993 50.0426 142.684 45.1732 123.411C30.5165 132.527 17.8015 145.368 8.64891 161.382L103.833 216.244L124.262 180.699Z" fill="#E1AC54"/>
</svg>
