<svg class="map__scheme" width="1797" height="988" viewBox="0 0 1797 988" fill="none" xmlns="http://www.w3.org/2000/svg">
    <g class="figure figure_23" id="figure 23">
        <rect id="Rectangle 372" x="433.5" y="463.5" width="79" height="22" fill="white" stroke="#E51F2F" stroke-width="5" />
        <path
            id="23"
            d="M472.203 467.92V471.28L468.603 478.38V479H472.203V481H466.503V478.1L470.103 471V469H468.603V471H466.503V467.92C466.503 467.38 466.863 467 467.423 467H471.283C471.843 467 472.203 467.38 472.203 467.92ZM478.482 481H474.622C474.062 481 473.702 480.62 473.702 480.08V476.4H475.802V479H477.302V474.04H475.202V472.18L477.102 469H473.802V467H479.302V468.8L477.382 472.04H478.482C479.042 472.04 479.402 472.42 479.402 472.96V480.08C479.402 480.62 479.042 481 478.482 481Z"
            fill="#E51F2F"
        />
    </g>
    <g class="figure figure_24" id="figure 24">
        <rect id="Rectangle 373" x="491.5" y="501.5" width="29" height="23" fill="white" stroke="#E51F2F" stroke-width="5" />
        <path
            id="24"
            d="M505.047 506.92V510.28L501.447 517.38V518H505.047V520H499.347V517.1L502.947 510V508H501.447V510H499.347V506.92C499.347 506.38 499.707 506 500.267 506H504.127C504.687 506 505.047 506.38 505.047 506.92ZM511.946 520H509.846V517.4H506.346V515.6L509.106 506H511.306L508.606 515.4H509.846V513.6L511.946 513.2V515.4H512.746V517.4H511.946V520Z"
            fill="#E51F2F"
        />
    </g>
    <g class="figure figure_31" id="figure 31">
        <rect id="Rectangle 375" x="399.5" y="653.5" width="128" height="61" fill="white" stroke="#E51F2F" stroke-width="5" />
        <path
            id="31"
            d="M463.682 690H459.822C459.262 690 458.902 689.62 458.902 689.08V685.4H461.002V688H462.502V683.04H460.402V681.18L462.302 678H459.002V676H464.502V677.8L462.582 681.04H463.682C464.242 681.04 464.602 681.42 464.602 681.96V689.08C464.602 689.62 464.242 690 463.682 690ZM465.996 678V676H468.996V690H466.896V678H465.996Z"
            fill="#E51F2F"
        />
    </g>
    <g class="figure figure_25" id="figure 25">
        <rect id="Rectangle 382" x="578.988" y="498.425" width="45.0406" height="27.3872" transform="rotate(59.3556 578.988 498.425)" fill="white" stroke="#E51F2F" stroke-width="5" />
        <path
            id="25"
            d="M577.614 518.381V521.741L574.014 528.841V529.461H577.614V531.461H571.914V528.561L575.514 521.461V519.461H574.014V521.461H571.914V518.381C571.914 517.841 572.274 517.461 572.834 517.461H576.694C577.254 517.461 577.614 517.841 577.614 518.381ZM582.713 524.061H581.213V524.861H579.113V517.461H584.713V519.461H581.213V522.061H583.893C584.453 522.061 584.813 522.441 584.813 522.981V530.541C584.813 531.081 584.453 531.461 583.893 531.461H580.033C579.473 531.461 579.113 531.081 579.113 530.541V526.861H581.213V529.461H582.713V524.061Z"
            fill="#E51F2F"
        />
    </g>
    <g class="figure figure_26" id="figure 26">
        <rect id="Rectangle 382_2" x="670.963" y="529.998" width="39.5315" height="26.8118" transform="rotate(127.951 670.963 529.998)" fill="white" stroke="#E51F2F" stroke-width="5" />
        <path
            id="26"
            d="M646.614 531.381V534.741L643.014 541.841V542.461H646.614V544.461H640.914V541.561L644.514 534.461V532.461H643.014V534.461H640.914V531.381C640.914 530.841 641.274 530.461 641.834 530.461H645.694C646.254 530.461 646.614 530.841 646.614 531.381ZM651.713 537.861H650.213V542.461H651.713V537.861ZM653.813 531.381V534.461H651.713V532.461H650.213V535.861H652.893C653.453 535.861 653.813 536.241 653.813 536.781V543.541C653.813 544.081 653.453 544.461 652.893 544.461H649.033C648.473 544.461 648.113 544.081 648.113 543.541V531.381C648.113 530.841 648.473 530.461 649.033 530.461H652.893C653.453 530.461 653.813 530.841 653.813 531.381Z"
            fill="#E51F2F"
        />
    </g>
    <g class="figure figure_27" id="figure 27">
        <rect id="Rectangle 381" x="645.478" y="582.409" width="44.0053" height="24.4231" transform="rotate(29.6155 645.478 582.409)" fill="white" stroke="#E51F2F" stroke-width="5" />
        <path
            id="27"
            d="M658.201 598.101V601.461L654.601 608.561V609.181H658.201V611.181H652.501V608.281L656.101 601.181V599.181H654.601V601.181H652.501V598.101C652.501 597.561 652.861 597.181 653.421 597.181H657.281C657.841 597.181 658.201 597.561 658.201 598.101ZM661.06 611.181V604.781L662.74 599.181H659.3V597.181H664.9V598.981L663.16 604.781V611.181H661.06Z"
            fill="#E51F2F"
        />
    </g>
    <g class="figure figure_1" id="figure 1">
        <rect id="Rectangle 376" x="750.5" y="694.5" width="21" height="21" fill="white" stroke="#E51F2F" stroke-width="5" />
        <path id="1" d="M759.349 700H760.249V712H762.349V698H759.349V700Z" fill="#E51F2F" />
    </g>
    <g class="figure figure_2" id="figure 2">
        <rect id="Rectangle 378" x="750.5" y="637.5" width="50" height="23" fill="white" stroke="#E51F2F" stroke-width="5" />
        <path id="2" d="M778.85 642.92V646.28L775.25 653.38V654H778.85V656H773.15V653.1L776.75 646V644H775.25V646H773.15V642.92C773.15 642.38 773.51 642 774.07 642H777.93C778.49 642 778.85 642.38 778.85 642.92Z" fill="#E51F2F" />
    </g>
    <g class="figure figure_5" id="figure 5">
        <rect id="Rectangle 379" x="717.5" y="522.5" width="20" height="33" fill="white" stroke="#E51F2F" stroke-width="5" />
        <path
            id="5"
            d="M728.48 540.058H726.98V540.858H724.88V533.458H730.48V535.458H726.98V538.058H729.66C730.22 538.058 730.58 538.438 730.58 538.978V546.538C730.58 547.078 730.22 547.458 729.66 547.458H725.8C725.24 547.458 724.88 547.078 724.88 546.538V542.858H726.98V545.458H728.48V540.058Z"
            fill="#E51F2F"
        />
    </g>
    <g class="figure figure_4" id="figure 4">
        <rect id="Rectangle 379_2" x="815.5" y="581.5" width="20" height="93" fill="white" stroke="#E51F2F" stroke-width="5" />
        <path id="4" d="M828.124 632.354H826.024V629.754H822.524V627.954L825.284 618.354H827.484L824.784 627.754H826.024V625.954L828.124 625.554V627.754H828.924V629.754H828.124V632.354Z" fill="#E51F2F" />
    </g>
    <g class="figure figure_3" id="figure 3">
        <rect id="Rectangle 380" x="750.5" y="581.5" width="50" height="23" fill="white" stroke="#E51F2F" stroke-width="5" />
        <path
            id="3"
            d="M777.933 600H774.073C773.513 600 773.153 599.62 773.153 599.08V595.4H775.253V598H776.753V593.04H774.653V591.18L776.553 588H773.253V586H778.753V587.8L776.833 591.04H777.933C778.493 591.04 778.853 591.42 778.853 591.96V599.08C778.853 599.62 778.493 600 777.933 600Z"
            fill="#E51F2F"
        />
    </g>
    <g class="figure figure_20" id="figure 20">
        <rect id="Rectangle 386" x="588.5" y="391.5" width="24" height="25" fill="white" stroke="#E51F2F" stroke-width="5" />
        <path
            id="20"
            d="M600.203 397.92V401.28L596.603 408.38V409H600.203V411H594.503V408.1L598.103 401V399H596.603V401H594.503V397.92C594.503 397.38 594.863 397 595.423 397H599.283C599.843 397 600.203 397.38 600.203 397.92ZM603.802 409H605.302V399H603.802V409ZM606.482 411H602.622C602.062 411 601.702 410.62 601.702 410.08V397.92C601.702 397.38 602.062 397 602.622 397H606.482C607.042 397 607.402 397.38 607.402 397.92V410.08C607.402 410.62 607.042 411 606.482 411Z"
            fill="#E51F2F"
        />
    </g>
    <g class="figure figure_14" id="figure 14">
        <rect id="Rectangle 386_2" x="622.5" y="391.5" width="24" height="25" fill="white" stroke="#E51F2F" stroke-width="5" />
        <path id="14" d="M629.546 399V397H632.546V411H630.446V399H629.546ZM639.647 411H637.547V408.4H634.047V406.6L636.807 397H639.007L636.307 406.4H637.547V404.6L639.647 404.2V406.4H640.447V408.4H639.647V411Z" fill="#E51F2F" />
    </g>
    <g class="figure figure_21" id="figure 21">
        <rect id="Rectangle 386_3" x="588.5" y="437.5" width="24" height="25" fill="white" stroke="#E51F2F" stroke-width="5" />
        <path
            id="21"
            d="M601.6 443.92V447.28L598 454.38V455H601.6V457H595.9V454.1L599.5 447V445H598V447H595.9V443.92C595.9 443.38 596.26 443 596.82 443H600.68C601.24 443 601.6 443.38 601.6 443.92ZM602.899 445V443H605.899V457H603.799V445H602.899Z"
            fill="#E51F2F"
        />
    </g>
    <g class="figure figure_6" id="figure 6-5">
        <rect id="Rectangle 386_4" x="791.5" y="283.5" width="24" height="25" fill="white" stroke="#E51F2F" stroke-width="5" />
        <path
            id="6"
            d="M804.753 296.4H803.253V301H804.753V296.4ZM806.853 289.92V293H804.753V291H803.253V294.4H805.933C806.493 294.4 806.853 294.78 806.853 295.32V302.08C806.853 302.62 806.493 303 805.933 303H802.073C801.513 303 801.153 302.62 801.153 302.08V289.92C801.153 289.38 801.513 289 802.073 289H805.933C806.493 289 806.853 289.38 806.853 289.92Z"
            fill="#E51F2F"
        />
    </g>
    <g class="figure figure_22" id="figure 22">
        <rect id="Rectangle 384" x="556.5" y="414.5" width="24" height="26" fill="white" stroke="#E51F2F" stroke-width="5" />
        <path
            id="22"
            d="M568.301 421.92V425.28L564.701 432.38V433H568.301V435H562.601V432.1L566.201 425V423H564.701V425H562.601V421.92C562.601 421.38 562.961 421 563.521 421H567.381C567.941 421 568.301 421.38 568.301 421.92ZM575.4 421.92V425.28L571.8 432.38V433H575.4V435H569.7V432.1L573.3 425V423H571.8V425H569.7V421.92C569.7 421.38 570.06 421 570.62 421H574.48C575.04 421 575.4 421.38 575.4 421.92Z"
            fill="#E51F2F"
        />
    </g>
    <g class="figure figure_19" id="figure 19">
        <rect id="Rectangle 383" x="622.5" y="437.5" width="24" height="25" fill="white" stroke="#E51F2F" stroke-width="5" />
        <path
            id="19"
            d="M628.702 445V443H631.702V457H629.602V445H628.702ZM635.504 449H637.004V445H635.504V449ZM633.404 450.08V443.92C633.404 443.38 633.764 443 634.324 443H638.184C638.744 443 639.104 443.38 639.104 443.92V456.08C639.104 456.62 638.744 457 638.184 457H634.324C633.764 457 633.404 456.62 633.404 456.08V452.4H635.504V455H637.004V451H634.324C633.764 451 633.404 450.62 633.404 450.08Z"
            fill="#E51F2F"
        />
    </g>
    <g class="figure figure_17" id="figure 17">
        <rect id="Rectangle 385" x="642.535" y="324.946" width="25" height="26" transform="rotate(-44.1426 642.535 324.946)" fill="white" stroke="#E51F2F" stroke-width="5" />
        <path id="17" d="M655.711 320.069V318.069H658.711V332.069H656.611V320.069H655.711ZM661.772 332.069V325.669L663.452 320.069H660.012V318.069H665.612V319.869L663.872 325.669V332.069H661.772Z" fill="#E51F2F" />
    </g>
    <g class="figure figure_6" id="figure 6-4">
        <rect id="Rectangle 387" x="630.363" y="365.26" width="22.335" height="22.0906" transform="rotate(-62.9793 630.363 365.26)" fill="white" stroke="#E51F2F" stroke-width="5" />
        <path
            id="6_2"
            d="M646.159 360.914H644.659V365.514H646.159V360.914ZM648.259 354.434V357.514H646.159V355.514H644.659V358.914H647.339C647.899 358.914 648.259 359.294 648.259 359.834V366.594C648.259 367.134 647.899 367.514 647.339 367.514H643.479C642.919 367.514 642.559 367.134 642.559 366.594V354.434C642.559 353.894 642.919 353.514 643.479 353.514H647.339C647.899 353.514 648.259 353.894 648.259 354.434Z"
            fill="#E51F2F"
        />
    </g>
    <g class="figure figure_6" id="figure 6">
        <rect id="Rectangle 408" x="666.363" y="490.26" width="22.335" height="22.0906" transform="rotate(-62.9793 666.363 490.26)" fill="white" stroke="#E51F2F" stroke-width="5" />
        <path
            id="6_3"
            d="M681.753 485.4H680.253V490H681.753V485.4ZM683.853 478.92V482H681.753V480H680.253V483.4H682.933C683.493 483.4 683.853 483.78 683.853 484.32V491.08C683.853 491.62 683.493 492 682.933 492H679.073C678.513 492 678.153 491.62 678.153 491.08V478.92C678.153 478.38 678.513 478 679.073 478H682.933C683.493 478 683.853 478.38 683.853 478.92Z"
            fill="#E51F2F"
        />
    </g>
    <g class="figure figure_6" id="figure 6-2">
        <rect id="Rectangle 409" x="828.425" y="496.923" width="22.335" height="22.0906" transform="rotate(-16.5502 828.425 496.923)" fill="white" stroke="#E51F2F" stroke-width="5" />
        <path
            id="6_4"
            d="M842.753 504.4H841.253V509H842.753V504.4ZM844.853 497.92V501H842.753V499H841.253V502.4H843.933C844.493 502.4 844.853 502.78 844.853 503.32V510.08C844.853 510.62 844.493 511 843.933 511H840.073C839.513 511 839.153 510.62 839.153 510.08V497.92C839.153 497.38 839.513 497 840.073 497H843.933C844.493 497 844.853 497.38 844.853 497.92Z"
            fill="#E51F2F"
        />
    </g>
    <g class="figure figure_8" id="figure 8">
        <rect id="Rectangle 394" x="865.524" y="529.676" width="23.3641" height="21.0806" transform="rotate(-40.429 865.524 529.676)" fill="white" stroke="#E51F2F" stroke-width="5" />
        <path
            id="8"
            d="M884.142 532.033V537.153C884.142 537.693 883.782 538.073 883.222 538.073H879.362C878.802 538.073 878.442 537.693 878.442 537.153V532.033C878.442 531.213 878.822 530.693 879.442 530.473C878.822 530.253 878.442 529.713 878.442 528.913V524.993C878.442 524.453 878.802 524.073 879.362 524.073H883.222C883.782 524.073 884.142 524.453 884.142 524.993V528.913C884.142 529.713 883.762 530.253 883.122 530.473C883.762 530.693 884.142 531.213 884.142 532.033ZM882.042 531.473H880.542V536.073H882.042V531.473ZM880.542 529.473H882.042V526.073H880.542V529.473Z"
            fill="#E51F2F"
        />
    </g>
    <g class="figure figure_9" id="figure 9-2">
        <rect id="Rectangle 389" x="952.415" y="535.421" width="45.0406" height="27.3872" transform="rotate(-60 952.415 535.421)" fill="white" stroke="#E51F2F" stroke-width="5" />
        <path
            id="9"
            d="M974.706 522.446H976.206V518.446H974.706V522.446ZM972.606 523.526V517.366C972.606 516.826 972.966 516.446 973.526 516.446H977.386C977.946 516.446 978.306 516.826 978.306 517.366V529.526C978.306 530.066 977.946 530.446 977.386 530.446H973.526C972.966 530.446 972.606 530.066 972.606 529.526V525.846H974.706V528.446H976.206V524.446H973.526C972.966 524.446 972.606 524.066 972.606 523.526Z"
            fill="#E51F2F"
        />
    </g>
    <g class="figure figure_9" id="figure 9-3">
        <rect id="Rectangle 388" x="871.415" y="604.418" width="44.0053" height="24.4231" transform="rotate(-30 871.415 604.418)" fill="white" stroke="#E51F2F" stroke-width="5" />
        <path
            id="9_2"
            d="M896.081 602.591H897.581V598.591H896.081V602.591ZM893.981 603.671V597.511C893.981 596.971 894.341 596.591 894.901 596.591H898.761C899.321 596.591 899.681 596.971 899.681 597.511V609.671C899.681 610.211 899.321 610.591 898.761 610.591H894.901C894.341 610.591 893.981 610.211 893.981 609.671V605.991H896.081V608.591H897.581V604.591H894.901C894.341 604.591 893.981 604.211 893.981 603.671Z"
            fill="#E51F2F"
        />
    </g>
    <g class="figure figure_7" id="figure 7">
        <rect id="Rectangle 392" x="876.888" y="468.536" width="23.3738" height="21.6936" transform="rotate(45.0504 876.888 468.536)" fill="white" stroke="#E51F2F" stroke-width="5" />
        <path id="7" d="M877.165 491.403V485.003L878.845 479.403H875.405V477.403H881.005V479.203L879.265 485.003V491.403H877.165Z" fill="#E51F2F" />
    </g>
    <g class="figure figure_9" id="figure 9">
        <rect id="Rectangle 391" x="1025.5" y="560.5" width="120" height="54" rx="26.5" fill="white" stroke="#E51F2F" stroke-width="5" />
        <path
            id="9_3"
            d="M1085.25 586H1086.75V582H1085.25V586ZM1083.15 587.08V580.92C1083.15 580.38 1083.51 580 1084.07 580H1087.93C1088.49 580 1088.85 580.38 1088.85 580.92V593.08C1088.85 593.62 1088.49 594 1087.93 594H1084.07C1083.51 594 1083.15 593.62 1083.15 593.08V589.4H1085.25V592H1086.75V588H1084.07C1083.51 588 1083.15 587.62 1083.15 587.08Z"
            fill="#E51F2F"
        />
    </g>
    <g class="figure figure_10" id="figure 10">
        <rect id="Rectangle 399" x="1018.5" y="383.5" width="138" height="63" fill="white" stroke="#E51F2F" stroke-width="5" />
        <path
            id="10"
            d="M1082.7 410V408H1085.7V422H1083.6V410H1082.7ZM1089.5 420H1091V410H1089.5V420ZM1092.18 422H1088.32C1087.76 422 1087.4 421.62 1087.4 421.08V408.92C1087.4 408.38 1087.76 408 1088.32 408H1092.18C1092.74 408 1093.1 408.38 1093.1 408.92V421.08C1093.1 421.62 1092.74 422 1092.18 422Z"
            fill="#E51F2F"
        />
    </g>
    <g class="figure figure_11" id="figure 11">
        <rect id="Rectangle 398" x="946.5" y="403.5" width="45" height="40" fill="white" stroke="#E51F2F" stroke-width="5" />
        <path id="11" d="M966.098 418V416H969.098V430H966.998V418H966.098ZM970.6 418V416H973.6V430H971.5V418H970.6Z" fill="#E51F2F" />
    </g>
    <g class="figure figure_6" id="figure 6-3">
        <rect id="Rectangle 410" x="886.518" y="336.797" width="22.335" height="22.0906" transform="rotate(-50.6818 886.518 336.797)" fill="white" stroke="#E51F2F" stroke-width="5" />
        <path
            id="6_5"
            d="M902.616 335.227H901.116V339.827H902.616V335.227ZM904.716 328.747V331.827H902.616V329.827H901.116V333.227H903.796C904.356 333.227 904.716 333.607 904.716 334.147V340.907C904.716 341.447 904.356 341.827 903.796 341.827H899.936C899.376 341.827 899.016 341.447 899.016 340.907V328.747C899.016 328.207 899.376 327.827 899.936 327.827H903.796C904.356 327.827 904.716 328.207 904.716 328.747Z"
            fill="#E51F2F"
        />
    </g>
    <g class="figure figure_13" id="figure 13">
        <rect id="Rectangle 401" x="849.909" y="288.757" width="35.2648" height="23.8015" transform="rotate(19.8165 849.909 288.757)" fill="white" stroke="#E51F2F" stroke-width="5" />
        <path
            id="13"
            d="M857.058 300.468V298.468H860.058V312.468H857.958V300.468H857.058ZM866.54 312.468H862.68C862.12 312.468 861.76 312.088 861.76 311.548V307.868H863.86V310.468H865.36V305.508H863.26V303.648L865.16 300.468H861.86V298.468H867.36V300.268L865.44 303.508H866.54C867.1 303.508 867.46 303.888 867.46 304.428V311.548C867.46 312.088 867.1 312.468 866.54 312.468Z"
            fill="#E51F2F"
        />
    </g>
    <g class="figure figure_12" id="figure 12">
        <rect id="Rectangle 401_2" x="946.54" y="274.535" width="32.4368" height="23.8015" transform="rotate(45.5983 946.54 274.535)" fill="white" stroke="#E51F2F" stroke-width="5" />
        <path
            id="12"
            d="M944.079 288.986V286.986H947.079V300.986H944.979V288.986H944.079ZM954.38 287.906V291.266L950.78 298.366V298.986H954.38V300.986H948.68V298.086L952.28 290.986V288.986H950.78V290.986H948.68V287.906C948.68 287.366 949.04 286.986 949.6 286.986H953.46C954.02 286.986 954.38 287.366 954.38 287.906Z"
            fill="#E51F2F"
        />
    </g>
    <g class="figure figure_16" id="figure 16">
        <rect id="Rectangle 401_3" x="682.068" y="295.32" width="35.2648" height="23.8015" transform="rotate(-15.2101 682.068 295.32)" fill="white" stroke="#E51F2F" stroke-width="5" />
        <path
            id="16"
            d="M696.802 296.715V294.715H699.802V308.715H697.702V296.715H696.802ZM705.103 302.115H703.603V306.715H705.103V302.115ZM707.203 295.635V298.715H705.103V296.715H703.603V300.115H706.283C706.843 300.115 707.203 300.495 707.203 301.035V307.795C707.203 308.335 706.843 308.715 706.283 308.715H702.423C701.863 308.715 701.503 308.335 701.503 307.795V295.635C701.503 295.095 701.863 294.715 702.423 294.715H706.283C706.843 294.715 707.203 295.095 707.203 295.635Z"
            fill="#E51F2F"
        />
    </g>
    <g class="figure figure_18" id="figure 18">
        <rect id="Rectangle 400" x="602.967" y="275.532" width="44.0053" height="24.4231" transform="rotate(42.2943 602.967 275.532)" fill="white" stroke="#E51F2F" stroke-width="5" />
        <path
            id="18"
            d="M605.745 294.47V292.47H608.745V306.47H606.645V294.47H605.745ZM616.146 300.43V305.55C616.146 306.09 615.786 306.47 615.226 306.47H611.366C610.806 306.47 610.446 306.09 610.446 305.55V300.43C610.446 299.61 610.826 299.09 611.446 298.87C610.826 298.65 610.446 298.11 610.446 297.31V293.39C610.446 292.85 610.806 292.47 611.366 292.47H615.226C615.786 292.47 616.146 292.85 616.146 293.39V297.31C616.146 298.11 615.766 298.65 615.126 298.87C615.766 299.09 616.146 299.61 616.146 300.43ZM614.046 299.87H612.546V304.47H614.046V299.87ZM612.546 297.87H614.046V294.47H612.546V297.87Z"
            fill="#E51F2F"
        />
    </g>
    <g class="figure figure_14" id="figure 14-2">
        <rect id="Rectangle 402" x="750.5" y="182.5" width="50" height="95" fill="white" stroke="#E51F2F" stroke-width="5" />
        <path
            id="14_2"
            d="M770.546 224.727V222.727H773.546V236.727H771.446V224.727H770.546ZM780.647 236.727H778.547V234.127H775.047V232.327L777.807 222.727H780.007L777.307 232.127H778.547V230.327L780.647 229.927V232.127H781.447V234.127H780.647V236.727Z"
            fill="#E51F2F"
        />
    </g>
    <g class="figure figure_15" id="figure 15">
        <rect id="Rectangle 403" x="696.996" y="159.18" width="155.65" height="23.7935" transform="rotate(-9.13748 696.996 159.18)" fill="white" stroke="#E51F2F" stroke-width="5" />
        <path
            id="15"
            d="M770.703 154V152H773.703V166H771.603V154H770.703ZM779.004 158.6H777.504V159.4H775.404V152H781.004V154H777.504V156.6H780.184C780.744 156.6 781.104 156.98 781.104 157.52V165.08C781.104 165.62 780.744 166 780.184 166H776.324C775.764 166 775.404 165.62 775.404 165.08V161.4H777.504V164H779.004V158.6Z"
            fill="#E51F2F"
        />
    </g>
    <g class="figure figure_28" id="figure 28">
        <rect id="Rectangle 374" x="409.5" y="561.5" width="121" height="54" rx="26.5" fill="white" stroke="#E51F2F" stroke-width="5" />
        <path
            id="28"
            d="M469.203 581.92V585.28L465.603 592.38V593H469.203V595H463.503V592.1L467.103 585V583H465.603V585H463.503V581.92C463.503 581.38 463.863 581 464.423 581H468.283C468.843 581 469.203 581.38 469.203 581.92ZM476.402 588.96V594.08C476.402 594.62 476.042 595 475.482 595H471.622C471.062 595 470.702 594.62 470.702 594.08V588.96C470.702 588.14 471.082 587.62 471.702 587.4C471.082 587.18 470.702 586.64 470.702 585.84V581.92C470.702 581.38 471.062 581 471.622 581H475.482C476.042 581 476.402 581.38 476.402 581.92V585.84C476.402 586.64 476.022 587.18 475.382 587.4C476.022 587.62 476.402 588.14 476.402 588.96ZM474.302 588.4H472.802V593H474.302V588.4ZM472.802 586.4H474.302V583H472.802V586.4Z"
            fill="#E51F2F"
        />
    </g>
    <g class="figure figure_29" id="figure 29">
        <path class="rect" id="Rectangle 441" d="M702.5 397.5C702.5 379.275 717.275 364.5 735.5 364.5H775.5V430.5H735.5C717.275 430.5 702.5 415.725 702.5 397.5Z" fill="white" stroke="#E51F2F" stroke-width="5" />
        <path
            id="29"
            d="M741.494 390.92V394.28L737.894 401.38V402H741.494V404H735.794V401.1L739.394 394V392H737.894V394H735.794V390.92C735.794 390.38 736.154 390 736.714 390H740.574C741.134 390 741.494 390.38 741.494 390.92ZM745.093 396H746.593V392H745.093V396ZM742.993 397.08V390.92C742.993 390.38 743.353 390 743.913 390H747.773C748.333 390 748.693 390.38 748.693 390.92V403.08C748.693 403.62 748.333 404 747.773 404H743.913C743.353 404 742.993 403.62 742.993 403.08V399.4H745.093V402H746.593V398H743.913C743.353 398 742.993 397.62 742.993 397.08Z"
            fill="#E51F2F"
        />
    </g>
    <g class="figure figure_30" id="figure 30">
        <path class="rect" id="Rectangle 441_2" d="M857.081 397.5C857.081 415.725 842.306 430.5 824.081 430.5L784.081 430.5L784.081 364.5L824.081 364.5C842.306 364.5 857.081 379.275 857.081 397.5Z" fill="white" stroke="#E51F2F" stroke-width="5" />
        <path
            id="30"
            d="M815.576 404H811.716C811.156 404 810.796 403.62 810.796 403.08V399.4H812.896V402H814.396V397.04H812.296V395.18L814.196 392H810.896V390H816.396V391.8L814.476 395.04H815.576C816.136 395.04 816.496 395.42 816.496 395.96V403.08C816.496 403.62 816.136 404 815.576 404ZM820.191 402H821.691V392H820.191V402ZM822.871 404H819.011C818.451 404 818.091 403.62 818.091 403.08V390.92C818.091 390.38 818.451 390 819.011 390H822.871C823.431 390 823.791 390.38 823.791 390.92V403.08C823.791 403.62 823.431 404 822.871 404Z"
            fill="#E51F2F"
        />
    </g>
</svg>
