<svg width="260" height="95" viewBox="0 0 260 95" fill="none" xmlns="http://www.w3.org/2000/svg">
<path d="M97.1965 80.6022H96.9652C91.7587 80.4865 86.7835 78.6353 82.9654 75.0486L82.8498 74.9329L82.9654 74.7015C83.3125 74.2387 84.0067 73.3131 84.4695 72.6189L84.5853 72.3875L84.8167 72.6189C88.172 75.7428 92.4529 77.4783 97.0809 77.594H97.3123V80.6022H97.1965ZM83.4283 74.8172C87.1307 78.0568 91.7587 79.908 96.7338 80.0237V77.9411C92.2215 77.8254 87.9405 76.0899 84.7009 73.0817C84.2381 73.7759 83.7754 74.4701 83.4283 74.8172ZM63.6435 80.6022V77.594H63.8749C68.3872 77.4783 72.7838 75.7428 76.1391 72.6189L76.3705 72.3875L76.4862 72.6189C77.0647 73.4288 77.6432 74.3544 77.9903 74.7015L78.106 74.9329L77.9903 75.0486C74.1722 78.5196 69.1971 80.4865 63.9906 80.6022H63.6435ZM64.222 78.0568V80.1394C69.0814 80.0237 73.8251 78.1725 77.5275 74.9329C77.2961 74.5858 76.7176 73.8916 76.3705 73.1974C72.8995 76.2056 68.6186 77.9411 64.222 78.0568ZM97.1965 74.7015H96.9652C91.4116 74.7015 86.3208 71.5776 83.6597 66.6024C83.1969 67.8752 82.6184 69.0322 81.9242 70.1892C81.4614 70.9991 80.9985 71.6933 80.5357 72.2718L80.3043 72.5032L80.0729 72.2718C79.6101 71.6933 79.1473 70.9991 78.6845 70.1892C77.9903 69.0322 77.4118 67.7594 76.949 66.6024C74.4036 71.5776 69.3128 74.7015 63.6435 74.7015H63.4121V71.6933H63.6435C70.2384 71.6933 75.5606 66.2553 75.5606 59.6604V40.8013H78.6845V59.3133C78.6845 61.743 79.1473 64.057 80.0729 66.371C80.9985 64.1727 81.4613 61.743 81.4613 59.3133V40.8013H84.5853V59.5447C84.5853 66.1396 89.9075 71.4619 96.5024 71.5776H96.7338L97.1965 74.7015ZM83.6597 65.3297L84.1224 66.371C86.5521 71.1148 91.4116 74.123 96.7338 74.2387V72.1561C93.4942 72.0404 90.4859 70.7677 88.1719 68.4536C85.8579 66.1396 84.5853 63.0157 84.5853 59.6604V41.2641H82.3869V59.3133C82.3869 61.743 81.9241 64.1727 80.8828 66.4867L80.42 67.528L79.9572 66.4867C79.0316 64.1727 78.4532 61.743 78.4532 59.3133V41.2641H76.2548V59.5447C76.2548 62.9 74.9821 66.0239 72.6681 68.338C70.3541 70.652 67.3459 71.9247 64.1063 72.0404V74.123C69.4285 74.0073 74.2879 70.9991 76.7176 66.2553L77.1804 65.214L77.5275 66.2553C77.9903 67.4123 78.5688 68.685 79.1473 69.8421C79.4944 70.5363 79.9572 71.1148 80.3043 71.5776C80.6514 71.1148 80.9985 70.5363 81.4613 69.8421C82.1555 68.685 82.6184 67.528 83.0812 66.2553L83.6597 65.3297ZM97.1965 68.685H96.9652C94.5355 68.5693 92.3372 67.6437 90.6017 65.9082C88.8662 64.1727 87.9405 61.8587 87.9405 59.5447V51.33H90.9488V59.5447C90.9488 62.9 93.4942 65.5611 96.8495 65.6768H97.0809L97.1965 68.685ZM88.519 51.7928V59.5447C88.519 64.1727 92.2215 67.9908 96.7338 68.2222V66.1396C95.114 66.0239 93.6099 65.3297 92.4529 64.1727C91.2959 62.9 90.6017 61.2802 90.6017 59.5447V51.7928H88.519ZM63.6435 68.685V65.6768H63.8749C67.2302 65.5611 69.7756 62.9 69.7756 59.5447V51.33H72.7838V59.5447C72.7838 61.9744 71.8582 64.1727 70.1227 65.9082C68.3872 67.6437 66.1889 68.5693 63.7592 68.685H63.6435ZM64.222 66.1396V68.2222C68.7343 67.9908 72.4367 64.1727 72.4367 59.5447V51.7928H70.3541V59.5447C70.3541 61.2802 69.6599 62.9 68.5029 64.1727C67.3459 65.3297 65.8418 66.0239 64.222 66.1396Z" fill="#F14344"/>
<path d="M63.6422 26.8013C58.5514 26.8013 54.502 30.9665 54.502 35.9416V59.4288C54.502 64.5196 58.6671 68.5691 63.6422 68.5691V65.6766C60.2869 65.6766 57.5101 62.8998 57.5101 59.5444V36.0573C57.5101 32.702 60.2869 29.9252 63.6422 29.9252C66.9975 29.9252 69.7744 32.702 69.7744 36.0573V51.3297H72.7826V36.0573C72.8983 30.9665 68.733 26.8013 63.6422 26.8013Z" fill="#F14344"/>
<path d="M36.107 15.8101C36.107 30.2726 25.1154 42.1897 11 43.6938V46.702C22.1072 45.6607 31.479 38.8344 36.107 29.2313V80.8336H39.1152V15.8101H36.107Z" fill="#F14344"/>
<path d="M30.0908 49.3628V80.8333H33.0991V47.0488L32.8677 47.1645C32.0578 47.9744 31.1321 48.6686 30.0908 49.3628Z" fill="#F14344"/>
<path d="M33.2125 15.8101H30.2044C30.2044 26.9173 21.8739 36.1733 11.2295 37.5617V40.6856C23.4937 39.1815 33.2125 28.5371 33.2125 15.8101Z" fill="#F14344"/>
<path d="M11.1143 49.7103V52.7185C19.5604 52.0243 27.3123 48.5533 33.213 43.1154V38.8345C27.5437 44.8509 19.7918 48.9004 11.1143 49.7103Z" fill="#F14344"/>
<path d="M106.452 59.5445V36.0573C106.452 30.9665 102.286 26.917 97.3113 26.917C92.2204 26.917 88.1709 31.0822 88.1709 36.0573V51.3298H91.1791V36.0573C91.1791 32.702 93.9559 29.9252 97.3113 29.9252C100.667 29.9252 103.443 32.702 103.443 36.0573V59.5445C103.443 62.8998 100.667 65.6766 97.3113 65.6766V68.6848C102.286 68.6848 106.452 64.5196 106.452 59.5445Z" fill="#F14344"/>
<path d="M79.0312 35.8257C79.0312 34.9001 78.9155 31.8919 77.18 28.9994C74.6346 24.14 69.6595 20.9004 63.7588 20.9004H63.5274C55.1969 20.9004 48.4863 27.611 48.4863 35.9414V59.5443C48.4863 67.8747 55.1969 74.5853 63.5274 74.5853H63.643V71.5771H63.5274C56.9325 71.5771 51.4945 66.1392 51.4945 59.5443V35.9414C51.4945 29.3465 56.9325 23.9086 63.5274 23.9086H63.8745C70.4694 23.9086 75.9073 29.3465 75.9073 35.9414V40.8008H79.0312V36.1728C79.0312 36.0571 79.0312 35.9414 79.0312 35.8257Z" fill="#F14344"/>
<path d="M97.1959 15C96.8488 15 96.6174 15 96.2703 15H96.1547C95.5762 15 94.8819 15.1157 94.3034 15.2314H94.1878H94.0721C93.4936 15.3471 92.915 15.4628 92.2208 15.5785C92.2208 15.5785 92.2209 15.5785 92.1052 15.5785C91.5267 15.6942 90.9482 15.9256 90.3697 16.157H90.2539C89.6754 16.3884 89.0969 16.6198 88.5184 16.8512C85.3945 18.2396 82.6177 20.4379 80.5351 23.2147C76.717 18.2396 70.5849 15 63.7586 15C55.891 15 48.9489 19.3966 45.2465 25.7601V15.8099H42.2383V80.8335H45.2465V69.8419C48.9489 76.3212 55.7753 80.6021 63.7586 80.6021V77.5939C53.6927 77.5939 45.5936 69.3791 45.5936 59.4289V36.1732C45.5936 26.1072 53.6927 18.0082 63.7586 18.0082C73.8245 18.0082 81.9235 26.1072 81.9235 36.1732V40.8012H83.8904H85.1631V35.9418C85.1631 29.3468 90.601 23.9089 97.1959 23.9089H97.5431C104.138 23.9089 109.576 29.3468 109.576 35.9418V59.5446C109.576 66.1395 104.138 71.5774 97.5431 71.5774H97.4273V74.5857H97.5431C105.874 74.5857 112.584 67.875 112.584 59.5446V35.9418C112.584 27.6113 105.874 20.9007 97.5431 20.9007H97.0803C91.2952 20.9007 86.2045 24.256 83.659 28.9997C83.312 27.8427 82.7334 26.8014 82.2706 25.8758C82.9648 24.8345 83.7747 23.9089 84.5846 23.099C86.2044 21.4792 88.1713 20.2065 90.2539 19.3966C90.7167 19.1652 91.2952 18.9338 91.8737 18.8181H91.9894C92.2208 18.7024 92.3365 18.7024 92.5679 18.7024H92.6837H92.7993C93.0307 18.5867 93.3778 18.5867 93.6092 18.471H93.7249C93.7249 18.471 93.725 18.471 93.8407 18.471C93.8407 18.471 93.8406 18.471 93.9563 18.471C94.072 18.471 94.3035 18.3553 94.4192 18.3553H94.5348H94.6506C94.882 18.3553 95.1134 18.2396 95.3448 18.2396C95.4605 18.2396 95.5761 18.2396 95.6918 18.2396C95.8075 18.2396 95.9232 18.2396 96.0389 18.2396H96.1547C96.3861 18.2396 96.7332 18.2396 96.9646 18.2396C107.031 18.2396 115.129 26.3386 115.129 36.4046V59.6603C115.129 69.7262 107.031 77.8253 96.9646 77.8253V80.8335C108.65 80.8335 118.138 71.3461 118.138 59.6603V36.1732C118.485 24.4874 108.882 15 97.1959 15Z" fill="#F14344"/>
<path d="M132.6 34.6687H128.782V32.0076H129.823L130.749 15.6938H137.691V34.6687H134.799V18.4707H133.41L132.6 34.6687Z" fill="#F14344"/>
<path d="M139.773 15.6938H146.831V18.355H142.666V22.983H146.715V25.6441H142.666V31.8919H146.831V34.553H139.773V15.6938Z" fill="#F14344"/>
<path d="M148.221 15.6938H156.551V18.355H153.774V34.6687H150.882V18.4707H148.221V15.6938Z" fill="#F14344"/>
<path d="M137.691 39.0654H141.162V58.0403H138.27V49.9413L138.733 44.5033H138.617L136.65 54.2222H133.989L131.906 44.5033H131.791L132.369 49.9413V58.0403H129.477V39.0654H132.948L135.262 49.9413H135.377L137.691 39.0654Z" fill="#F14344"/>
<path d="M144.518 58.0403C143.708 58.0403 143.245 57.5775 143.245 56.7676V40.3381C143.245 39.6439 143.708 39.0654 144.518 39.0654H150.534C151.344 39.0654 151.807 39.5282 151.807 40.3381V56.8833C151.807 57.5775 151.344 58.156 150.534 58.156L144.518 58.0403ZM148.914 41.7265H146.022V55.3792H148.914V41.7265Z" fill="#F14344"/>
<path d="M155.046 58.0403C154.236 58.0403 153.773 57.5775 153.773 56.7676V40.3381C153.773 39.6439 154.236 39.0654 155.046 39.0654H162.104V44.5033H159.211V41.8422H156.666V55.2635H159.211V51.7925H162.104V58.0403H155.046Z" fill="#F14344"/>
<path d="M173.095 58.0403H170.087L167.542 49.1314H166.848V58.0403H163.955V39.0654H166.848V46.3546H167.658L170.087 39.0654H173.095L170.203 47.743L173.095 58.0403Z" fill="#F14344"/>
<path d="M175.641 58.0403C174.831 58.0403 174.368 57.5775 174.368 56.7676V40.3381C174.368 39.6439 174.831 39.0654 175.641 39.0654H181.657C182.467 39.0654 182.93 39.5282 182.93 40.3381V56.8833C182.93 57.5775 182.467 58.156 181.657 58.156L175.641 58.0403ZM180.153 41.7265H177.261V55.3792H180.153V41.7265Z" fill="#F14344"/>
<path d="M193.342 45.6603C193.342 46.7016 192.764 47.5116 191.954 47.743C192.764 48.0901 193.342 48.7843 193.342 49.8256V56.7676C193.342 57.4618 192.879 58.0403 192.069 58.0403H185.012V39.0654H192.069C192.879 39.0654 193.342 39.5282 193.342 40.3381V45.6603ZM190.45 41.7265H187.904V46.3546H190.45V41.7265ZM187.904 55.2635H190.45V49.0157H187.904V55.2635Z" fill="#F14344"/>
<path d="M196.583 58.0403C195.773 58.0403 195.311 57.5775 195.311 56.7676V40.3381C195.311 39.6439 195.773 39.0654 196.583 39.0654H203.641V44.5033H200.748V41.8422H198.203V55.2635H200.748V51.7925H203.641V58.0403H196.583Z" fill="#F14344"/>
<path d="M214.632 58.0403H211.624L209.079 49.1314H208.385V58.0403H205.492V39.0654H208.385V46.3546H209.195L211.624 39.0654H214.632L211.74 47.743L214.632 58.0403Z" fill="#F14344"/>
<path d="M217.292 58.0403C216.482 58.0403 216.02 57.5775 216.02 56.7676V40.3381C216.02 39.6439 216.482 39.0654 217.292 39.0654H223.309C224.119 39.0654 224.581 39.5282 224.581 40.3381V56.8833C224.581 57.5775 224.119 58.156 223.309 58.156L217.292 58.0403ZM221.689 41.7265H218.796V55.3792H221.689V41.7265Z" fill="#F14344"/>
<path d="M234.763 39.0654H238.234V58.0403H235.342V49.9413L235.804 44.5033H235.689L233.722 54.2222H231.061L228.978 44.5033H228.862L229.325 49.9413V58.0403H226.433V39.0654H229.904L232.218 49.9413H232.333L234.763 39.0654Z" fill="#F14344"/>
<path d="M246.219 58.0403H242.4V55.2635H243.905L244.483 51.7925H242.4L239.739 39.0654H242.632L244.714 49.1314H244.83L246.45 39.0654H249.342L246.219 58.0403Z" fill="#F14344"/>
<path d="M130.749 81.4118C129.939 81.4118 129.477 80.949 129.477 80.1391V63.594C129.477 62.8998 129.939 62.3213 130.749 62.3213H137.807V67.7592H134.914V64.9824H132.369V78.635H134.914V75.0483H137.807V81.2961L130.749 81.4118Z" fill="#F14344"/>
<path d="M148.335 62.3213V81.4118H145.442V65.0981H142.434V81.4118H139.657V62.3213H148.335Z" fill="#F14344"/>
<path d="M151.691 81.4118C150.881 81.4118 150.418 80.949 150.418 80.1391V63.594C150.418 62.8998 150.881 62.3213 151.691 62.3213H157.707C158.517 62.3213 158.98 62.7841 158.98 63.594V80.1391C158.98 80.8333 158.517 81.4118 157.707 81.4118H151.691ZM156.087 65.0981H153.195V78.7507H156.087V65.0981Z" fill="#F14344"/>
<path d="M163.84 75.164V81.4118H160.947V62.3213H168.121C168.931 62.3213 169.393 62.7841 169.393 63.594V73.8913C169.393 74.5855 168.931 75.164 168.121 75.164H163.84ZM163.84 72.3872H166.501V65.0981H163.84V72.3872Z" fill="#F14344"/>
<path d="M170.781 62.3213H179.112V65.0981H176.451V81.4118H173.442V65.0981H170.781V62.3213Z" fill="#F14344"/>
<path d="M186.401 81.4118H182.583V78.635H184.087L184.666 75.0483H182.583L179.922 62.2056H182.814L184.897 72.2715H185.013L186.633 62.2056H189.525L186.401 81.4118Z" fill="#F14344"/>
</svg>
