<svg width="853" height="313" viewBox="0 0 853 313" fill="none" xmlns="http://www.w3.org/2000/svg">
<g clip-path="url(#clip0_889_115)">
<rect width="853" height="313" fill="white"/>
<path d="M852.765 312.996H-0.03125V-0.0612276H852.765V312.996Z" fill="black"/>
<mask id="mask0_889_115" style="mask-type:luminance" maskUnits="userSpaceOnUse" x="-135" y="-241" width="1124" height="794">
<path d="M-134.5 -241H988.02V552.701H-134.5V-241Z" fill="white"/>
</mask>
<g mask="url(#mask0_889_115)">
<path d="M788.156 215.088C790.371 237.449 771.733 256.087 749.371 253.873C732.824 252.233 719.44 238.849 717.8 222.303C715.585 199.941 734.225 181.303 756.585 183.517C773.133 185.156 786.517 198.54 788.156 215.088Z" fill="#EAEAEA"/>
<path d="M722.932 57.7357V175.765L783.701 139.148V57.7357H722.932Z" fill="#EAEAEA"/>
<path d="M359.853 106.313V155.084H329.641L359.853 106.313ZM325.475 57.7358L268.909 149.025V57.7358H208.179L167.009 112.14L125.3 57.7358H64.5293V250.694H125.3V147.829L167.009 201.962L208.179 148.524V250.694H270.415L295.688 209.873H359.853V250.694H420.624V112.564H452.919V250.694H513.689V112.564H544.285V192.472V210.105H637.351V250.694H698.121V57.7358H637.351V155.277H605.056V57.7358H325.475Z" fill="#C49E56"/>
</g>
</g>
<defs>
<clipPath id="clip0_889_115">
<rect width="853" height="313" fill="white"/>
</clipPath>
</defs>
</svg>
