<svg width="260" height="95" viewBox="0 0 260 95" fill="none" xmlns="http://www.w3.org/2000/svg">
<path d="M142.234 50.0946H137.46V18.509H142.234V30.9049H143.05C145.611 30.9049 146.426 28.0443 146.426 25.8989V18.509H151.2V25.7797C151.2 29.117 150.036 31.62 147.707 33.1695C150.269 34.9574 151.2 37.3412 151.2 40.5594V50.0946H146.426V40.4402C146.426 38.4139 145.495 35.9109 143.05 35.9109H142.234V50.0946ZM222.345 50.0946V18.509H226.537V36.9836L231.427 18.509H236.667V50.0946H232.475V28.0443L226.653 50.0946H222.345ZM240.044 50.0946V18.509H244.236V36.9836L249.126 18.509H254.366V50.0946H250.174V28.0443L244.352 50.0946H240.044ZM252.386 11V14.6949H242.023V11H252.386ZM210.352 50.0946H205.578V18.509H210.352V30.9049H211.167C213.728 30.9049 214.544 28.0443 214.544 25.8989V18.509H219.318V25.7797C219.318 29.117 218.153 31.62 215.824 33.1695C218.386 34.9574 219.318 37.3412 219.318 40.5594V50.0946H214.544V40.4402C214.544 38.4139 213.612 35.9109 211.167 35.9109H210.352V50.0946ZM124.885 49.9755H120.111V18.3898H124.885H129.426H134.2V31.1433H129.426V22.9191H124.885V45.4462H129.426V37.222H134.2V49.8563H129.426H124.885V49.9755ZM193.002 49.9755H188.228V18.3898H193.002H197.543H202.317V31.1433H197.543V22.9191H193.002V45.4462H197.543V37.222H202.317V49.8563H197.543H193.002V49.9755ZM112.077 22.9191H107.652C107.652 30.5473 107.652 37.9372 107.652 45.4462H112.077C112.077 37.9372 112.077 30.5473 112.077 22.9191ZM107.535 49.9755H102.878C102.878 39.4866 102.878 28.8786 102.878 18.3898H107.652H112.193H116.967C116.967 28.8786 116.967 39.4866 116.967 49.9755H112.193H107.535ZM163.659 22.9191H159.235C159.235 30.5473 159.235 37.9372 159.235 45.4462H163.659C163.659 37.9372 163.659 30.5473 163.659 22.9191ZM159.235 49.9755H154.461C154.461 39.4866 154.461 28.8786 154.461 18.3898H159.235H163.776H168.55C168.55 28.8786 168.55 39.4866 168.55 49.9755H163.776H159.235ZM176.584 22.9191V31.3817C178.331 31.5008 180.427 31.3817 180.427 28.1635V25.3029V22.9191H176.584ZM176.584 35.9109V45.4462H180.427C180.427 43.4199 180.427 41.3937 180.427 39.2483C180.427 36.1493 178.331 35.7917 176.584 35.9109ZM185.201 23.9918V25.3029V27.8059C185.201 30.3089 184.153 32.216 182.523 33.2887C184.269 34.719 185.201 36.8644 185.201 39.6058C185.201 43.0624 185.201 46.5189 185.201 49.9755C182.29 49.9755 179.495 49.9755 176.584 49.9755H171.81V18.3898H176.584C179.495 18.3898 182.29 18.3898 185.201 18.3898V23.9918ZM89.6037 39.6058C90.8845 32.8119 92.3982 25.3029 93.2133 18.509H99.6175V50.0946H95.5421V37.5796L96.0079 26.2564C95.4257 29.8322 93.0969 43.3008 90.1859 49.7371H89.7201H89.2543C86.3433 43.3008 84.0145 29.9514 83.4323 26.2564L83.8981 37.5796V50.0946H79.5898V18.509H85.994C86.6927 25.3029 88.3228 32.8119 89.6037 39.6058Z" fill="#F14344"/>
<path d="M135.713 58.9808V72.2929C137.445 72.4058 139.524 72.0673 139.524 69.0213V66.3138V58.9808H135.713ZM144.258 65.0728V66.3138V68.6829C144.258 73.3083 141.833 76.4671 137.329 76.4671H135.828V84.4769H131.094V54.6938C135.482 54.6938 139.87 54.6938 144.258 54.6938V65.0728ZM145.644 54.6938H160.079V58.9808H155.229V84.5898H150.494V58.9808H145.644V54.6938ZM123.125 58.9808H118.737C118.737 66.201 118.737 73.1955 118.737 80.3028H123.125C123.125 73.0827 123.125 66.0881 123.125 58.9808ZM118.737 84.5898H114.003C114.003 74.6621 114.003 64.6215 114.003 54.6938H118.737H123.241H127.976C127.976 64.6215 127.976 74.6621 127.976 84.5898H123.241H118.737ZM84.3245 84.5898H79.5898V54.6938H84.3245H88.8282H93.5628V66.6522H88.8282V58.868H84.3245V80.19H88.8282V72.4058H93.5628V84.3641H88.8282H84.3245V84.5898ZM101.531 84.5898H96.7962V54.6938H110.654V84.5898H105.919V58.9808H101.531V84.5898Z" fill="#F14344"/>
<path d="M38.1953 68.8096C39.39 70.1818 40.704 71.554 42.0181 72.8118C48.4692 78.6436 56.5928 82.8745 65.7915 84.5897V79.3297C58.1458 77.6145 51.3364 74.0696 45.9605 69.1526C44.1685 67.5517 42.6155 65.8365 41.1819 63.8926L38.1953 68.8096Z" fill="#F14344"/>
<path d="M18.7619 62.5765C24.6702 57.0351 28.3333 49.4157 28.3333 41.1036V17.8989H33.8871V41.1036C33.8871 45.1442 34.5961 49.9929 35.8959 53.6872C37.1957 49.9929 37.9047 45.2596 37.9047 41.1036V17.8989H43.4585V41.1036C43.4585 49.4157 47.1216 57.0351 53.0299 62.5765C56.5749 65.9245 60.947 68.4643 65.7918 69.9651V75.391C59.4109 73.6594 53.7389 70.5423 49.1305 66.2708C45.7037 63.0383 42.8677 59.3441 40.977 55.0725C39.559 58.7668 37.9047 62.1148 35.8959 64.77C33.8871 62.1148 32.3509 58.6514 30.8148 55.0725C28.9241 59.2286 26.0881 63.0383 22.6613 66.2708C18.0529 70.5423 12.3809 73.6594 6 75.391V69.9651C10.8448 68.4643 15.2169 65.9245 18.7619 62.5765Z" fill="#F14344"/>
<path d="M52.7652 41.2416C52.7652 47.1983 55.3934 52.593 59.5071 56.5267C61.3355 58.2126 63.3923 59.6736 65.792 60.6852V66.1923C62.0211 64.8436 58.593 62.7082 55.7362 60.1232C50.5941 55.2904 47.3945 48.6594 47.3945 41.354V36.2964H52.7652V41.2416Z" fill="#F14344"/>
<path d="M19.0268 36.2964H24.3975V41.354C24.3975 48.6594 21.1979 55.2904 16.0558 60.1232C13.199 62.8206 9.77092 64.8436 6 66.1923V60.6852C8.2854 59.6736 10.4565 58.2126 12.2849 56.5267C16.5129 52.593 19.0268 47.1983 19.0268 41.2416V36.2964Z" fill="#F14344"/>
<path d="M30.6096 63.8926C29.176 65.7222 27.5035 67.5517 25.831 69.1526C20.4551 74.0696 13.6457 77.6145 6 79.3297V84.5897C15.1987 82.7602 23.4418 78.6436 29.7734 72.8118C31.0875 71.554 32.4016 70.2961 33.5962 68.8096L30.6096 63.8926Z" fill="#F14344"/>
</svg>
