<svg width="147" height="148" viewBox="0 0 147 148" fill="none" xmlns="http://www.w3.org/2000/svg">
<g clip-path="url(#clip0_889_119)">
<path d="M16.0225 28.7524C-8.74566 60.5935 -3.01193 106.484 28.8291 131.252C60.6702 156.021 106.561 150.287 131.329 118.446C156.097 86.6047 150.364 40.7139 118.522 15.9458C86.6814 -8.82233 40.7906 -3.0886 16.0225 28.7524Z" fill="#E1AC54"/>
<path d="M63.1794 60.2655C60.3282 57.4208 57.0383 56.1079 52.6518 56.1079C48.4846 56.1079 44.9754 57.4208 42.1242 60.2655C41.9049 60.4843 41.9049 60.7031 41.6855 60.7031V79.7403C41.9049 79.9591 41.9049 80.1779 42.1242 80.1779C44.9754 83.0226 48.4846 84.3355 52.6518 84.3355C56.819 84.3355 60.3282 83.0226 63.1794 80.1779C66.0306 77.3333 67.3466 74.051 67.3466 70.1123C67.3466 66.3924 66.0306 63.1101 63.1794 60.2655ZM59.2316 79.3027L52.6518 74.4887L46.0721 79.3027L48.4846 71.644L41.9049 66.83H50.0199L52.4325 59.1714L54.8451 66.83H62.9601L56.3803 71.644L59.2316 79.3027Z" fill="#DB423F"/>
<path d="M51.5546 95.9327C51.7739 95.9327 51.9932 95.9327 52.2126 95.9327C52.6512 95.9327 53.0899 95.9327 53.0899 95.0575C53.0899 94.6198 52.8705 94.1822 52.2126 94.1822C51.9932 94.1822 51.9932 94.1822 51.7739 94.1822H51.5546V95.9327ZM49.3613 100.528V92.6505C49.3613 92.4316 49.3613 92.4316 49.5807 92.4316C49.8 92.4316 50.2386 92.4316 50.6773 92.4316C51.1159 92.4316 51.7739 92.4316 51.9932 92.4316C55.0638 92.4316 55.5024 94.401 55.5024 95.2763C55.5024 96.808 54.4058 98.1209 52.4319 98.1209C52.2126 98.1209 51.9932 98.1209 51.7739 98.1209V100.747C51.7739 100.966 51.7739 100.966 51.5546 100.966L49.3613 100.528Z" fill="white"/>
<path d="M62.9591 97.0268L62.0818 94.8386L61.2045 97.0268H62.9591ZM64.0557 100.528L63.6171 98.9962H60.5465L59.8886 100.528C59.8886 100.528 59.8886 100.747 59.6692 100.747H57.9146C57.6953 100.747 57.6953 100.528 57.6953 100.528L60.9852 92.6505C60.9852 92.6505 60.9852 92.4316 61.2045 92.4316H62.7398C62.7398 92.4316 62.9591 92.4316 62.9591 92.6505L66.249 100.528C66.249 100.747 66.249 100.747 66.0297 100.747L64.0557 100.528C64.2751 100.747 64.2751 100.747 64.0557 100.528Z" fill="white"/>
<path d="M74.5841 98.5586V94.1823H73.2682L73.0488 95.4952C73.0488 96.5893 72.6102 97.9022 72.3909 98.5586H74.5841ZM75.9001 101.841V100.747H71.2942V101.841C71.2942 102.06 71.2942 102.06 71.0749 102.06H69.5396C69.3203 102.06 69.3203 102.06 69.3203 101.841V98.7774C69.3203 98.5586 69.3203 98.5586 69.5396 98.5586H70.1976C70.6363 98.121 71.0749 96.3704 71.2942 93.9634V92.4317C71.2942 92.2129 71.2942 92.2129 71.5136 92.2129H76.7774C76.9967 92.2129 76.9967 92.2129 76.9967 92.4317V98.5586H77.874C78.0933 98.5586 78.0933 98.5586 78.0933 98.7774V101.841C78.0933 102.06 78.0933 102.06 77.874 102.06L75.9001 101.841C75.9001 102.06 75.9001 102.06 75.9001 101.841Z" fill="white"/>
<path d="M86.4279 100.528V96.1516L83.138 100.747C83.138 100.747 83.138 100.747 82.9187 100.747H81.3834C81.1641 100.747 81.1641 100.747 81.1641 100.528V92.6505C81.1641 92.4316 81.1641 92.4316 81.3834 92.4316H83.138C83.3573 92.4316 83.3573 92.4316 83.3573 92.6505V97.0268L86.6472 92.4316C86.6472 92.4316 86.6472 92.4316 86.8665 92.4316H88.4018C88.6211 92.4316 88.6211 92.4316 88.6211 92.6505V100.528C88.6211 100.747 88.6211 100.747 88.4018 100.747L86.4279 100.528Z" fill="white"/>
<path d="M95.8572 94.1823C94.5413 94.1823 93.664 95.0576 93.664 96.3705C93.664 97.6834 94.5413 98.5587 95.8572 98.5587C97.3925 98.5587 98.0505 97.4646 98.0505 96.3705C97.8311 95.2764 96.9538 94.1823 95.8572 94.1823ZM95.8572 100.747C93.2253 100.747 91.4707 98.9963 91.4707 96.3705C91.4707 93.9635 93.4446 91.9941 95.8572 91.9941C98.4891 91.9941 100.244 93.7447 100.244 96.3705C100.244 98.9963 98.2698 100.747 95.8572 100.747Z" fill="white"/>
<path d="M52.6507 74.4886L46.2902 79.3026L48.7028 71.644L42.123 67.0488H50.2381L52.6507 59.3901L55.2826 67.0488H63.1783L56.8178 71.644L59.2304 79.3026L52.6507 74.4886Z" fill="white"/>
<path d="M16.6816 83.8979V56.7644H25.016V65.9548H33.3504V56.7644H41.904V83.8979H33.3504V73.1758H25.016V83.8979H16.6816Z" fill="white"/>
<path d="M86.427 71.2065C85.3304 69.8936 84.2338 69.0183 82.9178 68.7995C83.5758 68.3618 84.4531 67.9242 85.1111 66.8301C85.769 65.9548 86.2077 64.8608 86.2077 63.5478C86.2077 61.3597 85.3304 59.6091 83.7951 58.2962C82.2598 56.9833 80.0666 56.5457 77.654 56.5457H63.6172V60.922C66.0298 63.5478 67.3457 66.6113 67.3457 70.3312C67.3457 74.0511 66.0298 77.1146 63.6172 79.7404V83.898H78.0926C81.1632 83.898 83.5758 83.2415 85.3304 81.7098C87.085 80.178 88.1816 78.4275 88.1816 76.0205C88.1816 74.0511 87.5236 72.5194 86.427 71.2065ZM72.1709 63.329H76.338C77.4347 63.329 78.312 64.2043 78.312 65.2984C78.312 66.1737 77.4347 67.0489 76.338 67.0489H72.1709V63.329ZM76.5574 77.3334H72.1709V72.7382H76.5574C78.0927 72.7382 78.9699 73.6135 78.9699 74.9264C78.9699 76.4581 78.0927 77.3334 76.5574 77.3334Z" fill="white"/>
<path d="M108.36 60.2655C105.509 57.4208 102.219 56.1079 97.8329 56.1079C93.6657 56.1079 90.1565 57.4208 87.3053 60.2655C86.8666 60.7031 86.428 61.3595 85.9893 61.7972C86.2087 62.2348 86.2086 62.8913 86.2086 63.5477C86.2086 64.8606 85.77 65.9547 85.112 66.83C84.454 67.4865 84.0154 68.1429 83.3574 68.3617C83.3574 68.5806 83.3574 68.5806 83.3574 68.7994C84.454 69.0182 85.5507 69.8935 86.428 70.9876C87.5246 72.3005 88.1826 73.8322 88.1826 75.8016C88.1826 77.3333 87.7439 78.6462 87.086 79.7403C87.3053 79.9591 87.3053 79.9591 87.5246 80.1779C90.3758 83.0226 93.885 84.3355 98.0522 84.3355C102.219 84.3355 105.729 83.0226 108.58 80.1779C111.431 77.3333 112.747 74.051 112.747 70.1123C112.528 66.3924 110.992 63.1101 108.36 60.2655Z" fill="#DB423F"/>
<path d="M132.923 60.2654C130.291 57.6396 126.782 56.3267 122.615 56.3267C118.448 56.3267 114.938 57.6396 112.087 60.4842C111.429 61.1407 110.771 62.0159 110.113 62.8912C111.649 65.0794 112.307 67.7052 112.307 70.5499C112.307 73.3945 111.649 76.0203 110.113 78.2085C110.552 79.0838 111.21 79.7402 112.087 80.6155C114.938 83.4601 118.448 84.773 122.615 84.773C126.782 84.773 130.072 83.4601 132.923 80.8343L122.834 70.7687L132.923 60.2654ZM120.86 65.0794C119.764 65.0794 118.667 64.2041 118.667 62.8912C118.667 61.7971 119.544 60.703 120.86 60.703C121.957 60.703 123.053 61.5783 123.053 62.8912C123.053 64.2041 121.957 65.0794 120.86 65.0794Z" fill="white"/>
</g>
<defs>
<clipPath id="clip0_889_119">
<rect width="147" height="148" fill="white"/>
</clipPath>
</defs>
</svg>
