<svg width="590" height="614" viewBox="0 0 590 614" fill="none" xmlns="http://www.w3.org/2000/svg">
<path d="M294.047 66.4225C435.754 201.255 440.593 425.892 305.314 568.26L48.865 324.248L294.047 66.4225Z" fill="#EE2C3C"/>
<path d="M157.413 502.878C191.658 525.983 238.149 516.953 261.255 482.708C284.36 448.463 275.33 401.972 241.085 378.866C206.84 355.761 160.349 364.791 137.243 399.036C114.138 433.281 123.168 479.772 157.413 502.878Z" fill="#3B3393"/>
<path fill-rule="evenodd" clip-rule="evenodd" d="M391.55 510.706C475.369 360.086 450.499 166.208 320.13 41.6728C307.968 30.0982 295.249 19.3504 282.025 9.70624L276.405 15.5392C289.629 25.1834 302.348 35.9312 314.51 47.5058C441.853 169.037 466.42 357.657 385.551 504.975L391.55 510.706Z" fill="#282828"/>
</svg>
