<svg width="419" height="336" viewBox="0 0 419 336" fill="none" xmlns="http://www.w3.org/2000/svg">
<g clip-path="url(#clip0_889_116)">
<path d="M401.059 282.981H20.3848V48.748H401.059V282.981Z" fill="#EE2922"/>
<mask id="mask0_889_116" style="mask-type:luminance" maskUnits="userSpaceOnUse" x="-140" y="-206" width="761" height="702">
<path d="M-139.5 -205.999H620.463V495.779H-139.5V-205.999Z" fill="white"/>
</mask>
<g mask="url(#mask0_889_116)">
<path d="M264.746 117.672V121.925H301.377C303.806 121.925 307.478 121.925 309.914 124.377C312.346 126.816 312.346 130.473 312.346 132.925V169.521C312.346 171.949 312.346 175.628 309.914 178.059C307.478 180.497 303.806 180.497 301.377 180.497H283.686C280.63 180.497 276.658 180.497 275.138 177.135C273.61 173.785 275.745 170.737 277.578 168.291L301.377 136.597H264.746L250.122 156.111C247.674 159.376 245.553 162.207 245.553 165.857C245.553 169.521 247.507 172.167 250.122 175.628L253.799 180.497C257.43 185.369 261.109 190.261 265.986 192.696C270.875 195.131 276.658 195.131 284.597 195.131H300.466C309.609 195.131 323.351 195.131 332.494 185.989C341.643 176.833 341.643 163.425 341.643 158.528V143.895C341.643 139.015 341.643 125.593 332.494 116.456C323.351 107.309 309.609 107.309 300.466 107.309H275.138C272.699 107.309 269.649 107.309 267.219 109.737C264.746 112.183 264.746 115.227 264.746 117.672Z" fill="white"/>
<path d="M220.84 136.597H257.429L213.525 195.152H176.92L220.84 136.597Z" fill="white"/>
<path d="M78.0957 146.941C78.0957 144.513 78.0957 141.458 80.5304 139.02C82.977 136.594 86.017 136.594 88.465 136.594H149.772C157.692 136.594 163.506 136.594 168.374 139.02C173.261 141.458 176.914 146.345 180.597 151.217L184.24 156.108C186.829 159.565 188.817 162.205 188.817 165.861C188.817 169.524 186.697 172.353 184.24 175.632L169.602 195.149H132.986L156.78 163.421C158.626 160.993 160.754 157.94 159.233 154.568C157.692 151.217 153.74 151.217 150.672 151.217H122.021V224.414H92.7357V151.217H78.0957V146.941Z" fill="white"/>
<path d="M123.632 315.613C123.632 323.821 123.632 323.821 128.715 323.821C133.795 323.821 133.795 323.821 133.795 315.613V314.83C133.795 306.622 133.795 306.622 128.715 306.622C123.632 306.622 123.632 306.622 123.632 314.83V315.613ZM129.105 303.17C137.704 303.17 137.704 309.554 137.704 314.245V316.198C137.704 320.889 137.704 327.273 129.105 327.273H128.323C119.723 327.273 119.723 320.889 119.723 316.198V314.245C119.723 309.554 119.723 303.17 128.323 303.17H129.105Z" fill="#231F20"/>
<path d="M149.366 306.817C149.366 309.749 148.388 312.68 146.63 317.957H154.058C152.296 312.68 151.32 309.749 151.32 306.817H149.366ZM153.014 303.691L160.31 325.579V326.752H156.987L155.034 320.889H145.654L143.698 326.752H140.375V325.579L147.671 303.691H153.014Z" fill="#231F20"/>
<path d="M166.894 315.613C166.894 323.821 166.894 323.821 171.974 323.821C177.055 323.821 177.055 323.821 177.055 315.613V314.83C177.055 306.622 177.055 306.622 171.974 306.622C166.894 306.622 166.894 306.622 166.894 314.83V315.613ZM172.364 303.17C180.964 303.17 180.964 309.554 180.964 314.245V316.198C180.964 320.889 180.964 327.273 172.364 327.273H171.583C162.984 327.273 162.984 320.889 162.984 316.198V314.245C162.984 309.554 162.984 303.17 171.583 303.17H172.364Z" fill="#231F20"/>
<path d="M202.205 319.457V317.633L207.677 310.335H208.458V313.723L205.135 318.154L205.722 318.934C207.677 321.539 208.654 322.843 208.654 325.579V326.753H207.677L202.205 319.457ZM195.561 319.457V317.633L201.031 310.335H201.813V313.723L198.491 318.154L199.078 318.934C201.031 321.539 202.009 322.843 202.009 325.579V326.753H201.031L195.561 319.457Z" fill="#231F20"/>
<path d="M217.386 316.589H221.686C225.79 316.589 225.79 316.589 225.79 311.704C225.79 306.817 225.79 306.817 221.686 306.817H217.386V316.589ZM213.867 303.691H219.339C225.79 303.691 229.503 303.691 229.503 311.704C229.503 319.717 225.79 319.717 219.339 319.717H217.386V326.752H213.867V303.691Z" fill="#231F20"/>
<path d="M239.961 315.221L232.176 304.863V303.691H236.085C240.189 309.163 242.145 311.443 242.145 313.658H244.684V303.691H248.202V313.658H250.744C250.744 311.769 252.697 309.163 256.801 303.691H260.709V304.863L252.926 315.221L260.709 325.579V326.753H256.801C252.697 321.279 250.744 318.674 250.744 316.785H248.202V326.753H244.684V316.785H242.145C242.145 318.674 240.189 321.279 236.085 326.753H232.176V325.579L239.961 315.221Z" fill="#231F20"/>
<path d="M277.814 323.626V306.818H271.363C271.363 311.964 271.038 317.371 268.236 323.626H277.814ZM265.696 326.752V331.767H262.568V323.626H264.556C267.488 317.338 267.976 311.964 267.976 306.818V303.691H281.332V323.626H284.067V331.767H280.94V326.752H265.696Z" fill="#231F20"/>
<path d="M300.16 317.632V319.456L294.689 326.752H293.908V323.364L297.23 318.935L296.642 318.154C294.689 315.548 293.712 314.244 293.712 311.508V310.335H294.689L300.16 317.632ZM293.517 317.632V319.456L288.044 326.752H287.261V323.364L290.584 318.935L289.998 318.154C288.044 315.548 287.066 314.244 287.066 311.508V310.335H288.044L293.517 317.632Z" fill="#231F20"/>
<path d="M5.99023 16.3948C5.99023 24.7921 5.99023 24.7921 11.1876 24.7921C16.3876 24.7921 16.3876 24.7921 16.3876 16.3948V15.5948C16.3876 7.19744 16.3876 7.19744 11.1876 7.19744C5.99023 7.19744 5.99023 7.19744 5.99023 15.5948V16.3948ZM11.5876 3.66411C20.3862 3.66411 20.3862 10.1961 20.3862 14.9948V16.9948C20.3862 21.7934 20.3862 28.3254 11.5876 28.3254H10.7889C1.99023 28.3254 1.99023 21.7934 1.99023 16.9948V14.9948C1.99023 10.1961 1.99023 3.66411 10.7889 3.66411H11.5876Z" fill="#231F20"/>
<path d="M44.9521 14.0953C44.9521 8.76327 44.8854 8.76327 41.2188 8.76327H38.3534V20.2273H41.2188C44.8854 20.2273 44.9521 20.2273 44.9521 14.8953V14.0953ZM28.1561 14.8953C28.1561 20.2273 28.2228 20.2273 31.8881 20.2273H34.7548V8.76327H31.8881C28.2228 8.76327 28.1561 8.76327 28.1561 14.0953V14.8953ZM38.3534 27.7926H34.7548V23.4259H33.2881C28.2228 23.4259 24.3574 23.4259 24.3574 14.4953C24.3574 5.5646 28.2228 5.5646 33.2881 5.5646H34.7548V2.53127H38.3534V5.5646H39.8188C44.8854 5.5646 48.7508 5.5646 48.7508 14.4953C48.7508 23.4259 44.8854 23.4259 39.8188 23.4259H38.3534V27.7926Z" fill="#231F20"/>
<path d="M58.5227 23.3927C58.5227 19.794 60.1213 16.594 66.3213 4.19805H71.32V27.7914H67.72V8.59672H66.52C66.52 12.1954 64.9213 15.394 58.7213 27.7914H53.7227V4.19805H57.3227V23.3927H58.5227Z" fill="#231F20"/>
<path d="M77.4883 27.7918V4.19717H81.0869V24.5918H90.2856V4.19717H93.8843V24.5918H96.6829V32.9238H93.4843V27.7918H77.4883Z" fill="#231F20"/>
<path d="M105.255 23.3927C105.255 19.794 106.854 16.594 113.054 4.19805H118.052V27.7914H114.452V8.59672H113.252C113.252 12.1954 111.654 15.394 105.455 27.7914H100.455V4.19805H104.055V23.3927H105.255Z" fill="#231F20"/>
<path d="M130.621 7.39672C130.621 10.3967 129.621 13.3954 127.821 18.7941H135.421C133.621 13.3954 132.621 10.3967 132.621 7.39672H130.621ZM134.354 4.19805L141.818 26.5927V27.7914H138.42L136.421 21.7927H126.821L124.822 27.7914H121.424V26.5927L128.888 4.19805H134.354Z" fill="#231F20"/>
<path d="M151.822 7.39682C151.723 10.4968 151.755 14.1288 150.823 21.4595C150.088 27.1248 149.423 27.8582 142.758 27.8582V24.8928C146.323 24.8928 146.89 24.3928 147.39 20.7595C148.323 14.1288 148.356 10.4968 148.456 4.19816H162.419V27.7915H158.82V7.39682H151.822Z" fill="#231F20"/>
<path d="M172.189 24.5925H176.787C180.787 24.5925 180.787 24.5925 180.787 19.9938C180.787 15.3951 180.787 15.3951 176.787 15.3951H172.189V24.5925ZM168.59 4.19781H172.189V12.1951H174.389C180.787 12.1951 184.586 12.1951 184.586 19.9938C184.586 27.7925 180.787 27.7925 174.389 27.7925H168.59V4.19781Z" fill="#231F20"/>
<path d="M201.952 4.19757H205.55V27.7922H201.952V17.5949H192.754V27.7922H189.154V4.19757H192.754V14.3949H201.952V4.19757Z" fill="#231F20"/>
<path d="M230.119 4.19755H233.717V27.7922H230.119V4.19755ZM215.321 24.5922H219.121C223.12 24.5922 223.12 24.5922 223.12 19.9936C223.12 15.3949 223.12 15.3949 219.121 15.3949H215.321V24.5922ZM211.723 4.19755H215.321V12.1949H216.721C223.12 12.1949 226.919 12.1949 226.919 19.9936C226.919 27.7922 223.12 27.7922 216.721 27.7922H211.723V4.19755Z" fill="#231F20"/>
<path d="M248.486 2.19805C246.221 2.19805 244.587 2.19805 242.487 -0.601952L244.554 -2.06728C245.654 -0.601951 245.987 -0.301952 247.887 -0.301952H249.486C251.386 -0.301952 251.719 -0.601951 252.819 -2.06728L254.885 -0.601952C252.786 2.19805 251.153 2.19805 248.886 2.19805H248.486ZM244.687 23.3927C244.687 19.794 246.287 16.594 252.486 4.19805H257.485V27.7914H253.886V8.59671H252.685C252.685 12.1954 251.086 15.394 244.887 27.7914H239.889V4.19805H243.487V23.3927H244.687Z" fill="#231F20"/>
<path d="M285.418 11.9956C284.219 7.19695 284.219 7.19695 280.686 7.19695C276.287 7.19695 276.287 7.19695 276.287 15.3943V16.5943C276.287 24.793 276.287 24.793 281.486 24.793H282.819L287.084 23.7263H288.283V27.1916C283.752 28.325 281.886 28.325 280.686 28.325C272.287 28.325 272.287 22.593 272.287 16.9943V14.9943C272.287 9.79695 272.287 3.66362 280.286 3.66362H281.086C288.884 3.66362 288.884 8.86362 288.884 11.129L285.418 11.9956Z" fill="#231F20"/>
<path d="M309.65 4.19757V27.7922H306.051V7.39624H296.853V27.7922H293.254V4.19757H309.65Z" fill="#231F20"/>
<path d="M318.82 16.3948C318.82 24.7921 318.82 24.7921 324.018 24.7921C329.218 24.7921 329.218 24.7921 329.218 16.3948V15.5948C329.218 7.19744 329.218 7.19744 324.018 7.19744C318.82 7.19744 318.82 7.19744 318.82 15.5948V16.3948ZM324.418 3.66411C333.216 3.66411 333.216 10.1961 333.216 14.9948V16.9948C333.216 21.7934 333.216 28.3254 324.418 28.3254H323.619C314.82 28.3254 314.82 21.7934 314.82 16.9948V14.9948C314.82 10.1961 314.82 3.66411 323.619 3.66411H324.418Z" fill="#231F20"/>
<path d="M351.182 4.19757H354.781V27.7922H351.182V17.5949H341.985V27.7922H338.385V4.19757H341.985V14.3949H351.182V4.19757Z" fill="#231F20"/>
<path d="M373.082 11.9956C371.882 7.19695 371.882 7.19695 368.35 7.19695C363.951 7.19695 363.951 7.19695 363.951 15.3943V16.5943C363.951 24.793 363.951 24.793 369.15 24.793H370.483L374.749 23.7263H375.947V27.1916C371.417 28.325 369.549 28.325 368.35 28.325C359.951 28.325 359.951 22.593 359.951 16.9943V14.9943C359.951 9.79695 359.951 3.66362 367.95 3.66362H368.75C376.549 3.66362 376.549 8.86362 376.549 11.129L373.082 11.9956Z" fill="#231F20"/>
<path d="M383.918 16.3948C383.918 24.7921 383.918 24.7921 389.115 24.7921C394.315 24.7921 394.315 24.7921 394.315 16.3948V15.5948C394.315 7.19744 394.315 7.19744 389.115 7.19744C383.918 7.19744 383.918 7.19744 383.918 15.5948V16.3948ZM389.515 3.66411C398.314 3.66411 398.314 10.1961 398.314 14.9948V16.9948C398.314 21.7934 398.314 28.3254 389.515 28.3254H388.717C379.918 28.3254 379.918 21.7934 379.918 16.9948V14.9948C379.918 10.1961 379.918 3.66411 388.717 3.66411H389.515Z" fill="#231F20"/>
<path d="M407.083 17.3947H411.483C415.682 17.3947 415.682 17.3947 415.682 12.3947C415.682 7.39599 415.682 7.39599 411.483 7.39599H407.083V17.3947ZM403.484 4.19733H409.083C415.682 4.19733 419.48 4.19732 419.48 12.3947C419.48 20.5933 415.682 20.5933 409.083 20.5933H407.083V27.792H403.484V4.19733Z" fill="#231F20"/>
</g>
</g>
<defs>
<clipPath id="clip0_889_116">
<rect width="419" height="336" fill="white"/>
</clipPath>
</defs>
</svg>
