<?xml version="1.0" encoding="utf-8"?>
<!-- Generator: Adobe Illustrator 26.2.1, SVG Export Plug-In . SVG Version: 6.00 Build 0)  -->
<svg version="1.1" id="Layer_1" xmlns="http://www.w3.org/2000/svg" xmlns:xlink="http://www.w3.org/1999/xlink" x="0px" y="0px"
	 viewBox="0 0 1110.1 302.2" style="enable-background:new 0 0 1110.1 302.2;" xml:space="preserve">
<style type="text/css">
	.st0{fill:#20AA4D;}
</style>
<g>
	<g>
		<g>
			<g>
				<g>
					<path class="st0" d="M151.1,146.9l-57.5-36.1v43.4l57.5,36.1L288.8,88.8c-4.9-10.7-11-20.8-18.1-30L151.1,146.9z"/>
				</g>
			</g>
			<g>
				<defs>
					<path id="SVGID_1_" d="M302.2,151.1c0-9.2-0.8-18.3-2.4-27.1l-32.5,24c0,1,0,2.1,0,3.1c0,64.1-52.1,116.2-116.2,116.2
						c-64.1,0-116.2-52.1-116.2-116.2S87,34.9,151.1,34.9c24.3,0,46.8,7.5,65.5,20.3L246,33.5c-25.9-21-59-33.5-94.9-33.5
						C67.7,0,0,67.7,0,151.1s67.7,151.1,151.1,151.1S302.2,234.6,302.2,151.1z"/>
				</defs>
				<use xlink:href="#SVGID_1_"  style="overflow:visible;fill:#20AA4D;"/>
				<clipPath id="SVGID_00000121273221261612730370000009066759489659006611_">
					<use xlink:href="#SVGID_1_"  style="overflow:visible;"/>
				</clipPath>
			</g>
		</g>
	</g>
	<g>
		<g>
			<polygon class="st0" points="880.2,90.5 921.3,60.2 783.8,60.2 783.8,242 921.3,242 921.3,211.8 823,211.8 823,165.2 
				906.8,165.2 906.8,134.9 823,134.9 823,90.5 			"/>
			<g>
				<path class="st0" d="M680,131.1h-47.7V90.5h76.2l41.1-30.3H593V242h81.9c46,0,72.3-20.8,72.3-57.1
					C747.2,150.2,723.4,131.1,680,131.1z M673.2,211.8h-40.9v-50.4h40.9c24.9,0,36.5,8.4,36.5,25.2
					C709.7,203.7,697.4,211.8,673.2,211.8z"/>
			</g>
			<path class="st0" d="M1032.7,60.2h-74.9V242H997v-51.5h35.6c47.8,0,77.4-25.1,77.4-65.3C1110.1,85.1,1080.4,60.2,1032.7,60.2z
				 M1031.8,160.2H997V90.5h34.8c25.1,0,39,12.4,39,34.9S1057,160.2,1031.8,160.2z"/>
			<g>
				<path class="st0" d="M525.6,202.7c-10.1,5.6-21.8,8.5-33.9,8.5c-35.4,0-61.1-25.3-61.1-60c0-34.8,25.7-60,61.1-60
					c13.4,0,25.4,3.8,35.7,11.2l28.1-20.7h0l-1.9-1.6c-16.4-14.4-38.4-22.1-63.5-22.1c-27.2,0-51.9,9.2-69.6,25.9
					c-17.7,16.8-27.5,40.4-27.5,66.5c0,26.2,9.7,50.1,27.4,67.4c17.7,17.3,42.4,26.9,69.4,26.9c28.3,0,53-9.9,69.7-27.8
					c-12.9-9.5-25.4-18.7-25.4-18.7L525.6,202.7z"/>
			</g>
		</g>
	</g>
</g>
</svg>
