<svg width="250" height="184" viewBox="0 0 250 184" fill="none" xmlns="http://www.w3.org/2000/svg">
<g clip-path="url(#clip0_664_42)">
<path d="M6.05657e-05 96.2267L161.741 183.852L249.63 21.6254C160.261 -26.7914 48.5363 6.6374 6.05657e-05 96.2267Z" fill="#E1AC54"/>
<path d="M88.89 50.2V47.9H92.34V64H89.925V50.2H88.89ZM96.7118 61.7H98.4368V50.2H96.7118V61.7ZM99.7938 64H95.3548C94.7108 64 94.2968 63.563 94.2968 62.942V48.958C94.2968 48.337 94.7108 47.9 95.3548 47.9H99.7938C100.438 47.9 100.852 48.337 100.852 48.958V62.942C100.852 63.563 100.438 64 99.7938 64ZM105.101 61.7H106.826V50.2H105.101V61.7ZM108.183 64H103.744C103.1 64 102.686 63.563 102.686 62.942V48.958C102.686 48.337 103.1 47.9 103.744 47.9H108.183C108.827 47.9 109.241 48.337 109.241 48.958V62.942C109.241 63.563 108.827 64 108.183 64ZM118.846 50.2L118.064 64H114.867V61.7H115.787L116.569 47.9H122.457V64H120.042V50.2H118.846ZM124.303 64V47.9H130.283V50.2H126.718V54.11H130.168V56.41H126.718V61.7H130.283V64H124.303ZM131.558 50.2V47.9H138.573V50.2H136.273V64H133.858V50.2H131.558ZM144.67 56.732V54.708H156.17V56.732H144.67ZM88.2611 74.2V71.9H91.7111V88H89.2961V74.2H88.2611ZM96.0829 85.7H97.8079V74.2H96.0829V85.7ZM99.1649 88H94.7259C94.0819 88 93.6679 87.563 93.6679 86.942V72.958C93.6679 72.337 94.0819 71.9 94.7259 71.9H99.1649C99.8089 71.9 100.223 72.337 100.223 72.958V86.942C100.223 87.563 99.8089 88 99.1649 88ZM104.472 85.7H106.197V74.2H104.472V85.7ZM107.554 88H103.115C102.471 88 102.057 87.563 102.057 86.942V72.958C102.057 72.337 102.471 71.9 103.115 71.9H107.554C108.198 71.9 108.612 72.337 108.612 72.958V86.942C108.612 87.563 108.198 88 107.554 88ZM118.333 81.997L116.769 88H114.354L116.815 79.513L114.515 71.9H116.93L118.333 77.075H118.402L119.828 71.9H122.243L119.943 79.513L122.404 88H119.989L118.402 81.997H118.333ZM131.261 88H128.846V78.984L126.201 84.527V88H123.786V71.9H126.201V80.088L128.846 74.545V71.9H131.261V88ZM132.636 74.2V71.9H139.651V74.2H137.351V88H134.936V74.2H132.636ZM143.45 85.7H145.865V74.2H143.45V85.7ZM147.222 88H142.093C141.449 88 141.035 87.563 141.035 86.942V72.958C141.035 72.337 141.449 71.9 142.093 71.9H147.222C147.866 71.9 148.28 72.337 148.28 72.958V86.942C148.28 87.563 147.866 88 147.222 88ZM154.72 78.11V74.2H152.535V78.11H154.72ZM154.72 80.41H152.535V85.7H154.72V80.41ZM157.135 72.958V77.466C157.135 78.386 156.652 79.007 155.939 79.26C156.652 79.513 157.135 80.111 157.135 81.054V86.942C157.135 87.563 156.721 88 156.077 88H150.12V71.9H156.077C156.721 71.9 157.135 72.337 157.135 72.958Z" fill="white"/>
<rect x="78" y="105" width="93" height="27" rx="13.5" fill="#EE2C3C"/>
<path d="M94.632 119.43H96.088L96.354 117.4H94.898L94.632 119.43ZM94.142 123H93.302L93.666 120.256H92.518V119.43H93.792L94.058 117.4H92.854V116.574H94.184L94.548 113.9H95.36L95.01 116.574H96.466L96.83 113.9H97.656L97.306 116.574H98.454V117.4H97.18L96.928 119.43H98.132V120.256H96.802L96.438 123H95.598L95.962 120.256H94.506L94.142 123ZM100.303 113.564H101.507V117.75H101.885L105.119 113.564H106.589L103.019 117.89C104.573 118.1 105.175 119.052 105.665 120.326C106.015 121.292 106.281 122.16 106.701 123H105.385C105.049 122.356 104.783 121.516 104.531 120.774C104.097 119.528 103.495 118.674 101.899 118.674H101.507V123H100.303V113.564ZM111.733 113.41C114.309 113.41 115.975 115.384 115.975 118.184C115.975 121.432 114.001 123.154 111.593 123.154C109.101 123.154 107.351 121.222 107.351 118.366C107.351 115.37 109.213 113.41 111.733 113.41ZM111.677 114.404C109.661 114.404 108.653 116.266 108.653 118.338C108.653 120.354 109.745 122.16 111.663 122.16C113.595 122.16 114.687 120.382 114.687 118.24C114.687 116.364 113.707 114.404 111.677 114.404ZM117.843 113.564H119.061V117.512H123.625V113.564H124.857V123H123.625V118.576H119.061V123H117.843V113.564ZM127.256 113.564H128.474V121.978H132.8V113.564H134.032V122.006L134.858 122.034L134.774 125.268H133.808L133.724 123H127.256V113.564ZM141.555 117.568V118.576H137.887V121.978H141.975V123H136.669V113.564H141.765V114.586H137.887V117.568H141.555ZM143.84 123V113.676C144.428 113.578 145.198 113.494 146.178 113.494C147.382 113.494 148.264 113.774 148.824 114.278C149.342 114.726 149.65 115.412 149.65 116.252C149.65 117.106 149.398 117.778 148.922 118.268C148.278 118.954 147.228 119.304 146.038 119.304C145.674 119.304 145.338 119.29 145.058 119.22V123H143.84ZM145.058 114.558V118.226C145.324 118.296 145.66 118.324 146.066 118.324C147.536 118.324 148.432 117.61 148.432 116.308C148.432 115.062 147.55 114.46 146.206 114.46C145.674 114.46 145.268 114.502 145.058 114.558ZM153.363 123V114.6H150.493V113.564H157.479V114.6H154.595V123H153.363Z" fill="white"/>
</g>
<defs>
<clipPath id="clip0_664_42">
<rect width="250" height="184" fill="white"/>
</clipPath>
</defs>
</svg>
