<svg width="372" height="278" viewBox="0 0 372 278" fill="none" xmlns="http://www.w3.org/2000/svg">
<g clip-path="url(#clip0_655_27)">
<path d="M0.217311 145.245L240.095 275.203L370.443 34.6045C237.9 -37.2024 72.2013 12.3758 0.217311 145.245Z" fill="#E1AC54"/>
<path d="M60.8956 106.4V102.8H66.2956V128H62.5156V106.4H60.8956ZM73.1384 124.4H75.8384V106.4H73.1384V124.4ZM77.9624 128H71.0144C70.0064 128 69.3584 127.316 69.3584 126.344V104.456C69.3584 103.484 70.0064 102.8 71.0144 102.8H77.9624C78.9704 102.8 79.6184 103.484 79.6184 104.456V126.344C79.6184 127.316 78.9704 128 77.9624 128ZM86.2686 124.4H88.9686V106.4H86.2686V124.4ZM91.0926 128H84.1446C83.1366 128 82.4886 127.316 82.4886 126.344V104.456C82.4886 103.484 83.1366 102.8 84.1446 102.8H91.0926C92.1006 102.8 92.7486 103.484 92.7486 104.456V126.344C92.7486 127.316 92.1006 128 91.0926 128ZM107.784 106.4L106.56 128H101.556V124.4H102.996L104.22 102.8H113.436V128H109.656V106.4H107.784ZM116.324 128V102.8H125.684V106.4H120.104V112.52H125.504V116.12H120.104V124.4H125.684V128H116.324ZM127.68 106.4V102.8H138.66V106.4H135.06V128H131.28V106.4H127.68ZM148.204 116.624V113.456H166.204V116.624H148.204ZM176.096 106.4V102.8H181.496V128H177.716V106.4H176.096ZM188.338 124.4H191.038V106.4H188.338V124.4ZM193.162 128H186.214C185.206 128 184.558 127.316 184.558 126.344V104.456C184.558 103.484 185.206 102.8 186.214 102.8H193.162C194.17 102.8 194.818 103.484 194.818 104.456V126.344C194.818 127.316 194.17 128 193.162 128ZM201.469 124.4H204.169V106.4H201.469V124.4ZM206.293 128H199.345C198.337 128 197.689 127.316 197.689 126.344V104.456C197.689 103.484 198.337 102.8 199.345 102.8H206.293C207.301 102.8 207.949 103.484 207.949 104.456V126.344C207.949 127.316 207.301 128 206.293 128ZM223.164 118.604L220.716 128H216.936L220.788 114.716L217.188 102.8H220.968L223.164 110.9H223.272L225.504 102.8H229.284L225.684 114.716L229.536 128H225.756L223.272 118.604H223.164ZM243.4 128H239.62V113.888L235.48 122.564V128H231.7V102.8H235.48V115.616L239.62 106.94V102.8H243.4V128ZM245.552 106.4V102.8H256.532V106.4H252.932V128H249.152V106.4H245.552ZM262.479 124.4H266.259V106.4H262.479V124.4ZM268.383 128H260.355C259.347 128 258.699 127.316 258.699 126.344V104.456C258.699 103.484 259.347 102.8 260.355 102.8H268.383C269.391 102.8 270.039 103.484 270.039 104.456V126.344C270.039 127.316 269.391 128 268.383 128ZM280.119 112.52V106.4H276.699V112.52H280.119ZM280.119 116.12H276.699V124.4H280.119V116.12ZM283.899 104.456V111.512C283.899 112.952 283.143 113.924 282.027 114.32C283.143 114.716 283.899 115.652 283.899 117.128V126.344C283.899 127.316 283.251 128 282.243 128H272.919V102.8H282.243C283.251 102.8 283.899 103.484 283.899 104.456Z" fill="white"/>
<rect x="125" y="143" width="93" height="27" rx="13.5" fill="#EE2C3C"/>
<path d="M141.632 157.43H143.088L143.354 155.4H141.898L141.632 157.43ZM141.142 161H140.302L140.666 158.256H139.518V157.43H140.792L141.058 155.4H139.854V154.574H141.184L141.548 151.9H142.36L142.01 154.574H143.466L143.83 151.9H144.656L144.306 154.574H145.454V155.4H144.18L143.928 157.43H145.132V158.256H143.802L143.438 161H142.598L142.962 158.256H141.506L141.142 161ZM147.303 151.564H148.507V155.75H148.885L152.119 151.564H153.589L150.019 155.89C151.573 156.1 152.175 157.052 152.665 158.326C153.015 159.292 153.281 160.16 153.701 161H152.385C152.049 160.356 151.783 159.516 151.531 158.774C151.097 157.528 150.495 156.674 148.899 156.674H148.507V161H147.303V151.564ZM158.733 151.41C161.309 151.41 162.975 153.384 162.975 156.184C162.975 159.432 161.001 161.154 158.593 161.154C156.101 161.154 154.351 159.222 154.351 156.366C154.351 153.37 156.213 151.41 158.733 151.41ZM158.677 152.404C156.661 152.404 155.653 154.266 155.653 156.338C155.653 158.354 156.745 160.16 158.663 160.16C160.595 160.16 161.687 158.382 161.687 156.24C161.687 154.364 160.707 152.404 158.677 152.404ZM164.843 151.564H166.061V155.512H170.625V151.564H171.857V161H170.625V156.576H166.061V161H164.843V151.564ZM174.256 151.564H175.474V159.978H179.8V151.564H181.032V160.006L181.858 160.034L181.774 163.268H180.808L180.724 161H174.256V151.564ZM188.555 155.568V156.576H184.887V159.978H188.975V161H183.669V151.564H188.765V152.586H184.887V155.568H188.555ZM190.84 161V151.676C191.428 151.578 192.198 151.494 193.178 151.494C194.382 151.494 195.264 151.774 195.824 152.278C196.342 152.726 196.65 153.412 196.65 154.252C196.65 155.106 196.398 155.778 195.922 156.268C195.278 156.954 194.228 157.304 193.038 157.304C192.674 157.304 192.338 157.29 192.058 157.22V161H190.84ZM192.058 152.558V156.226C192.324 156.296 192.66 156.324 193.066 156.324C194.536 156.324 195.432 155.61 195.432 154.308C195.432 153.062 194.55 152.46 193.206 152.46C192.674 152.46 192.268 152.502 192.058 152.558ZM200.363 161V152.6H197.493V151.564H204.479V152.6H201.595V161H200.363Z" fill="white"/>
</g>
<defs>
<clipPath id="clip0_655_27">
<rect width="372" height="278" fill="white"/>
</clipPath>
</defs>
</svg>
