<svg width="406" height="412" viewBox="0 0 406 412" fill="none" xmlns="http://www.w3.org/2000/svg">
<path d="M272.489 272.588C199.147 349.47 77.3559 352.344 0.470703 278.999L266.078 0.570136C342.963 73.9149 345.831 195.706 272.489 272.588Z" fill="#EE2C3C"/>
<path d="M133.271 157H135.071V181H139.271V153H133.271V157ZM146.874 177V157H149.874V177H146.874ZM152.234 181C153.354 181 154.074 180.24 154.074 179.16V154.84C154.074 153.76 153.354 153 152.234 153H144.514C143.394 153 142.674 153.76 142.674 154.84V179.16C142.674 180.24 143.394 181 144.514 181H152.234ZM161.463 177V157H164.463V177H161.463ZM166.823 181C167.943 181 168.663 180.24 168.663 179.16V154.84C168.663 153.76 167.943 153 166.823 153H159.103C157.983 153 157.263 153.76 157.263 154.84V179.16C157.263 180.24 157.983 181 159.103 181H166.823ZM185.369 157H187.449V181H191.649V153H181.409L180.049 177H178.449V181H184.009L185.369 157ZM194.859 181H205.259V177H199.059V167.8H205.059V163.8H199.059V157H205.259V153H194.859V181ZM207.476 157H211.476V181H215.676V157H219.676V153H207.476V157ZM230.281 168.36H250.281V164.84H230.281V168.36ZM132.178 199H133.978V223H138.178V195H132.178V199ZM145.781 219V199H148.781V219H145.781ZM151.141 223C152.261 223 152.981 222.24 152.981 221.16V196.84C152.981 195.76 152.261 195 151.141 195H143.421C142.301 195 141.581 195.76 141.581 196.84V221.16C141.581 222.24 142.301 223 143.421 223H151.141ZM160.37 219V199H163.37V219H160.37ZM165.73 223C166.85 223 167.57 222.24 167.57 221.16V196.84C167.57 195.76 166.85 195 165.73 195H158.01C156.89 195 156.17 195.76 156.17 196.84V221.16C156.17 222.24 156.89 223 158.01 223H165.73ZM184.476 212.56H184.596L187.356 223H191.556L187.276 208.24L191.276 195H187.076L184.596 204H184.476L182.036 195H177.836L181.836 208.24L177.556 223H181.756L184.476 212.56ZM206.96 223V195H202.76V199.6L198.16 209.24V195H193.96V223H198.16V216.96L202.76 207.32V223H206.96ZM209.351 199H213.351V223H217.551V199H221.551V195H209.351V199ZM228.159 219V199H232.359V219H228.159ZM234.719 223C235.839 223 236.559 222.24 236.559 221.16V196.84C236.559 195.76 235.839 195 234.719 195H225.799C224.679 195 223.959 195.76 223.959 196.84V221.16C223.959 222.24 224.679 223 225.799 223H234.719ZM247.759 205.8H243.959V199H247.759V205.8ZM247.759 209.8V219H243.959V209.8H247.759ZM251.959 196.84C251.959 195.76 251.239 195 250.119 195H239.759V223H250.119C251.239 223 251.959 222.24 251.959 221.16V210.92C251.959 209.28 251.119 208.24 249.879 207.8C251.119 207.36 251.959 206.28 251.959 204.68V196.84Z" fill="white"/>
<rect x="128.472" y="248" width="124" height="41" rx="20.5" fill="#3B3393"/>
<path d="M147.232 268.9L147.612 266H149.692L149.312 268.9H147.232ZM146.532 274L147.052 270.08H149.132L148.612 274H149.812L150.332 270.08H152.232V268.9H150.512L150.872 266H152.692V264.82H151.052L151.552 261H150.372L149.852 264.82H147.772L148.272 261H147.112L146.592 264.82H144.692V266H146.412L146.032 268.9H144.212V270.08H145.852L145.332 274H146.532ZM155.333 260.52V274H157.053V267.82H157.613C159.893 267.82 160.753 269.04 161.373 270.82C161.733 271.88 162.113 273.08 162.593 274H164.473C163.873 272.8 163.493 271.56 162.993 270.18C162.293 268.36 161.433 267 159.213 266.7L164.313 260.52H162.213L157.593 266.5H157.053V260.52H155.333ZM171.662 260.3C168.062 260.3 165.402 263.1 165.402 267.38C165.402 271.46 167.902 274.22 171.462 274.22C174.902 274.22 177.722 271.76 177.722 267.12C177.722 263.12 175.342 260.3 171.662 260.3ZM171.582 261.72C174.482 261.72 175.882 264.52 175.882 267.2C175.882 270.26 174.322 272.8 171.562 272.8C168.822 272.8 167.262 270.22 167.262 267.34C167.262 264.38 168.702 261.72 171.582 261.72ZM180.391 260.52V274H182.131V267.68H188.651V274H190.411V260.52H188.651V266.16H182.131V260.52H180.391ZM193.838 260.52V274H203.078L203.198 277.24H204.578L204.698 272.62L203.518 272.58V260.52H201.758V272.54H195.578V260.52H193.838ZM214.265 266.24H209.025V261.98H214.565V260.52H207.285V274H214.865V272.54H209.025V267.68H214.265V266.24ZM217.528 274H219.268V268.6C219.668 268.7 220.148 268.72 220.668 268.72C222.368 268.72 223.868 268.22 224.788 267.24C225.468 266.54 225.828 265.58 225.828 264.36C225.828 263.16 225.388 262.18 224.648 261.54C223.848 260.82 222.588 260.42 220.868 260.42C219.468 260.42 218.368 260.54 217.528 260.68V274ZM219.268 261.94C219.568 261.86 220.148 261.8 220.908 261.8C222.828 261.8 224.088 262.66 224.088 264.44C224.088 266.3 222.808 267.32 220.708 267.32C220.128 267.32 219.648 267.28 219.268 267.18V261.94ZM231.133 274H232.893V262H237.013V260.52H227.033V262H231.133V274Z" fill="white"/>
</svg>
