<svg width="635" height="547" viewBox="0 0 635 547" fill="none" xmlns="http://www.w3.org/2000/svg">
<path d="M377.218 484.943C478.244 484.943 560.141 403.046 560.141 302.021C560.141 200.996 478.244 119.098 377.218 119.098C276.193 119.098 194.296 200.996 194.296 302.021C194.296 403.046 276.193 484.943 377.218 484.943Z" fill="#E1AC54"/>
<path d="M94.4203 119.298L86.1328 130.165L630.285 545.174L638.573 534.308L94.4203 119.298Z" fill="#EE2C3C"/>
<path d="M216.793 212.242L488.654 419.554L480.243 430.487L210.695 224.857L216.793 212.242Z" fill="#3B3393"/>
<path d="M8.28744 0.000123399L0 10.8665L702.968 547L711.256 536.134L8.28744 0.000123399Z" fill="#EE2C3C"/>
<path d="M241.375 177.86L233.088 188.726L515.947 404.455L524.234 393.588L241.375 177.86Z" fill="#3B3393"/>
<path d="M145.89 48.8846L137.603 59.751L690.281 481.263L698.568 470.397L145.89 48.8846Z" fill="#EE2C3C"/>
<path d="M264.731 156.524L274.824 146.852L532.808 343.651L524.397 354.585L264.731 156.524Z" fill="#3B3393"/>
</svg>
