<svg width="248" height="194" viewBox="0 0 248 194" fill="none" xmlns="http://www.w3.org/2000/svg">
<g clip-path="url(#clip0_664_31)">
<path d="M247.975 105.16C195.9 190.24 84.4074 216.678 -1.05003 164.451L93.1935 10.481L247.975 105.16Z" fill="#EE2C3C"/>
<path d="M64.5561 28.3336C57.3249 46.3199 66.0437 66.7628 84.0301 73.994C102.017 81.2251 122.459 72.5063 129.691 54.5199C136.922 36.5335 128.203 16.0907 110.216 8.85952C92.2301 1.62836 71.7872 10.3472 64.5561 28.3336Z" fill="#3B3393"/>
<path d="M109.835 37.2031C109.621 38.7976 109.061 40.3149 108.315 41.7551C107.915 42.5009 107.595 43.2981 107.195 44.0439C106.715 44.9955 106.182 45.9213 105.622 46.8471C104.049 49.496 102.369 52.0677 100.61 54.588C99.4634 56.2082 98.2903 57.8027 97.1172 59.3972C96.9839 59.5772 96.8772 59.6801 96.6906 59.3972C95.8641 58.2913 95.0376 57.2112 94.2644 56.0796C93.8911 55.5396 93.4912 55.0252 93.118 54.5109C92.5314 53.6622 91.9448 52.7878 91.3583 51.9391C90.1585 50.2418 89.1187 48.4673 88.0523 46.6928C87.3857 45.5612 86.7192 44.404 86.186 43.1952C86.026 42.8352 85.7861 42.5266 85.6261 42.1665C85.2795 41.4465 84.9062 40.7264 84.6663 39.9548C84.4263 39.1833 84.2397 38.4118 84.0531 37.6403C83.9198 37.0745 83.8398 36.5087 83.8664 35.9429C83.8931 34.9914 84.1064 34.0399 84.3197 33.114C84.6929 31.5195 85.3595 30.0537 86.3726 28.7421C87.6257 27.0962 89.1721 25.7846 91.065 24.8845C92.3714 24.2672 93.7578 23.8558 95.1975 23.6757C95.5175 23.6243 95.8641 23.65 96.184 23.5729L97.7037 23.5729C98.2369 23.7529 98.7968 23.7272 99.3301 23.83C101.25 24.1901 102.983 24.9102 104.556 26.016C106.235 27.199 107.595 28.6906 108.502 30.5166C109.061 31.6481 109.515 32.8311 109.675 34.0913C109.728 34.4513 109.781 34.7857 109.835 35.1457C109.835 35.2228 109.781 35.3257 109.861 35.3772L109.861 36.8945C109.861 36.8945 109.808 37.1002 109.835 37.2031ZM97.0905 42.9638C99.1968 43.0667 100.93 42.0637 102.343 40.4949C103.756 38.9262 104.289 36.9973 103.942 34.94C103.676 33.3198 102.823 31.9567 101.516 30.9023C99.7833 29.4879 97.757 28.9735 95.5441 29.3593C92.9846 29.7708 89.5187 32.1368 89.7853 36.663C89.9719 39.9291 93.0113 43.0924 97.0905 42.9895L97.0905 42.9638Z" fill="white"/>
<path d="M88.094 92.2L87.312 106H84.115V103.7H85.035L85.817 89.9H91.705V106H89.29V92.2H88.094ZM100.68 89.9L98.0584 106H94.7924V103.7H96.0344L96.5174 100.71H94.7924L92.5154 89.9H94.9764L96.7704 98.41H96.8854L98.2884 89.9H100.68ZM107.931 106H105.516V98.41H105.033L103.4 106H100.916L102.94 97.26L101.031 89.9H103.515L105.033 96.11H105.516V89.9H107.931V96.11H108.414L109.932 89.9H112.416L110.507 97.26L112.531 106H110.047L108.414 98.41H107.931V106ZM118.388 89.9H120.803V106H118.388V98.41H115.743V106H113.328V89.9H115.743V96.11H118.388V89.9ZM129.652 106H127.237V96.984L124.592 102.527V106H122.177V89.9H124.592V98.088L127.237 92.545V89.9H129.652V106ZM136.248 97.26L138.732 106H136.179L134.063 98.41H133.442V106H131.027V89.9H133.442V96.11H134.132L136.179 89.9H138.732L136.248 97.26ZM147.015 106H144.6V96.984L141.955 102.527V106H139.54V89.9H141.955V98.088L144.6 92.545V89.9H147.015V106ZM84.46 115.2V112.9H87.91V129H85.495V115.2H84.46ZM100.79 129H98.375V119.984L95.73 125.527V129H93.315V112.9H95.73V121.088L98.375 115.545V112.9H100.79V129ZM111.227 129H106.903C106.259 129 105.845 128.563 105.845 127.942V121.64H104.58V129H102.165V112.9H104.58V119.34H105.845V113.958C105.845 113.337 106.259 112.9 106.903 112.9H111.227C111.871 112.9 112.285 113.337 112.285 113.958V127.942C112.285 128.563 111.871 129 111.227 129ZM108.26 126.7H109.87V115.2H108.26V126.7ZM117.069 115.2L116.287 129H113.09V126.7H114.01L114.792 112.9H120.68V129H118.265V115.2H117.069ZM124.158 129H121.605L123.974 121.41H123.238C122.594 121.41 122.18 120.973 122.18 120.352V113.958C122.18 113.337 122.594 112.9 123.238 112.9H129.195V129H126.78V121.41H126.55L124.158 129ZM126.78 119.11V115.2H124.595V119.11H126.78ZM140.926 113.958V117.822L136.786 125.987V126.7H140.926V129H134.371V125.665L138.511 117.5V115.2H136.786V117.5H134.371V113.958C134.371 113.337 134.785 112.9 135.429 112.9H139.868C140.512 112.9 140.926 113.337 140.926 113.958ZM144.605 126.7H146.33V115.2H144.605V126.7ZM147.687 129H143.248C142.604 129 142.19 128.563 142.19 127.942V113.958C142.19 113.337 142.604 112.9 143.248 112.9H147.687C148.331 112.9 148.745 113.337 148.745 113.958V127.942C148.745 128.563 148.331 129 147.687 129ZM156.559 113.958V117.822L152.419 125.987V126.7H156.559V129H150.004V125.665L154.144 117.5V115.2H152.419V117.5H150.004V113.958C150.004 113.337 150.418 112.9 151.062 112.9H155.501C156.145 112.9 156.559 113.337 156.559 113.958ZM163.32 129H158.881C158.237 129 157.823 128.563 157.823 127.942V123.71H160.238V126.7H161.963V120.996H159.548V118.857L161.733 115.2H157.938V112.9H164.263V114.97L162.055 118.696H163.32C163.964 118.696 164.378 119.133 164.378 119.754V127.942C164.378 128.563 163.964 129 163.32 129ZM169.66 112.9H175.41V115.2H172.075V129H169.66V112.9ZM175.64 129V126.7H177.94V129H175.64ZM91.705 152H85.748C85.104 152 84.69 151.563 84.69 150.942V136.958C84.69 136.337 85.104 135.9 85.748 135.9H91.705V140.5H89.29V138.2H87.105V149.7H89.29V146.71H91.705V152ZM96.6563 138.2V135.9H100.106V152H97.6913V138.2H96.6563ZM108.043 136.958V140.822L103.903 148.987V149.7H108.043V152H101.488V148.665L105.628 140.5V138.2H103.903V140.5H101.488V136.958C101.488 136.337 101.902 135.9 102.546 135.9H106.985C107.629 135.9 108.043 136.337 108.043 136.958ZM109.537 152V149.7H111.837V152H109.537ZM109.537 143.49V141.19H111.837V143.49H109.537ZM115.855 149.7H117.58V138.2H115.855V149.7ZM118.937 152H114.498C113.854 152 113.44 151.563 113.44 150.942V136.958C113.44 136.337 113.854 135.9 114.498 135.9H118.937C119.581 135.9 119.995 136.337 119.995 136.958V150.942C119.995 151.563 119.581 152 118.937 152ZM123.784 149.7H125.509V138.2H123.784V149.7ZM126.866 152H122.427C121.783 152 121.369 151.563 121.369 150.942V136.958C121.369 136.337 121.783 135.9 122.427 135.9H126.866C127.51 135.9 127.924 136.337 127.924 136.958V150.942C127.924 151.563 127.51 152 126.866 152ZM135.989 149.7H137.806V138.2H136.771L135.989 149.7ZM134.494 135.9H140.221V149.7H141.026V154.116H138.611V152H135.046V154.116H132.631V149.7H133.551L134.494 135.9ZM144.358 149.7H146.773V138.2H144.358V149.7ZM148.13 152H143.001C142.357 152 141.943 151.563 141.943 150.942V136.958C141.943 136.337 142.357 135.9 143.001 135.9H148.13C148.774 135.9 149.188 136.337 149.188 136.958V150.942C149.188 151.563 148.774 152 148.13 152ZM160.916 136.958V140.822L156.776 148.987V149.7H160.916V152H154.361V148.665L158.501 140.5V138.2H156.776V140.5H154.361V136.958C154.361 136.337 154.775 135.9 155.419 135.9H159.858C160.502 135.9 160.916 136.337 160.916 136.958ZM161.95 138.2V135.9H165.4V152H162.985V138.2H161.95ZM167.127 152V149.7H169.427V152H167.127ZM167.127 143.49V141.19H169.427V143.49H167.127ZM173.445 149.7H175.17V138.2H173.445V149.7ZM176.527 152H172.088C171.444 152 171.03 151.563 171.03 150.942V136.958C171.03 136.337 171.444 135.9 172.088 135.9H176.527C177.171 135.9 177.585 136.337 177.585 136.958V150.942C177.585 151.563 177.171 152 176.527 152ZM181.374 149.7H183.099V138.2H181.374V149.7ZM184.456 152H180.017C179.373 152 178.959 151.563 178.959 150.942V136.958C178.959 136.337 179.373 135.9 180.017 135.9H184.456C185.1 135.9 185.514 136.337 185.514 136.958V150.942C185.514 151.563 185.1 152 184.456 152Z" fill="white"/>
</g>
<defs>
<clipPath id="clip0_664_31">
<rect width="248" height="194" fill="white"/>
</clipPath>
</defs>
</svg>
