<svg width="588" height="580" viewBox="0 0 588 580" fill="none" xmlns="http://www.w3.org/2000/svg">
<path d="M538.606 330.817C384.993 471.843 145.709 460.825 4.01258 306.691L282.011 51.4759L538.606 330.817Z" fill="#EE2C3C"/>
<path d="M214.185 70.878C189.303 102.865 195.063 148.967 227.051 173.849C259.038 198.731 305.14 192.971 330.021 160.984C354.903 128.996 349.143 82.8945 317.156 58.0125C285.169 33.1306 239.067 38.8907 214.185 70.878Z" fill="#3B3393"/>
<g clip-path="url(#clip0_599_29)">
<path d="M299.943 106.267C299.483 109.812 298.277 113.186 296.669 116.389C295.807 118.047 295.118 119.82 294.257 121.478C293.223 123.594 292.074 125.652 290.868 127.711C287.479 133.601 283.861 139.319 280.07 144.923C277.6 148.526 275.073 152.071 272.546 155.617C272.259 156.017 272.029 156.246 271.627 155.617C269.846 153.158 268.066 150.756 266.4 148.24C265.596 147.039 264.735 145.895 263.931 144.752C262.667 142.865 261.403 140.92 260.14 139.033C257.555 135.259 255.315 131.314 253.018 127.368C251.582 124.852 250.146 122.279 248.997 119.591C248.653 118.79 248.136 118.104 247.791 117.304C247.044 115.702 246.24 114.101 245.723 112.386C245.206 110.67 244.804 108.955 244.402 107.239C244.115 105.981 243.943 104.723 244 103.465C244.058 101.349 244.517 99.2335 244.977 97.1749C245.781 93.6295 247.217 90.37 249.399 87.4536C252.099 83.7939 255.43 80.8775 259.508 78.8761C262.322 77.5037 265.309 76.5887 268.411 76.1885C269.1 76.0741 269.846 76.1313 270.536 75.9597H273.809C274.958 76.36 276.164 76.3028 277.313 76.5316C281.448 77.3321 285.182 78.9333 288.571 81.3922C292.189 84.0226 295.118 87.3393 297.071 91.3993C298.277 93.9154 299.254 96.5458 299.598 99.3479C299.713 100.148 299.828 100.892 299.943 101.692C299.943 101.864 299.828 102.093 300 102.207V105.581C300 105.581 299.885 106.038 299.943 106.267ZM272.488 119.076C277.026 119.305 280.759 117.075 283.803 113.587C286.847 110.098 287.996 105.81 287.249 101.235C286.675 97.6323 284.837 94.6016 282.023 92.2571C278.289 89.112 273.924 87.9683 269.157 88.826C263.643 89.741 256.177 95.0019 256.751 105.066C257.153 112.329 263.701 119.362 272.488 119.133V119.076Z" fill="white"/>
</g>
<defs>
<clipPath id="clip0_599_29">
<rect width="56" height="80" fill="white" transform="translate(244 75.9597)"/>
</clipPath>
</defs>
</svg>
