<svg width="760" height="458" viewBox="0 0 760 458" fill="none" xmlns="http://www.w3.org/2000/svg">
<path d="M522.603 112.883L528.988 18.8139H537.439V112.883H522.603ZM510.395 0L502.695 112.883H495.183V149.006H514.903V131.697H544.012V149.006H563.731V112.883H557.158V0H510.395Z" fill="#EE2C3C"/>
<path d="M571.221 131.697H620.05V112.883H590.941V69.6113H619.111V50.7974H590.941V18.8139H620.05V0H571.221V131.697Z" fill="#EE2C3C"/>
<path d="M671.777 0V50.7974H650.179V0H630.46V131.697H650.179V69.6113H671.777V131.697H691.496V0H671.777Z" fill="#EE2C3C"/>
<path d="M722.439 67.7299H740.281V112.883H722.439V67.7299ZM751.361 131.697C756.62 131.697 760 128.122 760 123.043V57.5704C760 52.4907 756.62 48.9161 751.361 48.9161H722.439V0H702.72V131.697H751.361Z" fill="#EE2C3C"/>
<path d="M40.5654 238.407H40.002L24.0388 163.151H0V294.849H19.7193V238.407L16.151 200.779H17.0901L31.1753 268.509H49.58L63.2896 200.779H64.2286L61.0359 238.407V294.849H80.7552V163.151H56.7165L40.5654 238.407Z" fill="#EE2C3C"/>
<path d="M111.787 276.035V181.965H131.506V276.035H111.787ZM142.586 294.849C147.845 294.849 151.225 291.274 151.225 286.194V171.806C151.225 166.726 147.845 163.151 142.586 163.151H100.706C95.4479 163.151 92.0674 166.726 92.0674 171.806V286.194C92.0674 291.274 95.4479 294.849 100.706 294.849H142.586Z" fill="#EE2C3C"/>
<path d="M219.773 294.849V251.577H200.054V276.035H182.213V181.965H200.054V200.779H219.773V163.151H171.132C165.874 163.151 162.494 166.726 162.494 171.806V286.194C162.494 291.274 165.874 294.849 171.132 294.849H219.773Z" fill="#EE2C3C"/>
<path d="M272.8 223.356L293.083 163.151H272.236L255.522 213.949H249.888V163.151H230.169V294.849H249.888V232.763H254.959L272.236 294.849H293.083L272.8 223.356Z" fill="#EE2C3C"/>
<path d="M319.397 276.035V181.965H339.116V276.035H319.397ZM350.197 294.849C355.455 294.849 358.836 291.274 358.836 286.194V171.806C358.836 166.726 355.455 163.151 350.197 163.151H308.317C303.058 163.151 299.678 166.726 299.678 171.806V286.194C299.678 291.274 303.058 294.849 308.317 294.849H350.197Z" fill="#EE2C3C"/>
<path d="M407.664 213.949H389.823V181.965H407.664V213.949ZM407.664 232.763V276.035H389.823V232.763H407.664ZM427.384 171.806C427.384 166.726 424.003 163.151 418.745 163.151H370.104V294.849H418.745C424.003 294.849 427.384 291.274 427.384 286.194V238.031C427.384 230.317 423.44 225.425 417.618 223.356C423.44 221.286 427.384 216.207 427.384 208.681V171.806Z" fill="#EE2C3C"/>
<path d="M495.976 294.849V251.577H476.256V276.035H458.415V181.965H476.256V200.779H495.976V163.151H447.335C442.076 163.151 438.696 166.726 438.696 171.806V286.194C438.696 291.274 442.076 294.849 447.335 294.849H495.976Z" fill="#EE2C3C"/>
<path d="M549.002 223.356L569.285 163.151H548.439L531.724 213.949H526.09V163.151H506.371V294.849H526.09V232.763H531.161L548.439 294.849H569.285L549.002 223.356Z" fill="#EE2C3C"/>
<path d="M595.599 276.035V181.965H615.319V276.035H595.599ZM626.399 294.849C631.657 294.849 635.038 291.274 635.038 286.194V171.806C635.038 166.726 631.657 163.151 626.399 163.151H584.519C579.26 163.151 575.88 166.726 575.88 171.806V286.194C575.88 291.274 579.26 294.849 584.519 294.849H626.399Z" fill="#EE2C3C"/>
<path d="M646.306 163.151V294.849H666.025V181.965H693.257V163.151H646.306Z" fill="#EE2C3C"/>
<path d="M720.495 276.035V181.965H740.215V276.035H720.495ZM751.295 294.849C756.554 294.849 759.934 291.274 759.934 286.194V171.806C759.934 166.726 756.554 163.151 751.295 163.151H709.415C704.157 163.151 700.776 166.726 700.776 171.806V286.194C700.776 291.274 704.157 294.849 709.415 294.849H751.295Z" fill="#EE2C3C"/>
<path d="M57.2799 458V414.728H37.5606V439.186H19.7193V345.117H37.5606V363.931H57.2799V326.303H8.63893C3.38045 326.303 0 329.878 0 334.957V449.346C0 454.425 3.38045 458 8.63893 458H57.2799Z" fill="#EE2C3C"/>
<path d="M67.6751 326.303V458H87.3944V345.117H108.053V458H127.772V326.303H67.6751Z" fill="#EE2C3C"/>
<path d="M158.737 439.186V345.117H178.457V439.186H158.737ZM189.537 458C194.796 458 198.176 454.425 198.176 449.346V334.957C198.176 329.878 194.796 326.303 189.537 326.303H147.657C142.399 326.303 139.018 329.878 139.018 334.957V449.346C139.018 454.425 142.399 458 147.657 458H189.537Z" fill="#EE2C3C"/>
<path d="M229.164 345.117H247.944V395.914H229.164V345.117ZM259.024 414.728C264.283 414.728 267.663 411.153 267.663 406.074V334.957C267.663 329.878 264.283 326.303 259.024 326.303H209.444V458H229.164V414.728H259.024Z" fill="#EE2C3C"/>
<path d="M274.28 345.117H293.061V458H312.78V345.117H331.56V326.303H274.28V345.117Z" fill="#EE2C3C"/>
<path d="M339.109 326.303V458H358.828V414.728H377.609V458H397.328V326.303H339.109ZM377.609 395.914H358.828V345.117H377.609V395.914Z" fill="#EE2C3C"/>
</svg>
