<svg width="133" height="187" viewBox="0 0 133 187" fill="none" xmlns="http://www.w3.org/2000/svg">
<g clip-path="url(#clip0_866_55)">
<path d="M346.006 167.593L214.747 303.911L1.87305 1.99512L346.006 167.593Z" fill="#3B3393"/>
<path d="M55.6739 21.4519C43.4113 37.2162 46.2501 59.9365 62.0144 72.199C77.7787 84.4616 100.499 81.6228 112.762 65.8585C125.024 50.0942 122.185 27.3739 106.421 15.1114C90.6567 2.84882 67.9364 5.68755 55.6739 21.4519Z" fill="#E1AC54"/>
<path d="M79.0528 37.44C77.677 36.0745 76.0896 35.4443 73.9731 35.4443C71.9623 35.4443 70.2691 36.0745 68.8933 37.44C68.7875 37.545 68.7875 37.65 68.6816 37.65V46.7879C68.7875 46.8929 68.7875 46.9979 68.8933 46.9979C70.2691 48.3634 71.9623 48.9936 73.9731 48.9936C75.9838 48.9936 77.677 48.3634 79.0528 46.9979C80.4286 45.6325 81.0635 44.057 81.0635 42.1664C81.0635 40.3809 80.4286 38.8054 79.0528 37.44ZM77.1479 46.5778L73.9731 44.2671L70.7982 46.5778L71.9623 42.9017L68.7875 40.5909H72.7031L73.8672 36.9148L75.0313 40.5909H78.947L75.7721 42.9017L77.1479 46.5778Z" fill="#DB423F"/>
<path d="M73.443 54.5604C73.5489 54.5604 73.6547 54.5604 73.7605 54.5604C73.9722 54.5604 74.1838 54.5604 74.1838 54.1403C74.1838 53.9302 74.078 53.7201 73.7605 53.7201C73.6547 53.7201 73.6547 53.7201 73.5489 53.7201H73.443V54.5604ZM72.3848 56.7661V52.9849C72.3848 52.8799 72.3848 52.8799 72.4906 52.8799C72.5964 52.8799 72.8081 52.8799 73.0197 52.8799C73.2314 52.8799 73.5489 52.8799 73.6547 52.8799C75.1363 52.8799 75.348 53.8252 75.348 54.2453C75.348 54.9805 74.8188 55.6107 73.8664 55.6107C73.7605 55.6107 73.6547 55.6107 73.5489 55.6107V56.8711C73.5489 56.9762 73.5489 56.9762 73.443 56.9762L72.3848 56.7661Z" fill="white"/>
<path d="M78.9461 55.0856L78.5228 54.0352L78.0995 55.0856H78.9461ZM79.4753 56.7661L79.2636 56.0309H77.782L77.4645 56.7661C77.4645 56.7661 77.4645 56.8711 77.3587 56.8711H76.5121C76.4063 56.8711 76.4062 56.7661 76.4062 56.7661L77.9937 52.9849C77.9937 52.9849 77.9937 52.8799 78.0995 52.8799H78.8403C78.8403 52.8799 78.9461 52.8799 78.9461 52.9849L80.5336 56.7661C80.5336 56.8711 80.5336 56.8711 80.4277 56.8711L79.4753 56.7661C79.5811 56.8711 79.5811 56.8711 79.4753 56.7661Z" fill="white"/>
<path d="M84.5555 55.8209V53.7202H83.9205L83.8147 54.3504C83.8147 54.8756 83.603 55.5058 83.4972 55.8209H84.5555ZM85.1905 57.3963V56.8712H82.9681V57.3963C82.9681 57.5014 82.9681 57.5014 82.8622 57.5014H82.1215C82.0156 57.5014 82.0156 57.5014 82.0156 57.3963V55.9259C82.0156 55.8209 82.0156 55.8209 82.1215 55.8209H82.4389C82.6506 55.6108 82.8623 54.7705 82.9681 53.6152V52.8799C82.9681 52.7749 82.9681 52.7749 83.0739 52.7749H85.6138C85.7196 52.7749 85.7196 52.7749 85.7196 52.8799V55.8209H86.1429C86.2488 55.8209 86.2488 55.8209 86.2488 55.9259V57.3963C86.2488 57.5014 86.2488 57.5014 86.1429 57.5014L85.1905 57.3963C85.1905 57.5014 85.1905 57.5014 85.1905 57.3963Z" fill="white"/>
<path d="M90.2703 56.7661V54.6654L88.6829 56.8711C88.6829 56.8711 88.6829 56.8711 88.5771 56.8711H87.8363C87.7305 56.8711 87.7305 56.8711 87.7305 56.7661V52.9849C87.7305 52.8799 87.7305 52.8799 87.8363 52.8799H88.6829C88.7888 52.8799 88.7888 52.8799 88.7888 52.9849V55.0856L90.3762 52.8799C90.3762 52.8799 90.3762 52.8799 90.482 52.8799H91.2228C91.3286 52.8799 91.3286 52.8799 91.3286 52.9849V56.7661C91.3286 56.8711 91.3286 56.8711 91.2228 56.8711L90.2703 56.7661Z" fill="white"/>
<path d="M94.8216 53.72C94.1867 53.72 93.7634 54.1401 93.7634 54.7703C93.7634 55.4005 94.1867 55.8207 94.8216 55.8207C95.5624 55.8207 95.8799 55.2955 95.8799 54.7703C95.7741 54.2452 95.3508 53.72 94.8216 53.72ZM94.8216 56.871C93.5517 56.871 92.7051 56.0307 92.7051 54.7703C92.7051 53.615 93.6575 52.6697 94.8216 52.6697C96.0916 52.6697 96.9382 53.5099 96.9382 54.7703C96.9382 56.0307 95.9858 56.871 94.8216 56.871Z" fill="white"/>
<path d="M73.9723 44.267L70.9033 46.5778L72.0674 42.9016L68.8926 40.6959H72.8082L73.9723 37.0198L75.2423 40.6959H79.0521L75.9831 42.9016L77.1472 46.5778L73.9723 44.267Z" fill="white"/>
<path d="M56.6172 48.7836V35.7595H60.6387V40.1709H64.6601V35.7595H68.7874V48.7836H64.6601V43.637H60.6387V48.7836H56.6172Z" fill="white"/>
<path d="M90.2698 42.6915C89.7407 42.0613 89.2115 41.6412 88.5766 41.5361C88.894 41.3261 89.3174 41.116 89.6348 40.5908C89.9523 40.1707 90.164 39.6455 90.164 39.0153C90.164 37.965 89.7407 37.1248 88.9999 36.4946C88.2591 35.8644 87.2008 35.6543 86.0367 35.6543H79.2637V37.755C80.4278 39.0153 81.0628 40.4858 81.0628 42.2714C81.0628 44.0569 80.4278 45.5274 79.2637 46.7878V48.7834H86.2483C87.7299 48.7834 88.894 48.4683 89.7407 47.7331C90.5873 46.9978 91.1164 46.1576 91.1164 45.0022C91.1164 44.0569 90.7989 43.3217 90.2698 42.6915ZM83.391 38.9103H85.4017C85.9308 38.9103 86.3542 39.3304 86.3542 39.8556C86.3542 40.2757 85.9308 40.6959 85.4017 40.6959H83.391V38.9103ZM85.5075 45.6324H83.391V43.4267H85.5075C86.2483 43.4267 86.6716 43.8469 86.6716 44.4771C86.6716 45.2123 86.2483 45.6324 85.5075 45.6324Z" fill="white"/>
<path d="M100.853 37.44C99.4777 36.0745 97.8903 35.4443 95.7737 35.4443C93.763 35.4443 92.0697 36.0745 90.694 37.44C90.4823 37.65 90.2707 37.9651 90.059 38.1752C90.1648 38.3853 90.1648 38.7004 90.1648 39.0155C90.1648 39.6456 89.9532 40.1708 89.6357 40.5909C89.3182 40.906 89.1065 41.2211 88.7891 41.3262C88.7891 41.4312 88.7891 41.4312 88.7891 41.5362C89.3182 41.6413 89.8473 42.0614 90.2707 42.5866C90.7998 43.2168 91.1173 43.952 91.1173 44.8973C91.1173 45.6325 90.9056 46.2627 90.5881 46.7879C90.694 46.8929 90.694 46.8929 90.7998 46.9979C92.1756 48.3634 93.8688 48.9936 95.8796 48.9936C97.8903 48.9936 99.5835 48.3634 100.959 46.9979C102.335 45.6325 102.97 44.057 102.97 42.1664C102.864 40.3809 102.123 38.8054 100.853 37.44Z" fill="#DB423F"/>
<path d="M112.705 37.4399C111.435 36.1795 109.742 35.5493 107.731 35.5493C105.721 35.5493 104.027 36.1795 102.652 37.5449C102.334 37.86 102.017 38.2802 101.699 38.7003C102.44 39.7506 102.758 41.011 102.758 42.3764C102.758 43.7419 102.44 45.0023 101.699 46.0526C101.911 46.4727 102.228 46.7878 102.652 47.208C104.027 48.5734 105.721 49.2036 107.731 49.2036C109.742 49.2036 111.33 48.5734 112.705 47.313L107.837 42.4815L112.705 37.4399ZM106.885 39.7506C106.356 39.7506 105.827 39.3305 105.827 38.7003C105.827 38.1751 106.25 37.65 106.885 37.65C107.414 37.65 107.943 38.0701 107.943 38.7003C107.943 39.3305 107.414 39.7506 106.885 39.7506Z" fill="white"/>
</g>
<defs>
<clipPath id="clip0_866_55">
<rect width="133" height="187" fill="white"/>
</clipPath>
</defs>
</svg>
