<svg width="1134" height="983" viewBox="0 0 1134 983" fill="none" xmlns="http://www.w3.org/2000/svg">
<path d="M1069.69 542.146L757.366 941.904L106.316 195.692L1069.69 542.146Z" fill="#3B3393"/>
<path d="M669.885 91.6208L893.77 203.63L807.234 570.946L635.218 548.096L669.885 91.6208Z" fill="#3B3393"/>
<path d="M647.916 389.26L833.099 458.234L807.234 570.946L635.218 548.096L647.916 389.26Z" fill="#E1AC54"/>
<path d="M316.815 251.653C292.047 283.494 297.781 329.385 329.622 354.153C361.463 378.921 407.354 373.188 432.122 341.347C456.89 309.506 451.156 263.615 419.315 238.847C387.474 214.079 341.584 219.812 316.815 251.653Z" fill="#E1AC54"/>
<path d="M363.972 283.166C361.121 280.322 357.831 279.009 353.445 279.009C349.278 279.009 345.768 280.322 342.917 283.166C342.698 283.385 342.698 283.604 342.479 283.604V302.641C342.698 302.86 342.698 303.079 342.917 303.079C345.768 305.923 349.278 307.236 353.445 307.236C357.612 307.236 361.121 305.923 363.972 303.079C366.824 300.234 368.14 296.952 368.14 293.013C368.14 289.293 366.824 286.011 363.972 283.166ZM360.025 302.204L353.445 297.39L346.865 302.204L349.278 294.545L342.698 289.731H350.813L353.225 282.072L355.638 289.731H363.753L357.173 294.545L360.025 302.204Z" fill="#DB423F"/>
<path d="M352.348 318.834C352.567 318.834 352.786 318.834 353.006 318.834C353.444 318.834 353.883 318.834 353.883 317.958C353.883 317.521 353.663 317.083 353.006 317.083C352.786 317.083 352.786 317.083 352.567 317.083H352.348V318.834ZM350.154 323.429V315.551C350.154 315.333 350.154 315.333 350.374 315.333C350.593 315.333 351.032 315.333 351.47 315.333C351.909 315.333 352.567 315.333 352.786 315.333C355.857 315.333 356.295 317.302 356.295 318.177C356.295 319.709 355.199 321.022 353.225 321.022C353.006 321.022 352.786 321.022 352.567 321.022V323.648C352.567 323.866 352.567 323.866 352.348 323.866L350.154 323.429Z" fill="white"/>
<path d="M363.752 319.928L362.875 317.74L361.997 319.928H363.752ZM364.849 323.429L364.41 321.897H361.34L360.682 323.429C360.682 323.429 360.682 323.648 360.462 323.648H358.708C358.488 323.648 358.488 323.429 358.488 323.429L361.778 315.551C361.778 315.551 361.778 315.333 361.997 315.333H363.533C363.533 315.333 363.752 315.333 363.752 315.551L367.042 323.429C367.042 323.648 367.042 323.648 366.823 323.648L364.849 323.429C365.068 323.648 365.068 323.648 364.849 323.429Z" fill="white"/>
<path d="M375.377 321.46V317.083H374.061L373.842 318.396C373.842 319.49 373.403 320.803 373.184 321.46H375.377ZM376.693 324.742V323.648H372.087V324.742C372.087 324.961 372.087 324.961 371.868 324.961H370.333C370.113 324.961 370.113 324.961 370.113 324.742V321.678C370.113 321.46 370.113 321.46 370.333 321.46H370.991C371.429 321.022 371.868 319.271 372.087 316.864V315.333C372.087 315.114 372.087 315.114 372.307 315.114H377.57C377.79 315.114 377.79 315.114 377.79 315.333V321.46H378.667C378.886 321.46 378.886 321.46 378.886 321.678V324.742C378.886 324.961 378.886 324.961 378.667 324.961L376.693 324.742C376.693 324.961 376.693 324.961 376.693 324.742Z" fill="white"/>
<path d="M387.221 323.429V319.052L383.931 323.648C383.931 323.648 383.931 323.648 383.712 323.648H382.176C381.957 323.648 381.957 323.648 381.957 323.429V315.551C381.957 315.333 381.957 315.333 382.176 315.333H383.931C384.15 315.333 384.15 315.333 384.15 315.551V319.928L387.44 315.333C387.44 315.333 387.44 315.333 387.659 315.333H389.195C389.414 315.333 389.414 315.333 389.414 315.551V323.429C389.414 323.648 389.414 323.648 389.195 323.648L387.221 323.429Z" fill="white"/>
<path d="M396.65 317.083C395.334 317.083 394.457 317.958 394.457 319.271C394.457 320.584 395.334 321.46 396.65 321.46C398.185 321.46 398.843 320.365 398.843 319.271C398.624 318.177 397.747 317.083 396.65 317.083ZM396.65 323.648C394.018 323.648 392.264 321.897 392.264 319.271C392.264 316.864 394.238 314.895 396.65 314.895C399.282 314.895 401.037 316.646 401.037 319.271C401.037 321.897 399.063 323.648 396.65 323.648Z" fill="white"/>
<path d="M353.444 297.389L347.083 302.203L349.496 294.545L342.916 289.95H351.031L353.444 282.291L356.076 289.95H363.971L357.611 294.545L360.023 302.203L353.444 297.389Z" fill="white"/>
<path d="M317.475 306.799V279.665H325.809V288.856H334.143V279.665H342.697V306.799H334.143V296.077H325.809V306.799H317.475Z" fill="white"/>
<path d="M387.22 294.107C386.123 292.794 385.027 291.919 383.711 291.7C384.369 291.263 385.246 290.825 385.904 289.731C386.562 288.856 387.001 287.762 387.001 286.449C387.001 284.261 386.123 282.51 384.588 281.197C383.053 279.884 380.86 279.447 378.447 279.447H364.41V283.823C366.823 286.449 368.139 289.512 368.139 293.232C368.139 296.952 366.823 300.015 364.41 302.641V306.799H378.886C381.956 306.799 384.369 306.142 386.123 304.611C387.878 303.079 388.975 301.328 388.975 298.921C388.975 296.952 388.317 295.42 387.22 294.107ZM372.964 286.23H377.131C378.228 286.23 379.105 287.105 379.105 288.199C379.105 289.075 378.228 289.95 377.131 289.95H372.964V286.23ZM377.35 300.234H372.964V295.639H377.35C378.886 295.639 379.763 296.514 379.763 297.827C379.763 299.359 378.886 300.234 377.35 300.234Z" fill="white"/>
<path d="M409.153 283.166C406.302 280.322 403.012 279.009 398.626 279.009C394.459 279.009 390.949 280.322 388.098 283.166C387.66 283.604 387.221 284.26 386.782 284.698C387.002 285.136 387.002 285.792 387.002 286.449C387.002 287.762 386.563 288.856 385.905 289.731C385.247 290.387 384.808 291.044 384.15 291.263C384.15 291.481 384.15 291.481 384.15 291.7C385.247 291.919 386.344 292.794 387.221 293.888C388.318 295.201 388.976 296.733 388.976 298.702C388.976 300.234 388.537 301.547 387.879 302.641C388.098 302.86 388.098 302.86 388.318 303.079C391.169 305.923 394.678 307.236 398.845 307.236C403.012 307.236 406.522 305.923 409.373 303.079C412.224 300.234 413.54 296.952 413.54 293.013C413.321 289.293 411.785 286.011 409.153 283.166Z" fill="#DB423F"/>
<path d="M433.716 283.166C431.084 280.54 427.575 279.228 423.408 279.228C419.241 279.228 415.731 280.54 412.88 283.385C412.222 284.042 411.564 284.917 410.906 285.792C412.442 287.98 413.1 290.606 413.1 293.451C413.1 296.295 412.442 298.921 410.906 301.109C411.345 301.985 412.003 302.641 412.88 303.516C415.731 306.361 419.241 307.674 423.408 307.674C427.575 307.674 430.865 306.361 433.716 303.735L423.627 293.67L433.716 283.166ZM421.653 287.98C420.557 287.98 419.46 287.105 419.46 285.792C419.46 284.698 420.337 283.604 421.653 283.604C422.75 283.604 423.846 284.479 423.846 285.792C423.846 287.105 422.75 287.98 421.653 287.98Z" fill="white"/>
</svg>
