<svg width="64" height="64" viewBox="0 0 64 64" fill="none" xmlns="http://www.w3.org/2000/svg">
<g clip-path="url(#clip0_557_74808)">
<path d="M49.8794 36.7702H49.7394C46.8294 36.7402 44.0394 35.6402 41.8894 33.6702L41.7994 33.5902L41.8694 33.4902C42.0594 33.2302 42.4294 32.7402 42.6894 32.3202L42.7794 32.1802L42.8994 32.2902C44.7594 34.0502 47.1894 35.0302 49.7394 35.0602H49.8694V36.7702H49.8794ZM42.1694 33.5502C44.2294 35.3902 46.8594 36.4302 49.6094 36.4902V35.3302C47.0894 35.2602 44.6994 34.3002 42.8394 32.6002C42.6094 32.9402 42.3494 33.3102 42.1694 33.5502ZM31.1194 36.7702V35.0702H31.2494C33.7994 35.0302 36.2294 34.0502 38.0894 32.2902L38.2094 32.1802L38.2994 32.3202C38.5994 32.7902 38.9694 33.3002 39.1194 33.4902L39.1894 33.5902L39.0994 33.6702C36.9394 35.6302 34.1594 36.7302 31.2494 36.7702H31.1094H31.1194ZM31.3894 35.3402V36.5002C34.1394 36.4402 36.7694 35.4002 38.8294 33.5602C38.6694 33.3502 38.3994 32.9802 38.1594 32.6102C36.2994 34.3102 33.8994 35.2802 31.3894 35.3402ZM49.8894 33.4402H49.7494C46.6094 33.4202 43.7594 31.6702 42.3094 28.8802C42.0594 29.5902 41.7294 30.2702 41.3594 30.9102C41.0994 31.3702 40.8494 31.7602 40.6094 32.0602L40.4994 32.1902L40.3894 32.0602C40.1494 31.7602 39.8994 31.3802 39.6394 30.9102C39.2594 30.2502 38.9394 29.5702 38.6894 28.8802C37.2394 31.6802 34.3894 33.4302 31.2494 33.4402H31.1094V31.7402H31.2494C34.9294 31.7102 37.9194 28.7002 37.9194 25.0202V14.4902H39.6994V24.8902C39.6994 26.2402 39.9694 27.5702 40.4994 28.8202C41.0294 27.5702 41.2994 26.2502 41.2994 24.8902V14.4902H43.0794V25.0102C43.0794 28.6902 46.0694 31.7102 49.7494 31.7302H49.8794V33.4402H49.8894ZM42.2794 28.2002L42.5694 28.7502C43.9494 31.4202 46.6494 33.1002 49.6294 33.1602V32.0002C47.8194 31.9502 46.1294 31.2202 44.8494 29.9402C43.5394 28.6202 42.8194 26.8702 42.8194 25.0102V14.7602H41.5894V24.8802C41.5894 26.2702 41.3194 27.6302 40.7694 28.9102L40.5194 29.5102L40.2694 28.9102C39.7294 27.6302 39.4494 26.2702 39.4494 24.8802V14.7602H38.2194V25.0102C38.2194 26.8702 37.4994 28.6202 36.1794 29.9402C34.8994 31.2302 33.2094 31.9602 31.4094 32.0002V33.1602C34.3894 33.0902 37.0894 31.4102 38.4694 28.7502L38.7594 28.1902L38.9694 28.7802C39.2094 29.4602 39.5194 30.1302 39.8994 30.7602C40.1094 31.1502 40.3194 31.4702 40.5194 31.7402C40.7194 31.4702 40.9294 31.1502 41.1394 30.7702C41.5094 30.1402 41.8194 29.4702 42.0694 28.7802L42.2794 28.1902V28.2002ZM49.8894 30.1202H49.7494C48.4094 30.0802 47.1494 29.5302 46.2094 28.5602C45.2694 27.5902 44.7494 26.3202 44.7494 24.9702V20.3602H46.4494V24.9702C46.4494 26.8302 47.8994 28.3402 49.7594 28.4102H49.8894V30.1202ZM45.0194 20.6302V24.9702C45.0194 27.5402 47.0694 29.7002 49.6194 29.8402V28.6802C48.7094 28.6102 47.8594 28.2202 47.2194 27.5502C46.5494 26.8502 46.1794 25.9402 46.1794 24.9702V20.6302H45.0194ZM31.1294 30.1202V28.4202H31.2594C33.1194 28.3402 34.5694 26.8302 34.5694 24.9702V20.3602H36.2794V24.9702C36.2794 26.3202 35.7594 27.5902 34.8194 28.5602C33.8794 29.5302 32.6194 30.0802 31.2794 30.1102H31.1394L31.1294 30.1202ZM31.3994 28.6802V29.8402C33.9494 29.7002 35.9994 27.5402 35.9994 24.9702V20.6302H34.8394V24.9702C34.8394 25.9402 34.4694 26.8502 33.7994 27.5502C33.1594 28.2102 32.3094 28.6102 31.3994 28.6802Z" fill="white"/>
<path d="M31.1109 6.67016C28.2709 6.67016 25.9609 8.98016 25.9609 11.8202V24.9702C25.9609 27.8102 28.2709 30.1202 31.1109 30.1202V28.4102C29.2109 28.4102 27.6709 26.8602 27.6709 24.9702V11.8102C27.6709 9.91016 29.2109 8.37016 31.1109 8.37016C33.0109 8.37016 34.5509 9.91016 34.5509 11.8102V20.3402H36.2609V11.8102C36.2609 8.97016 33.9509 6.66016 31.1109 6.66016V6.67016Z" fill="white"/>
<path d="M15.6902 0.470449C15.6902 8.56045 9.53016 15.2404 1.66016 16.0704V17.7805C7.85016 17.1905 13.1102 13.3504 15.6902 7.98045V36.8904H17.3902V0.460449H15.6902V0.470449Z" fill="white"/>
<path d="M12.3205 19.24V36.89H14.0205V18L13.9205 18.09C13.4205 18.52 12.8805 18.91 12.3105 19.25L12.3205 19.24Z" fill="white"/>
<path d="M14.0299 0.460449H12.3299C12.3299 6.69045 7.67992 11.8504 1.66992 12.6704V14.3904C8.61992 13.5604 14.0299 7.63045 14.0299 0.460449Z" fill="white"/>
<path d="M1.66016 19.4501V21.1601C6.41016 20.7801 10.7102 18.8101 14.0202 15.7601V13.3501C10.8902 16.7601 6.53016 19.0201 1.66016 19.4401V19.4501Z" fill="white"/>
<path d="M55.0305 24.9602V11.8102C55.0305 8.97016 52.7205 6.66016 49.8805 6.66016C47.0405 6.66016 44.7305 8.97016 44.7305 11.8102V20.3502H46.4405V11.8102C46.4405 9.91016 47.9805 8.37016 49.8805 8.37016C51.7805 8.37016 53.3205 9.91016 53.3205 11.8102V24.9602C53.3205 26.8602 51.7805 28.4002 49.8805 28.4002V30.1002C52.7205 30.1002 55.0305 27.7902 55.0305 24.9502V24.9602Z" fill="white"/>
<path d="M39.7098 11.7103C39.7098 11.1803 39.6398 9.52033 38.6898 7.89033C37.2898 5.19033 34.4598 3.34033 31.1998 3.34033H31.0198C26.3698 3.34033 22.5898 7.12033 22.5898 11.7603V25.0003C22.5898 29.6503 26.3698 33.4303 31.0198 33.4303H31.1098V31.7203H31.0298C27.3198 31.7203 24.3098 28.7003 24.3098 25.0003V11.7603C24.3098 8.05033 27.3298 5.04033 31.0298 5.04033H31.2098C34.9198 5.04033 37.9298 8.06033 37.9298 11.7603V14.4803H39.6998V11.8803C39.6998 11.8203 39.6998 11.7603 39.6998 11.7003L39.7098 11.7103Z" fill="white"/>
<path d="M49.8805 0.000234375C49.7105 0.000234375 49.5405 0.000234375 49.3705 0.0102344H49.3005C49.3005 0.0102344 49.2605 0.0102344 49.2405 0.0102344C48.9005 0.0302344 48.5605 0.0602344 48.2205 0.110234C48.2005 0.110234 48.1805 0.110234 48.1605 0.110234C48.1405 0.110234 48.1205 0.110234 48.1005 0.110234C47.7605 0.160234 47.4205 0.230234 47.0905 0.310234H47.0605L47.0305 0.330234H47.0105C46.6705 0.420234 46.3405 0.510234 46.0105 0.630234L45.9605 0.650234C45.6205 0.770234 45.2905 0.900234 44.9805 1.05023H44.9605C43.2005 1.86023 41.6705 3.08023 40.4905 4.59023C38.3205 1.80023 34.9205 -0.00976562 31.1105 -0.00976562C26.6805 -0.00976562 22.8005 2.43023 20.7605 6.05023V0.460234H19.0605V36.8902H20.7605V30.7102C22.8005 34.3202 26.6705 36.7702 31.1105 36.7702V35.0702C25.5005 35.0702 20.9305 30.5002 20.9305 24.8902V11.8902C20.9305 6.28023 25.5005 1.71023 31.1105 1.71023C36.7205 1.71023 41.2905 6.28023 41.2905 11.8902V14.4902H43.0705V11.7602C43.0705 8.05023 46.0905 5.04023 49.7905 5.04023H49.9705C53.6805 5.04023 56.6905 8.06024 56.6905 11.7602V25.0002C56.6905 28.7102 53.6705 31.7202 49.9705 31.7202H49.8805V33.4302H49.9805C54.6305 33.4402 58.4105 29.6602 58.4105 25.0102V11.7702C58.4105 7.12023 54.6305 3.35023 49.9805 3.35023H49.8005C46.5505 3.35023 43.7205 5.21023 42.3105 7.91023C42.0905 7.29023 41.8105 6.70023 41.5005 6.13023C41.8805 5.58023 42.3205 5.06023 42.8005 4.59023C43.7105 3.70023 44.7905 2.99023 45.9905 2.49023C45.9905 2.49023 46.0005 2.49023 46.0105 2.49023C46.3005 2.37023 46.6005 2.26023 46.9005 2.17023C46.9205 2.17023 46.9405 2.17023 46.9505 2.16023C47.0505 2.13023 47.1605 2.10023 47.2705 2.07023L47.3705 2.04023H47.4005C47.5505 1.99023 47.7005 1.96023 47.8505 1.93023C47.8705 1.93023 47.9005 1.93023 47.9205 1.92023H48.0005L48.0205 1.90023C48.1205 1.88023 48.2105 1.86023 48.3105 1.85023H48.3305C48.3305 1.85023 48.3805 1.84023 48.4005 1.84023H48.4505C48.5805 1.82023 48.7205 1.80023 48.8505 1.78023H48.9105C48.9805 1.77023 49.0405 1.76023 49.1105 1.76023C49.1705 1.76023 49.2405 1.76023 49.3005 1.74023H49.3605C49.3605 1.74023 49.4005 1.74023 49.4205 1.74023C49.5705 1.74023 49.7205 1.73023 49.8805 1.73023C55.4905 1.73023 60.0605 6.30023 60.0605 11.9102V24.9102C60.0605 30.5202 55.4905 35.0902 49.8805 35.0902V36.7902C56.4405 36.7902 61.7705 31.4702 61.7705 24.9102V11.8902C61.7705 5.33024 56.4405 0.000234375 49.8805 0.000234375Z" fill="white"/>
<path d="M1.64031 52.7996H0.0703125V51.6696H0.520312L0.900312 44.8896H3.80031V52.7996H2.61031V46.0196H2.02031L1.63031 52.7996H1.64031Z" fill="white"/>
<path d="M4.66016 44.8896H7.60016V46.0196H5.85016V47.9396H7.55016V49.0696H5.85016V51.6696H7.60016V52.7996H4.66016V44.8896Z" fill="white"/>
<path d="M8.16016 44.8896H11.6102V46.0196H10.4802V52.7996H9.29016V46.0196H8.16016V44.8896Z" fill="white"/>
<path d="M16.8304 44.8896H18.2804V52.7996H17.0904V49.4096L17.2804 47.1497H17.2204L16.3904 51.2197H15.2804L14.4304 47.1497H14.3704L14.5904 49.4096V52.7996H13.4004V44.8896H14.8504L15.8104 49.4096H15.8404L16.8104 44.8896H16.8304Z" fill="white"/>
<path d="M19.6606 52.8299C19.3406 52.8299 19.1406 52.6099 19.1406 52.3099V45.4199C19.1406 45.1099 19.3406 44.8999 19.6606 44.8999H22.1706C22.4906 44.8999 22.6906 45.1199 22.6906 45.4199V52.3199C22.6906 52.6299 22.4906 52.8399 22.1706 52.8399H19.6606V52.8299ZM21.5106 46.0199H20.3306V51.6899H21.5106V46.0199Z" fill="white"/>
<path d="M24.0805 52.7996C23.7605 52.7996 23.5605 52.5896 23.5605 52.2796V45.4096C23.5605 45.0996 23.7605 44.8896 24.0805 44.8896H27.0105V47.1497H25.8205V46.0196H24.7405V51.6696H25.8205V50.1996H27.0105V52.7996H24.0805Z" fill="white"/>
<path d="M31.6008 52.7996H30.3408L29.3008 49.0696H28.9908V52.7996H27.8008V44.8896H28.9908V47.9396H29.3308L30.3408 44.8896H31.6008L30.3708 48.5096L31.6008 52.8097V52.7996Z" fill="white"/>
<path d="M32.6802 52.8299C32.3602 52.8299 32.1602 52.6099 32.1602 52.3099V45.4199C32.1602 45.1099 32.3602 44.8999 32.6802 44.8999H35.1902C35.5102 44.8999 35.7102 45.1199 35.7102 45.4199V52.3199C35.7102 52.6299 35.5102 52.8399 35.1902 52.8399H32.6802V52.8299ZM34.5302 46.0199H33.3502V51.6899H34.5302V46.0199Z" fill="white"/>
<path d="M40.0203 47.6199C40.0203 48.0699 39.7803 48.3799 39.4303 48.4999C39.7803 48.6199 40.0203 48.9199 40.0203 49.3799V52.2699C40.0203 52.5799 39.8203 52.7899 39.5003 52.7899H36.5703V44.8799H39.5003C39.8203 44.8799 40.0203 45.0899 40.0203 45.3999V47.6199ZM38.8303 46.0099H37.7603V47.9299H38.8303V46.0099ZM37.7503 51.6699H38.8203V49.0699H37.7503V51.6699Z" fill="white"/>
<path d="M41.4106 52.7996C41.0906 52.7996 40.8906 52.5896 40.8906 52.2796V45.4096C40.8906 45.0996 41.0906 44.8896 41.4106 44.8896H44.3406V47.1497H43.1506V46.0196H42.0706V51.6696H43.1506V50.1996H44.3406V52.7996H41.4106Z" fill="white"/>
<path d="M48.9309 52.7996H47.6709L46.6309 49.0696H46.3209V52.7996H45.1309V44.8896H46.3209V47.9396H46.6609L47.6709 44.8896H48.9309L47.7009 48.5096L48.9309 52.8097V52.7996Z" fill="white"/>
<path d="M50.0102 52.8299C49.6902 52.8299 49.4902 52.6099 49.4902 52.3099V45.4199C49.4902 45.1099 49.6902 44.8999 50.0102 44.8999H52.5402C52.8602 44.8999 53.0602 45.1199 53.0602 45.4199V52.3199C53.0602 52.6299 52.8602 52.8399 52.5402 52.8399H50.0102V52.8299ZM51.8702 46.0199H50.6802V51.6899H51.8702V46.0199Z" fill="white"/>
<path d="M57.3206 44.8896H58.7706V52.7996H57.5806V49.4096L57.7706 47.1497H57.7106L56.8906 51.2197H55.7806L54.9306 47.1497H54.8706L55.0806 49.4096V52.7996H53.8906V44.8896H55.3406L56.3006 49.4096H56.3306L57.3006 44.8896H57.3206Z" fill="white"/>
<path d="M62.0601 52.7999H60.4501V51.6699H61.0601L61.3001 50.1999H60.4501L59.3301 44.8799H60.5501L61.4401 49.0599H61.5001L62.1901 44.8799H63.3701L62.0701 52.7899L62.0601 52.7999Z" fill="white"/>
<path d="M19.7505 63.8297C19.4305 63.8297 19.2305 63.6197 19.2305 63.3097V56.4297C19.2305 56.1197 19.4305 55.9097 19.7505 55.9097H22.6705V58.1697H21.4905V57.0397H20.4205V62.6897H21.4905V61.2197H22.6705V63.8197H19.7505V63.8297Z" fill="white"/>
<path d="M27.0705 55.9097V63.8297H25.8905V57.0497H24.6605V63.8297H23.4805V55.9097H27.0705Z" fill="white"/>
<path d="M28.4507 63.8297C28.1407 63.8297 27.9307 63.6197 27.9307 63.3097V56.4297C27.9307 56.1197 28.1307 55.9097 28.4507 55.9097H30.9607C31.2707 55.9097 31.4807 56.1197 31.4807 56.4297V63.3097C31.4807 63.6197 31.2807 63.8297 30.9607 63.8297H28.4507ZM30.2907 57.0497H29.1107V62.6997H30.2907V57.0497Z" fill="white"/>
<path d="M33.5208 61.2199V63.8199H32.3408V55.8999H35.3108C35.6308 55.8999 35.8308 56.1099 35.8308 56.4199V60.6899C35.8308 60.9999 35.6308 61.2099 35.3108 61.2099H33.5208V61.2199ZM33.5208 60.0899H34.6508V57.0399H33.5208V60.0899Z" fill="white"/>
<path d="M36.4102 55.9102H39.8502V57.0402H38.7202V63.8202H37.5402V57.0402H36.4102V55.9102Z" fill="white"/>
<path d="M42.9009 63.8299H41.2909V62.6999H41.9009L42.1409 61.2299H41.2909L40.1709 55.9199H41.3809L42.2609 60.0999H42.3209L43.0109 55.9199H44.1909L42.9009 63.8399V63.8299Z" fill="white"/>
</g>
<defs>
<clipPath id="clip0_557_74808">
<rect width="63.29" height="63.83" fill="white" transform="translate(0.0703125)"/>
</clipPath>
</defs>
</svg>
