<svg width="64" height="64" viewBox="0 0 64 64" fill="none" xmlns="http://www.w3.org/2000/svg">
<g clip-path="url(#clip0_557_74501)">
<path d="M49.8804 36.77H49.7403C46.8303 36.74 44.0403 35.64 41.8904 33.67L41.8004 33.59L41.8703 33.49C42.0603 33.23 42.4303 32.74 42.6903 32.32L42.7803 32.18L42.9004 32.29C44.7604 34.05 47.1903 35.03 49.7403 35.06H49.8703V36.77H49.8804ZM42.1703 33.55C44.2303 35.39 46.8604 36.43 49.6104 36.49V35.33C47.0904 35.26 44.7004 34.3 42.8404 32.6C42.6104 32.94 42.3503 33.31 42.1703 33.55ZM31.1203 36.77V35.07H31.2504C33.8004 35.03 36.2304 34.05 38.0904 32.29L38.2104 32.18L38.3004 32.32C38.6004 32.79 38.9703 33.3 39.1203 33.49L39.1903 33.59L39.1003 33.67C36.9403 35.63 34.1604 36.73 31.2504 36.77H31.1104H31.1203ZM31.3904 35.34V36.5C34.1404 36.44 36.7703 35.4 38.8303 33.56C38.6703 33.35 38.4004 32.98 38.1604 32.61C36.3004 34.31 33.9004 35.28 31.3904 35.34ZM49.8904 33.44H49.7504C46.6104 33.42 43.7604 31.67 42.3104 28.88C42.0604 29.59 41.7304 30.27 41.3604 30.91C41.1004 31.37 40.8504 31.76 40.6104 32.06L40.5004 32.19L40.3904 32.06C40.1504 31.76 39.9004 31.38 39.6404 30.91C39.2604 30.25 38.9403 29.57 38.6903 28.88C37.2403 31.68 34.3904 33.43 31.2504 33.44H31.1104V31.74H31.2504C34.9304 31.71 37.9203 28.7 37.9203 25.02V14.49H39.7004V24.89C39.7004 26.24 39.9704 27.57 40.5004 28.82C41.0304 27.57 41.3004 26.25 41.3004 24.89V14.49H43.0803V25.01C43.0803 28.69 46.0704 31.71 49.7504 31.73H49.8804V33.44H49.8904ZM42.2803 28.2L42.5704 28.75C43.9504 31.42 46.6504 33.1 49.6304 33.16V32C47.8204 31.95 46.1303 31.22 44.8503 29.94C43.5403 28.62 42.8204 26.87 42.8204 25.01V14.76H41.5904V24.88C41.5904 26.27 41.3204 27.63 40.7704 28.91L40.5204 29.51L40.2704 28.91C39.7304 27.63 39.4504 26.27 39.4504 24.88V14.76H38.2204V25.01C38.2204 26.87 37.5004 28.62 36.1804 29.94C34.9004 31.23 33.2104 31.96 31.4104 32V33.16C34.3904 33.09 37.0904 31.41 38.4704 28.75L38.7603 28.19L38.9704 28.78C39.2104 29.46 39.5204 30.13 39.9004 30.76C40.1104 31.15 40.3204 31.47 40.5204 31.74C40.7204 31.47 40.9304 31.15 41.1404 30.77C41.5104 30.14 41.8204 29.47 42.0704 28.78L42.2803 28.19V28.2ZM49.8904 30.12H49.7504C48.4104 30.08 47.1504 29.53 46.2104 28.56C45.2704 27.59 44.7504 26.32 44.7504 24.97V20.36H46.4504V24.97C46.4504 26.83 47.9003 28.34 49.7603 28.41H49.8904V30.12ZM45.0204 20.63V24.97C45.0204 27.54 47.0703 29.7 49.6203 29.84V28.68C48.7104 28.61 47.8604 28.22 47.2204 27.55C46.5504 26.85 46.1804 25.94 46.1804 24.97V20.63H45.0204ZM31.1304 30.12V28.42H31.2604C33.1204 28.34 34.5704 26.83 34.5704 24.97V20.36H36.2803V24.97C36.2803 26.32 35.7604 27.59 34.8204 28.56C33.8804 29.53 32.6203 30.08 31.2803 30.11H31.1404L31.1304 30.12ZM31.4004 28.68V29.84C33.9504 29.7 36.0004 27.54 36.0004 24.97V20.63H34.8404V24.97C34.8404 25.94 34.4704 26.85 33.8004 27.55C33.1604 28.21 32.3104 28.61 31.4004 28.68Z" fill="#E51F2F"/>
<path d="M31.11 6.66997C28.27 6.66997 25.96 8.97997 25.96 11.82V24.97C25.96 27.81 28.27 30.12 31.11 30.12V28.41C29.21 28.41 27.67 26.86 27.67 24.97V11.81C27.67 9.90997 29.21 8.36997 31.11 8.36997C33.01 8.36997 34.55 9.90997 34.55 11.81V20.34H36.26V11.81C36.26 8.96997 33.95 6.65997 31.11 6.65997V6.66997Z" fill="#E51F2F"/>
<path d="M15.6902 0.469961C15.6902 8.55996 9.53016 15.24 1.66016 16.07V17.78C7.85016 17.19 13.1102 13.35 15.6902 7.97996V36.89H17.3902V0.459961H15.6902V0.469961Z" fill="#E51F2F"/>
<path d="M12.3205 19.24V36.89H14.0205V18L13.9205 18.09C13.4205 18.52 12.8805 18.91 12.3105 19.25L12.3205 19.24Z" fill="#E51F2F"/>
<path d="M14.0299 0.459961H12.3299C12.3299 6.68996 7.67992 11.85 1.66992 12.67V14.39C8.61992 13.56 14.0299 7.62996 14.0299 0.459961Z" fill="#E51F2F"/>
<path d="M1.66016 19.45V21.16C6.41016 20.78 10.7102 18.81 14.0202 15.76V13.35C10.8902 16.76 6.53016 19.02 1.66016 19.44V19.45Z" fill="#E51F2F"/>
<path d="M55.0305 24.96V11.81C55.0305 8.96997 52.7205 6.65997 49.8805 6.65997C47.0405 6.65997 44.7305 8.96997 44.7305 11.81V20.35H46.4405V11.81C46.4405 9.90997 47.9805 8.36997 49.8805 8.36997C51.7805 8.36997 53.3205 9.90997 53.3205 11.81V24.96C53.3205 26.86 51.7805 28.4 49.8805 28.4V30.1C52.7205 30.1 55.0305 27.79 55.0305 24.95V24.96Z" fill="#E51F2F"/>
<path d="M39.7098 11.71C39.7098 11.18 39.6398 9.51997 38.6898 7.88997C37.2898 5.18997 34.4598 3.33997 31.1998 3.33997H31.0198C26.3698 3.33997 22.5898 7.11997 22.5898 11.76V25C22.5898 29.65 26.3698 33.43 31.0198 33.43H31.1098V31.72H31.0298C27.3198 31.72 24.3098 28.7 24.3098 25V11.76C24.3098 8.04997 27.3298 5.03997 31.0298 5.03997H31.2098C34.9198 5.03997 37.9298 8.05997 37.9298 11.76V14.48H39.6998V11.88C39.6998 11.82 39.6998 11.76 39.6998 11.7L39.7098 11.71Z" fill="#E51F2F"/>
<path d="M49.8805 -9.76585e-06C49.7105 -9.76585e-06 49.5405 -9.76585e-06 49.3705 0.00999023H49.3005C49.3005 0.00999023 49.2605 0.00999023 49.2405 0.00999023C48.9005 0.0299902 48.5605 0.0599902 48.2205 0.10999C48.2005 0.10999 48.1805 0.10999 48.1605 0.10999C48.1405 0.10999 48.1205 0.10999 48.1005 0.10999C47.7605 0.15999 47.4205 0.22999 47.0905 0.30999H47.0605L47.0305 0.32999H47.0105C46.6705 0.41999 46.3405 0.50999 46.0105 0.62999L45.9605 0.64999C45.6205 0.76999 45.2905 0.89999 44.9805 1.04999H44.9605C43.2005 1.85999 41.6705 3.07999 40.4905 4.58999C38.3205 1.79999 34.9205 -0.0100098 31.1105 -0.0100098C26.6805 -0.0100098 22.8005 2.42999 20.7605 6.04999V0.45999H19.0605V36.89H20.7605V30.71C22.8005 34.32 26.6705 36.77 31.1105 36.77V35.07C25.5005 35.07 20.9305 30.5 20.9305 24.89V11.89C20.9305 6.27999 25.5005 1.70999 31.1105 1.70999C36.7205 1.70999 41.2905 6.27999 41.2905 11.89V14.49H43.0705V11.76C43.0705 8.04999 46.0905 5.03999 49.7905 5.03999H49.9705C53.6805 5.03999 56.6905 8.05999 56.6905 11.76V25C56.6905 28.71 53.6705 31.72 49.9705 31.72H49.8805V33.43H49.9805C54.6305 33.44 58.4105 29.66 58.4105 25.01V11.77C58.4105 7.11999 54.6305 3.34999 49.9805 3.34999H49.8005C46.5505 3.34999 43.7205 5.20999 42.3105 7.90999C42.0905 7.28999 41.8105 6.69999 41.5005 6.12999C41.8805 5.57999 42.3205 5.05999 42.8005 4.58999C43.7105 3.69999 44.7905 2.98999 45.9905 2.48999C45.9905 2.48999 46.0005 2.48999 46.0105 2.48999C46.3005 2.36999 46.6005 2.25999 46.9005 2.16999C46.9205 2.16999 46.9405 2.16999 46.9505 2.15999C47.0505 2.12999 47.1605 2.09999 47.2705 2.06999L47.3705 2.03999H47.4005C47.5505 1.98999 47.7005 1.95999 47.8505 1.92999C47.8705 1.92999 47.9005 1.92999 47.9205 1.91999H48.0005L48.0205 1.89999C48.1205 1.87999 48.2105 1.85999 48.3105 1.84999H48.3305C48.3305 1.84999 48.3805 1.83999 48.4005 1.83999H48.4505C48.5805 1.81999 48.7205 1.79999 48.8505 1.77999H48.9105C48.9805 1.76999 49.0405 1.75999 49.1105 1.75999C49.1705 1.75999 49.2405 1.75999 49.3005 1.73999H49.3605C49.3605 1.73999 49.4005 1.73999 49.4205 1.73999C49.5705 1.73999 49.7205 1.72999 49.8805 1.72999C55.4905 1.72999 60.0605 6.29999 60.0605 11.91V24.91C60.0605 30.52 55.4905 35.09 49.8805 35.09V36.79C56.4405 36.79 61.7705 31.47 61.7705 24.91V11.89C61.7705 5.32999 56.4405 -9.76585e-06 49.8805 -9.76585e-06Z" fill="#E51F2F"/>
<path d="M1.64031 52.8H0.0703125V51.67H0.520312L0.900312 44.89H3.80031V52.8H2.61031V46.02H2.02031L1.63031 52.8H1.64031Z" fill="#E51F2F"/>
<path d="M4.66016 44.89H7.60016V46.02H5.85016V47.94H7.55016V49.07H5.85016V51.67H7.60016V52.8H4.66016V44.89Z" fill="#E51F2F"/>
<path d="M8.16016 44.89H11.6102V46.02H10.4802V52.8H9.29016V46.02H8.16016V44.89Z" fill="#E51F2F"/>
<path d="M16.8304 44.89H18.2804V52.8H17.0904V49.41L17.2804 47.15H17.2204L16.3904 51.22H15.2804L14.4304 47.15H14.3704L14.5904 49.41V52.8H13.4004V44.89H14.8504L15.8104 49.41H15.8404L16.8104 44.89H16.8304Z" fill="#E51F2F"/>
<path d="M19.6606 52.83C19.3406 52.83 19.1406 52.61 19.1406 52.31V45.42C19.1406 45.11 19.3406 44.9 19.6606 44.9H22.1706C22.4906 44.9 22.6906 45.12 22.6906 45.42V52.32C22.6906 52.63 22.4906 52.84 22.1706 52.84H19.6606V52.83ZM21.5106 46.02H20.3306V51.69H21.5106V46.02Z" fill="#E51F2F"/>
<path d="M24.0805 52.8C23.7605 52.8 23.5605 52.59 23.5605 52.28V45.41C23.5605 45.1 23.7605 44.89 24.0805 44.89H27.0105V47.15H25.8205V46.02H24.7405V51.67H25.8205V50.2H27.0105V52.8H24.0805Z" fill="#E51F2F"/>
<path d="M31.6008 52.8H30.3408L29.3008 49.07H28.9908V52.8H27.8008V44.89H28.9908V47.94H29.3308L30.3408 44.89H31.6008L30.3708 48.51L31.6008 52.81V52.8Z" fill="#E51F2F"/>
<path d="M32.6802 52.83C32.3602 52.83 32.1602 52.61 32.1602 52.31V45.42C32.1602 45.11 32.3602 44.9 32.6802 44.9H35.1902C35.5102 44.9 35.7102 45.12 35.7102 45.42V52.32C35.7102 52.63 35.5102 52.84 35.1902 52.84H32.6802V52.83ZM34.5302 46.02H33.3502V51.69H34.5302V46.02Z" fill="#E51F2F"/>
<path d="M40.0203 47.62C40.0203 48.07 39.7803 48.38 39.4303 48.5C39.7803 48.62 40.0203 48.92 40.0203 49.38V52.27C40.0203 52.58 39.8203 52.79 39.5003 52.79H36.5703V44.88H39.5003C39.8203 44.88 40.0203 45.09 40.0203 45.4V47.62ZM38.8303 46.01H37.7603V47.93H38.8303V46.01ZM37.7503 51.67H38.8203V49.07H37.7503V51.67Z" fill="#E51F2F"/>
<path d="M41.4106 52.8C41.0906 52.8 40.8906 52.59 40.8906 52.28V45.41C40.8906 45.1 41.0906 44.89 41.4106 44.89H44.3406V47.15H43.1506V46.02H42.0706V51.67H43.1506V50.2H44.3406V52.8H41.4106Z" fill="#E51F2F"/>
<path d="M48.9309 52.8H47.6709L46.6309 49.07H46.3209V52.8H45.1309V44.89H46.3209V47.94H46.6609L47.6709 44.89H48.9309L47.7009 48.51L48.9309 52.81V52.8Z" fill="#E51F2F"/>
<path d="M50.0102 52.83C49.6902 52.83 49.4902 52.61 49.4902 52.31V45.42C49.4902 45.11 49.6902 44.9 50.0102 44.9H52.5402C52.8602 44.9 53.0602 45.12 53.0602 45.42V52.32C53.0602 52.63 52.8602 52.84 52.5402 52.84H50.0102V52.83ZM51.8702 46.02H50.6802V51.69H51.8702V46.02Z" fill="#E51F2F"/>
<path d="M57.3206 44.89H58.7706V52.8H57.5806V49.41L57.7706 47.15H57.7106L56.8906 51.22H55.7806L54.9306 47.15H54.8706L55.0806 49.41V52.8H53.8906V44.89H55.3406L56.3006 49.41H56.3306L57.3006 44.89H57.3206Z" fill="#E51F2F"/>
<path d="M62.0601 52.8H60.4501V51.67H61.0601L61.3001 50.2H60.4501L59.3301 44.88H60.5501L61.4401 49.06H61.5001L62.1901 44.88H63.3701L62.0701 52.79L62.0601 52.8Z" fill="#E51F2F"/>
<path d="M19.7505 63.83C19.4305 63.83 19.2305 63.62 19.2305 63.31V56.43C19.2305 56.12 19.4305 55.91 19.7505 55.91H22.6705V58.17H21.4905V57.04H20.4205V62.69H21.4905V61.22H22.6705V63.82H19.7505V63.83Z" fill="#E51F2F"/>
<path d="M27.0705 55.91V63.83H25.8905V57.05H24.6605V63.83H23.4805V55.91H27.0705Z" fill="#E51F2F"/>
<path d="M28.4507 63.83C28.1407 63.83 27.9307 63.62 27.9307 63.31V56.43C27.9307 56.12 28.1307 55.91 28.4507 55.91H30.9607C31.2707 55.91 31.4807 56.12 31.4807 56.43V63.31C31.4807 63.62 31.2807 63.83 30.9607 63.83H28.4507ZM30.2907 57.05H29.1107V62.7H30.2907V57.05Z" fill="#E51F2F"/>
<path d="M33.5208 61.22V63.82H32.3408V55.9H35.3108C35.6308 55.9 35.8308 56.11 35.8308 56.42V60.69C35.8308 61 35.6308 61.21 35.3108 61.21H33.5208V61.22ZM33.5208 60.09H34.6508V57.04H33.5208V60.09Z" fill="#E51F2F"/>
<path d="M36.4102 55.91H39.8502V57.04H38.7202V63.82H37.5402V57.04H36.4102V55.91Z" fill="#E51F2F"/>
<path d="M42.9009 63.83H41.2909V62.7H41.9009L42.1409 61.23H41.2909L40.1709 55.92H41.3809L42.2609 60.1H42.3209L43.0109 55.92H44.1909L42.9009 63.84V63.83Z" fill="#E51F2F"/>
</g>
<defs>
<clipPath id="clip0_557_74501">
<rect width="63.29" height="63.83" fill="white" transform="translate(0.0703125)"/>
</clipPath>
</defs>
</svg>
