<svg width="47" height="64" viewBox="0 0 47 64" fill="none" xmlns="http://www.w3.org/2000/svg">
<g clip-path="url(#clip0_557_74804)">
<path d="M13.85 12.07V9.66H16.96V12.55C16.96 16.72 15.1 20.5 12.11 23.25C10.47 24.75 8.49004 25.95 6.29004 26.72V23.61C7.64004 23.01 8.86004 22.2 9.91004 21.24C12.34 19.01 13.84 15.94 13.84 12.56V12.08L13.85 12.07ZM29.11 12.07V9.66H32.22V12.55C32.22 15.93 33.73 19 36.15 21.23C37.21 22.2 38.44 23.01 39.79 23.61V26.72C37.58 25.95 35.59 24.76 33.95 23.25C30.96 20.51 29.1 16.72 29.1 12.55V12.07H29.11ZM6.29004 31.82C9.87004 30.89 13.07 29.12 15.63 26.77C17.56 25 19.12 22.9 20.21 20.57C20.92 22.49 21.86 24.28 23.03 25.97C24.16 24.51 25.06 22.6 25.87 20.57C26.96 22.9 28.52 25 30.45 26.76C33.01 29.11 36.21 30.88 39.79 31.81V28.82C37.08 27.98 34.64 26.57 32.65 24.74C29.32 21.68 27.25 17.47 27.25 12.83V0H24.14V12.84C24.14 15.1 23.75 17.73 23.04 19.78C22.32 17.73 21.94 15.1 21.94 12.84V0H18.83V12.84C18.83 17.47 16.76 21.69 13.43 24.75C11.44 26.57 9.00004 27.99 6.29004 28.83V31.82ZM19.96 25.05C19.16 26.1 18.27 27.08 17.29 27.98C14.3 30.72 10.52 32.73 6.29004 33.67V36.6C11.38 35.61 15.93 33.26 19.49 29.99C20.25 29.29 20.96 28.55 21.63 27.77L21.52 27.61C20.96 26.78 20.43 25.92 19.96 25.03M24.56 27.87C25.2 28.61 25.88 29.31 26.61 29.98C30.16 33.24 34.72 35.59 39.8 36.58V33.65C35.58 32.7 31.79 30.7 28.81 27.96C27.87 27.1 27.01 26.16 26.23 25.16C25.77 26 25.27 26.82 24.73 27.61C24.67 27.7 24.61 27.78 24.55 27.87" fill="white"/>
<path d="M2.65027 49.7999C2.98027 48.1199 3.40027 46.2499 3.60027 44.5499H5.27027V52.3999H4.18027V49.2899L4.31027 46.4799C4.15027 47.3799 3.54027 50.7099 2.77027 52.3099H2.54027C1.76027 50.7199 1.15027 47.3899 1.00027 46.4799L1.13027 49.2899V52.3999H0.0302734V44.5499H1.70027C1.90027 46.2399 2.32027 48.1199 2.65027 49.7999ZM27.8403 45.9199V46.8799C27.8403 47.5099 27.5703 47.9599 27.1503 48.2599C27.6103 48.6099 27.8403 49.1499 27.8403 49.8199V52.3899C27.0803 52.3899 26.3303 52.3899 25.5703 52.3899H24.3303V44.5399H25.5703C26.3303 44.5399 27.0803 44.5399 27.8403 44.5399V45.9199ZM25.5703 48.8899V51.2699H26.5903C26.5903 50.7599 26.5903 50.2499 26.5903 49.7399C26.5903 48.9399 26.0303 48.8599 25.5703 48.8899ZM25.5703 45.6599V47.7699C26.0303 47.7899 26.5903 47.7699 26.5903 46.9699V46.2599V45.6699H25.5703V45.6599ZM21.0003 52.3899H19.7603V44.5399H23.4503V52.3899H21.0003ZM22.1803 45.6599H21.0203V51.2699H22.1803V45.6599ZM7.39027 52.3899H6.15027V44.5399H9.84027V52.3899H7.39027ZM8.57027 45.6599H7.41027V51.2699H8.57027V45.6599ZM29.9103 52.3899H28.6703V44.5399H32.3603V47.6899H31.0903V45.6599H29.9103V51.2699H31.0903V49.2399H32.3603V52.3899H29.9103ZM11.9603 52.3899H10.7203V44.5399H14.4103V47.6899H13.1403V45.6599H11.9603V51.2699H13.1403V49.2399H14.4103V52.3899H11.9603ZM34.4803 52.3999H33.2403V44.5499H34.4803V47.6299H34.6903C35.3603 47.6299 35.5803 46.9199 35.5803 46.3999V44.5499H36.8203V46.3499C36.8203 47.1799 36.5003 47.7999 35.8903 48.1999C36.5603 48.6499 36.8203 49.2199 36.8203 50.0499V52.4099H35.5803V49.9999C35.5803 49.4899 35.3303 48.8799 34.7003 48.8799H34.4803V52.4099V52.3999ZM45.5503 43.6099H42.8103V42.6899H45.5503V43.6099ZM42.3003 52.3999V44.5499H43.4103V49.1399L44.6903 44.5499H46.0803V52.3999H44.9603V46.9399L43.4303 52.4099H42.3003V52.3999ZM37.6503 52.3999V44.5499H38.7603V49.1399L40.0403 44.5499H41.4303V52.3999H40.3103V46.9399L38.7803 52.4099H37.6503V52.3999ZM16.5403 52.3999H15.3003V44.5499H16.5403V47.6299H16.7503C17.4203 47.6299 17.6403 46.9199 17.6403 46.3999V44.5499H18.8803V46.3499C18.8803 47.1799 18.5603 47.7999 17.9503 48.1999C18.6203 48.6499 18.8803 49.2199 18.8803 50.0499V52.4099H17.6403V49.9999C17.6403 49.4899 17.3903 48.8799 16.7603 48.8799H16.5403V52.4099V52.3999Z" fill="white"/>
<path d="M18.1801 63.3202H16.9401V55.4702H20.6301V63.3202H19.3601V56.5902H18.1801V63.3202ZM13.6101 63.3202H12.3701V55.4702H16.0601V58.6202H14.7901V56.5902H13.6101V62.2002H14.7901V60.1702H16.0601V63.3202H13.6101ZM22.7401 63.3202H21.5001V55.4702H25.1901V63.3202H22.7401ZM23.9201 56.5902H22.7601V62.2002H23.9201V56.5902ZM29.8901 55.4702H33.7301V56.5902H32.4301V63.3202H31.1901V56.5902H29.8901V55.4702ZM29.5501 58.2002V59.1602C29.5501 60.3702 28.9001 61.2102 27.7001 61.2102H27.2901V63.3202H26.0501V55.4702C27.2201 55.4702 28.3901 55.4702 29.5601 55.4702V58.2002H29.5501ZM27.2801 56.6002V60.1002C27.7401 60.1202 28.3001 60.0502 28.3001 59.2502V58.5402V56.6102H27.2801V56.6002Z" fill="white"/>
</g>
<defs>
<clipPath id="clip0_557_74804">
<rect width="46.04" height="63.32" fill="white" transform="translate(0.0302734)"/>
</clipPath>
</defs>
</svg>
