<svg width="24" height="24" viewBox="0 0 24 24" fill="none" xmlns="http://www.w3.org/2000/svg">
<path fill-rule="evenodd" clip-rule="evenodd" d="M4 0C1.79086 0 0 1.79086 0 4V19.218C0 21.4272 1.79086 23.218 4 23.218H19.218C21.4272 23.218 23.218 21.4272 23.218 19.218V4C23.218 1.79086 21.4272 0 19.218 0H4ZM3.73246 6.57646C3.86957 13.1685 7.1602 17.1301 12.9294 17.1301H13.2565V13.3587C15.3765 13.57 16.9795 15.1229 17.6228 17.1301H20.6183C19.7956 14.1299 17.6334 12.4713 16.2834 11.8374C17.6334 11.0557 19.5318 9.15413 19.9854 6.57646H17.2642C16.6735 8.66818 14.9229 10.5697 13.2565 10.7493V6.57646H10.5353V13.8869C8.84773 13.4643 6.71728 11.4149 6.62235 6.57646H3.73246Z" fill="white"/>
</svg>
