<svg width="349" height="344" viewBox="0 0 349 344" fill="none" xmlns="http://www.w3.org/2000/svg">
<path d="M179.715 286.317C251.697 296.867 318.602 247.067 329.152 175.086C339.702 103.105 289.903 36.2003 217.922 25.6499C145.941 15.0995 79.0356 64.8989 68.4852 136.88C57.9349 208.861 107.734 275.766 179.715 286.317Z" fill="#EE2C3C"/>
<path d="M145.554 292.305C100.57 324.492 37.674 313.639 4.98984 267.988L167.835 151.442C200.519 197.094 190.539 260.117 145.554 292.305Z" fill="#EE2C3C"/>
<path d="M80.8687 213.583L167.836 151.442C196.817 191.945 192.107 246.381 159.175 280.483C120.367 266.474 97.6515 241.005 80.8687 213.583Z" fill="#3B3393"/>
</svg>
