<svg width="78" height="78" viewBox="0 0 78 78" fill="none" xmlns="http://www.w3.org/2000/svg">
<path d="M38.5826 77.0498L77.0498 38.5826L38.4671 -4.54098e-05C17.2124 21.2547 17.2755 55.7426 38.5826 77.0498Z" fill="#3B3393"/>
<path d="M57.9034 38.9034C58.0986 38.7081 58.0986 38.3915 57.9034 38.1963L54.7214 35.0143C54.5261 34.819 54.2095 34.819 54.0143 35.0143C53.819 35.2095 53.819 35.5261 54.0143 35.7214L56.8427 38.5498L54.0143 41.3782C53.819 41.5735 53.819 41.8901 54.0143 42.0853C54.2095 42.2806 54.5261 42.2806 54.7214 42.0853L57.9034 38.9034ZM37.0498 39.0498L57.5498 39.0498L57.5498 38.0498L37.0498 38.0498L37.0498 39.0498Z" fill="white"/>
</svg>
