<svg width="56" height="81" viewBox="0 0 56 81" fill="none" xmlns="http://www.w3.org/2000/svg">
<g clip-path="url(#clip0_557_74869)">
<path d="M55.9428 31.2671C55.4833 34.8125 54.2772 38.1863 52.669 41.3886C51.8074 43.0469 51.1182 44.8196 50.2567 46.4779C49.2228 48.5937 48.0741 50.6524 46.868 52.711C43.4792 58.6009 39.8608 64.3193 36.07 69.9233C33.6003 73.5258 31.0731 77.0712 28.5459 80.6166C28.2587 81.0169 28.029 81.2456 27.6269 80.6166C25.8464 78.1577 24.0659 75.756 22.4003 73.2399C21.5962 72.0391 20.7346 70.8954 19.9305 69.7517C18.6669 67.8646 17.4033 65.9204 16.1397 64.0333C13.5551 60.2592 11.3151 56.3135 9.0177 52.3679C7.5818 49.8518 6.1459 47.2785 4.99719 44.5909C4.65257 43.7903 4.13565 43.1041 3.79103 42.3035C3.04436 40.7024 2.24026 39.1012 1.72334 37.3857C1.20642 35.6702 0.804365 33.9547 0.402314 32.2392C0.115134 30.9812 -0.0571733 29.7231 0.000262627 28.4651C0.0576985 26.3493 0.517186 24.2335 0.976673 22.1749C1.78078 18.6295 3.21667 15.37 5.39924 12.4536C8.09872 8.79388 11.43 5.87751 15.508 3.87609C18.3223 2.50368 21.309 1.58874 24.4105 1.18845C25.0997 1.07408 25.8464 1.13127 26.5356 0.959717H29.8095C30.9582 1.36 32.1644 1.30282 33.3131 1.53155C37.4485 2.33213 41.1818 3.93327 44.5705 6.39217C48.189 9.02262 51.1182 12.3393 53.071 16.3993C54.2772 18.9154 55.2536 21.5458 55.5982 24.3479C55.7131 25.1484 55.8279 25.8918 55.9428 26.6924C55.9428 26.8639 55.8279 27.0927 56.0003 27.207V30.5809C56.0003 30.5809 55.8854 31.0383 55.9428 31.2671ZM28.4885 44.0762C33.0259 44.305 36.7592 42.0748 39.8033 38.5866C42.8474 35.0984 43.9962 30.8096 43.2495 26.2349C42.6751 22.6323 40.8372 19.6016 38.0228 17.2571C34.2895 14.112 29.9244 12.9683 25.1572 13.826C19.6433 14.741 12.1767 20.0019 12.751 30.0662C13.1531 37.3286 19.7008 44.3621 28.4885 44.1334V44.0762Z" fill="white"/>
</g>
<defs>
<clipPath id="clip0_557_74869">
<rect width="56" height="80" fill="white" transform="translate(0 0.959717)"/>
</clipPath>
</defs>
</svg>
