<svg width="25" height="24" viewBox="0 0 25 24" fill="none" xmlns="http://www.w3.org/2000/svg">
<path fill-rule="evenodd" clip-rule="evenodd" d="M4.98438 0C2.77524 0 0.984375 1.79086 0.984375 4V19.218C0.984375 21.4272 2.77524 23.218 4.98438 23.218H20.2024C22.4115 23.218 24.2024 21.4272 24.2024 19.218V4C24.2024 1.79086 22.4115 0 20.2024 0H4.98438ZM18.6256 9.25679C18.6256 10.6781 17.9171 11.8104 16.8131 12.638L20.1183 18.3127H15.8744L13.4448 13.5592H9.71766V18.3127L6.09151 18.2861L6.08691 4.28125L13.7642 4.30895C16.4486 4.30895 18.6256 6.14273 18.6256 8.63857V9.25679ZM12.9836 10.6449C14.053 10.6449 14.9203 10.0808 14.9203 9.08696V8.97395C14.9203 7.97983 14.053 7.28167 12.9836 7.28167H9.71783V10.6449H12.9836Z" fill="white"/>
</svg>
