<svg xmlns="http://www.w3.org/2000/svg" xmlns:xlink="http://www.w3.org/1999/xlink"><defs>
<clipPath id="clip0_557_74869">
<rect width="56" height="80" fill="white" transform="translate(0 0.959717)"/>
</clipPath>
</defs><symbol id="arrow-left" viewBox="0 0 78 78">
<path d="M38.4672 8.02115e-07L0 38.4672L38.5827 77.0498C59.8374 55.7951 59.7743 21.3072 38.4672 8.02115e-07Z" fill="#3B3393"/>
<path d="M19.1464 38.1464C18.9512 38.3417 18.9512 38.6583 19.1464 38.8536L22.3284 42.0355C22.5237 42.2308 22.8403 42.2308 23.0355 42.0355C23.2308 41.8403 23.2308 41.5237 23.0355 41.3284L20.2071 38.5L23.0355 35.6716C23.2308 35.4763 23.2308 35.1597 23.0355 34.9645C22.8403 34.7692 22.5237 34.7692 22.3284 34.9645L19.1464 38.1464ZM40 38L19.5 38L19.5 39L40 39L40 38Z" fill="white"/>
</symbol><symbol id="arrow-right" viewBox="0 0 78 78">
<path d="M38.5826 77.0498L77.0498 38.5826L38.4671 -4.54098e-05C17.2124 21.2547 17.2755 55.7426 38.5826 77.0498Z" fill="#3B3393"/>
<path d="M57.9034 38.9034C58.0986 38.7081 58.0986 38.3915 57.9034 38.1963L54.7214 35.0143C54.5261 34.819 54.2095 34.819 54.0143 35.0143C53.819 35.2095 53.819 35.5261 54.0143 35.7214L56.8427 38.5498L54.0143 41.3782C53.819 41.5735 53.819 41.8901 54.0143 42.0853C54.2095 42.2806 54.5261 42.2806 54.7214 42.0853L57.9034 38.9034ZM37.0498 39.0498L57.5498 39.0498L57.5498 38.0498L37.0498 38.0498L37.0498 39.0498Z" fill="white"/>
</symbol><symbol id="minus" viewBox="0 0 55 56">
<path d="M27.5 56C42.6878 56 55 43.464 55 28C55 12.536 42.6878 0 27.5 0C12.3122 0 0 12.536 0 28C0 43.464 12.3122 56 27.5 56Z" fill="#3B3393"/>
<path d="M43.5 27.75L12 27.75" stroke="white" stroke-width="3" stroke-linecap="round"/>
</symbol><symbol id="pin" viewBox="0 0 56 81">
<g clip-path="url(#clip0_557_74869)">
<path d="M55.9428 31.2671C55.4833 34.8125 54.2772 38.1863 52.669 41.3886C51.8074 43.0469 51.1182 44.8196 50.2567 46.4779C49.2228 48.5937 48.0741 50.6524 46.868 52.711C43.4792 58.6009 39.8608 64.3193 36.07 69.9233C33.6003 73.5258 31.0731 77.0712 28.5459 80.6166C28.2587 81.0169 28.029 81.2456 27.6269 80.6166C25.8464 78.1577 24.0659 75.756 22.4003 73.2399C21.5962 72.0391 20.7346 70.8954 19.9305 69.7517C18.6669 67.8646 17.4033 65.9204 16.1397 64.0333C13.5551 60.2592 11.3151 56.3135 9.0177 52.3679C7.5818 49.8518 6.1459 47.2785 4.99719 44.5909C4.65257 43.7903 4.13565 43.1041 3.79103 42.3035C3.04436 40.7024 2.24026 39.1012 1.72334 37.3857C1.20642 35.6702 0.804365 33.9547 0.402314 32.2392C0.115134 30.9812 -0.0571733 29.7231 0.000262627 28.4651C0.0576985 26.3493 0.517186 24.2335 0.976673 22.1749C1.78078 18.6295 3.21667 15.37 5.39924 12.4536C8.09872 8.79388 11.43 5.87751 15.508 3.87609C18.3223 2.50368 21.309 1.58874 24.4105 1.18845C25.0997 1.07408 25.8464 1.13127 26.5356 0.959717H29.8095C30.9582 1.36 32.1644 1.30282 33.3131 1.53155C37.4485 2.33213 41.1818 3.93327 44.5705 6.39217C48.189 9.02262 51.1182 12.3393 53.071 16.3993C54.2772 18.9154 55.2536 21.5458 55.5982 24.3479C55.7131 25.1484 55.8279 25.8918 55.9428 26.6924C55.9428 26.8639 55.8279 27.0927 56.0003 27.207V30.5809C56.0003 30.5809 55.8854 31.0383 55.9428 31.2671ZM28.4885 44.0762C33.0259 44.305 36.7592 42.0748 39.8033 38.5866C42.8474 35.0984 43.9962 30.8096 43.2495 26.2349C42.6751 22.6323 40.8372 19.6016 38.0228 17.2571C34.2895 14.112 29.9244 12.9683 25.1572 13.826C19.6433 14.741 12.1767 20.0019 12.751 30.0662C13.1531 37.3286 19.7008 44.3621 28.4885 44.1334V44.0762Z" fill="white"/>
</g>

</symbol><symbol id="plus" viewBox="0 0 55 56">
<path d="M27.5 56C42.6878 56 55 43.464 55 28C55 12.536 42.6878 0 27.5 0C12.3122 0 0 12.536 0 28C0 43.464 12.3122 56 27.5 56Z" fill="#3B3393"/>
<path d="M27.75 12V43.5" stroke="white" stroke-width="3" stroke-linecap="round"/>
<path d="M43.5 27.75L12 27.75" stroke="white" stroke-width="3" stroke-linecap="round"/>
</symbol><symbol id="rutube" viewBox="0 0 25 24">
<path fill-rule="evenodd" clip-rule="evenodd" d="M4.98438 0C2.77524 0 0.984375 1.79086 0.984375 4V19.218C0.984375 21.4272 2.77524 23.218 4.98438 23.218H20.2024C22.4115 23.218 24.2024 21.4272 24.2024 19.218V4C24.2024 1.79086 22.4115 0 20.2024 0H4.98438ZM18.6256 9.25679C18.6256 10.6781 17.9171 11.8104 16.8131 12.638L20.1183 18.3127H15.8744L13.4448 13.5592H9.71766V18.3127L6.09151 18.2861L6.08691 4.28125L13.7642 4.30895C16.4486 4.30895 18.6256 6.14273 18.6256 8.63857V9.25679ZM12.9836 10.6449C14.053 10.6449 14.9203 10.0808 14.9203 9.08696V8.97395C14.9203 7.97983 14.053 7.28167 12.9836 7.28167H9.71783V10.6449H12.9836Z" fill="white"/>
</symbol><symbol id="tg" viewBox="0 0 25 24">
<path fill-rule="evenodd" clip-rule="evenodd" d="M4.99219 0C2.78305 0 0.992188 1.79086 0.992188 4V19.218C0.992188 21.4272 2.78305 23.218 4.99219 23.218H20.2102C22.4194 23.218 24.2102 21.4272 24.2102 19.218V4C24.2102 1.79086 22.4194 0 20.2102 0H4.99219ZM7.96205 12.395L3.85637 11.0161C3.43884 10.8907 3.43884 10.3266 3.85637 10.2012L20.7662 4.3094C21.1141 4.18404 21.462 4.49743 21.3924 4.81083L18.3306 17.9735C18.261 18.2868 17.8435 18.4122 17.5651 18.2242L13.4595 15.529C13.1811 15.3409 12.8332 15.3409 12.6244 15.529L10.328 17.2213C10.0497 17.4093 9.63214 17.3467 9.56256 17.0333L7.96205 12.395ZM17.4259 7.25532L9.3538 11.7055C9.00587 11.8309 8.86667 12.207 9.07544 12.5204L9.91049 15.2782C9.98008 15.529 10.328 15.4663 10.328 15.2782L10.5368 13.7739C10.5368 13.4606 10.7455 13.2098 10.9543 13.0218L17.5651 7.44336C17.7043 7.38068 17.5651 7.19264 17.4259 7.25532Z" fill="white"/>
</symbol><symbol id="vk" viewBox="0 0 24 24">
<path fill-rule="evenodd" clip-rule="evenodd" d="M4 0C1.79086 0 0 1.79086 0 4V19.218C0 21.4272 1.79086 23.218 4 23.218H19.218C21.4272 23.218 23.218 21.4272 23.218 19.218V4C23.218 1.79086 21.4272 0 19.218 0H4ZM3.73246 6.57646C3.86957 13.1685 7.1602 17.1301 12.9294 17.1301H13.2565V13.3587C15.3765 13.57 16.9795 15.1229 17.6228 17.1301H20.6183C19.7956 14.1299 17.6334 12.4713 16.2834 11.8374C17.6334 11.0557 19.5318 9.15413 19.9854 6.57646H17.2642C16.6735 8.66818 14.9229 10.5697 13.2565 10.7493V6.57646H10.5353V13.8869C8.84773 13.4643 6.71728 11.4149 6.62235 6.57646H3.73246Z" fill="white"/>
</symbol></svg>