<svg width="674" height="669" viewBox="0 0 674 669" fill="none" xmlns="http://www.w3.org/2000/svg">
<path d="M373.56 143.976C259.235 97.9827 129.271 153.377 83.2779 267.703C37.2849 382.028 92.6794 511.992 207.005 557.985C321.331 603.978 451.294 548.584 497.287 434.258C543.28 319.932 487.886 189.969 373.56 143.976Z" fill="#E1AC54"/>
<path d="M432.189 147.699C519.057 112.587 618.303 155.466 653.967 243.63L339.492 370.778C303.828 282.614 345.321 182.811 432.189 147.699Z" fill="#3B3393"/>
<path d="M507.396 303.04L339.492 370.778C307.878 292.564 337.277 204.806 405.062 161.749C463.391 200.247 490.666 251.214 507.396 303.04Z" fill="#EE2C3C"/>
</svg>
