<svg width="501" height="385" viewBox="0 0 501 385" fill="none" xmlns="http://www.w3.org/2000/svg">
<path d="M265.501 341.322C336.607 341.322 394.249 283.68 394.249 212.574C394.249 141.469 336.607 83.8262 265.501 83.8262C194.395 83.8262 136.753 141.469 136.753 212.574C136.753 283.68 194.395 341.322 265.501 341.322Z" fill="#E1AC54"/>
<path d="M66.457 83.9666L60.624 91.6147L443.62 383.715L449.453 376.067L66.457 83.9666Z" fill="#EE2C3C"/>
<path d="M152.588 149.384L343.934 295.298L338.014 302.993L148.296 158.263L152.588 149.384Z" fill="#3B3393"/>
<path d="M5.83303 -0.000200425L0 7.64795L494.776 385L500.61 377.352L5.83303 -0.000200425Z" fill="#EE2C3C"/>
<path d="M169.89 125.184L164.057 132.833L363.144 284.671L368.977 277.023L169.89 125.184Z" fill="#3B3393"/>
<path d="M102.684 34.407L96.8506 42.0552L485.847 338.732L491.68 331.084L102.684 34.407Z" fill="#EE2C3C"/>
<path d="M186.328 110.168L193.431 103.36L375.011 241.875L369.091 249.571L186.328 110.168Z" fill="#3B3393"/>
</svg>
