<svg width="47" height="64" viewBox="0 0 47 64" fill="none" xmlns="http://www.w3.org/2000/svg">
<g clip-path="url(#clip0_557_74497)">
<path d="M13.85 12.07V9.66H16.96V12.55C16.96 16.72 15.1 20.5 12.11 23.25C10.47 24.75 8.49004 25.95 6.29004 26.72V23.61C7.64004 23.01 8.86004 22.2 9.91004 21.24C12.34 19.01 13.84 15.94 13.84 12.56V12.08L13.85 12.07ZM29.11 12.07V9.66H32.22V12.55C32.22 15.93 33.73 19 36.15 21.23C37.21 22.2 38.44 23.01 39.79 23.61V26.72C37.58 25.95 35.59 24.76 33.95 23.25C30.96 20.51 29.1 16.72 29.1 12.55V12.07H29.11ZM6.29004 31.82C9.87004 30.89 13.07 29.12 15.63 26.77C17.56 25 19.12 22.9 20.21 20.57C20.92 22.49 21.86 24.28 23.03 25.97C24.16 24.51 25.06 22.6 25.87 20.57C26.96 22.9 28.52 25 30.45 26.76C33.01 29.11 36.21 30.88 39.79 31.81V28.82C37.08 27.98 34.64 26.57 32.65 24.74C29.32 21.68 27.25 17.47 27.25 12.83V0H24.14V12.84C24.14 15.1 23.75 17.73 23.04 19.78C22.32 17.73 21.94 15.1 21.94 12.84V0H18.83V12.84C18.83 17.47 16.76 21.69 13.43 24.75C11.44 26.57 9.00004 27.99 6.29004 28.83V31.82ZM19.96 25.05C19.16 26.1 18.27 27.08 17.29 27.98C14.3 30.72 10.52 32.73 6.29004 33.67V36.6C11.38 35.61 15.93 33.26 19.49 29.99C20.25 29.29 20.96 28.55 21.63 27.77L21.52 27.61C20.96 26.78 20.43 25.92 19.96 25.03M24.56 27.87C25.2 28.61 25.88 29.31 26.61 29.98C30.16 33.24 34.72 35.59 39.8 36.58V33.65C35.58 32.7 31.79 30.7 28.81 27.96C27.87 27.1 27.01 26.16 26.23 25.16C25.77 26 25.27 26.82 24.73 27.61C24.67 27.7 24.61 27.78 24.55 27.87" fill="#E51F2F"/>
<path d="M2.65027 49.8C2.98027 48.12 3.40027 46.25 3.60027 44.55H5.27027V52.4H4.18027V49.29L4.31027 46.48C4.15027 47.38 3.54027 50.71 2.77027 52.31H2.54027C1.76027 50.72 1.15027 47.39 1.00027 46.48L1.13027 49.29V52.4H0.0302734V44.55H1.70027C1.90027 46.24 2.32027 48.12 2.65027 49.8ZM27.8403 45.92V46.88C27.8403 47.51 27.5703 47.96 27.1503 48.26C27.6103 48.61 27.8403 49.15 27.8403 49.82V52.39C27.0803 52.39 26.3303 52.39 25.5703 52.39H24.3303V44.54H25.5703C26.3303 44.54 27.0803 44.54 27.8403 44.54V45.92ZM25.5703 48.89V51.27H26.5903C26.5903 50.76 26.5903 50.25 26.5903 49.74C26.5903 48.94 26.0303 48.86 25.5703 48.89ZM25.5703 45.66V47.77C26.0303 47.79 26.5903 47.77 26.5903 46.97V46.26V45.67H25.5703V45.66ZM21.0003 52.39H19.7603V44.54H23.4503V52.39H21.0003ZM22.1803 45.66H21.0203V51.27H22.1803V45.66ZM7.39027 52.39H6.15027V44.54H9.84027V52.39H7.39027ZM8.57027 45.66H7.41027V51.27H8.57027V45.66ZM29.9103 52.39H28.6703V44.54H32.3603V47.69H31.0903V45.66H29.9103V51.27H31.0903V49.24H32.3603V52.39H29.9103ZM11.9603 52.39H10.7203V44.54H14.4103V47.69H13.1403V45.66H11.9603V51.27H13.1403V49.24H14.4103V52.39H11.9603ZM34.4803 52.4H33.2403V44.55H34.4803V47.63H34.6903C35.3603 47.63 35.5803 46.92 35.5803 46.4V44.55H36.8203V46.35C36.8203 47.18 36.5003 47.8 35.8903 48.2C36.5603 48.65 36.8203 49.22 36.8203 50.05V52.41H35.5803V50C35.5803 49.49 35.3303 48.88 34.7003 48.88H34.4803V52.41V52.4ZM45.5503 43.61H42.8103V42.69H45.5503V43.61ZM42.3003 52.4V44.55H43.4103V49.14L44.6903 44.55H46.0803V52.4H44.9603V46.94L43.4303 52.41H42.3003V52.4ZM37.6503 52.4V44.55H38.7603V49.14L40.0403 44.55H41.4303V52.4H40.3103V46.94L38.7803 52.41H37.6503V52.4ZM16.5403 52.4H15.3003V44.55H16.5403V47.63H16.7503C17.4203 47.63 17.6403 46.92 17.6403 46.4V44.55H18.8803V46.35C18.8803 47.18 18.5603 47.8 17.9503 48.2C18.6203 48.65 18.8803 49.22 18.8803 50.05V52.41H17.6403V50C17.6403 49.49 17.3903 48.88 16.7603 48.88H16.5403V52.41V52.4Z" fill="#E51F2F"/>
<path d="M18.1801 63.32H16.9401V55.47H20.6301V63.32H19.3601V56.59H18.1801V63.32ZM13.6101 63.32H12.3701V55.47H16.0601V58.62H14.7901V56.59H13.6101V62.2H14.7901V60.17H16.0601V63.32H13.6101ZM22.7401 63.32H21.5001V55.47H25.1901V63.32H22.7401ZM23.9201 56.59H22.7601V62.2H23.9201V56.59ZM29.8901 55.47H33.7301V56.59H32.4301V63.32H31.1901V56.59H29.8901V55.47ZM29.5501 58.2V59.16C29.5501 60.37 28.9001 61.21 27.7001 61.21H27.2901V63.32H26.0501V55.47C27.2201 55.47 28.3901 55.47 29.5601 55.47V58.2H29.5501ZM27.2801 56.6V60.1C27.7401 60.12 28.3001 60.05 28.3001 59.25V58.54V56.61H27.2801V56.6Z" fill="#E51F2F"/>
</g>
<defs>
<clipPath id="clip0_557_74497">
<rect width="46.04" height="63.32" fill="white" transform="translate(0.0302734)"/>
</clipPath>
</defs>
</svg>
