<svg class="map__scheme" width="1797" height="988" viewBox="0 0 1797 988" fill="none" xmlns="http://www.w3.org/2000/svg">
    <g id="Group 37539">
        <g class="figure 23" id="figure 23">
            <rect id="Rectangle 372" x="473.5" y="466.5" width="51" height="22" fill="white" stroke="#E51F2F" stroke-width="5" />
            <path
                id="23"
                d="M498.203 470.92C498.203 470.38 497.843 470 497.283 470H493.423C492.863 470 492.503 470.38 492.503 470.92V474H494.603V472H496.103V474L492.503 481.1V484H498.203V482H494.603V481.38L498.203 474.28V470.92ZM504.482 484C505.042 484 505.402 483.62 505.402 483.08V475.96C505.402 475.42 505.042 475.04 504.482 475.04H503.382L505.302 471.8V470H499.802V472H503.102L501.202 475.18V477.04H503.302V482H501.802V479.4H499.702V483.08C499.702 483.62 500.062 484 500.622 484H504.482Z"
                fill="#E51F2F"
            />
        </g>
        <g class="figure 24" id="figure 24">
            <rect id="Rectangle 373" x="491.5" y="501.5" width="29" height="23" fill="white" stroke="#E51F2F" stroke-width="5" />
            <path
                id="24"
                d="M505.047 506.92C505.047 506.38 504.687 506 504.127 506H500.267C499.707 506 499.347 506.38 499.347 506.92V510H501.447V508H502.947V510L499.347 517.1V520H505.047V518H501.447V517.38L505.047 510.28V506.92ZM511.946 520V517.4H512.746V515.4H511.946V513.2L509.846 513.6V515.4H508.606L511.306 506H509.106L506.346 515.6V517.4H509.846V520H511.946Z"
                fill="#E51F2F"
            />
        </g>
        <!-- <g class="figure 33"  id="figure 33">
            <rect id="Rectangle 375" x="399.5" y="653.5" width="128" height="61" fill="white" stroke="#E51F2F" stroke-width="5" />
            <path
                id="33"
                d="M462.285 690H458.425C457.865 690 457.505 689.62 457.505 689.08V685.4H459.605V688H461.105V683.04H459.005V681.18L460.905 678H457.605V676H463.105V677.8L461.185 681.04H462.285C462.845 681.04 463.205 681.42 463.205 681.96V689.08C463.205 689.62 462.845 690 462.285 690ZM469.58 690H465.72C465.16 690 464.8 689.62 464.8 689.08V685.4H466.9V688H468.4V683.04H466.3V681.18L468.2 678H464.9V676H470.4V677.8L468.48 681.04H469.58C470.14 681.04 470.5 681.42 470.5 681.96V689.08C470.5 689.62 470.14 690 469.58 690Z"
                fill="#E51F2F"
            />
        </g> -->
        <g class="figure 25"  id="figure 25">
            <rect id="Rectangle 382" x="578.988" y="498.425" width="45.0406" height="27.3872" transform="rotate(59.3556 578.988 498.425)" fill="white" stroke="#E51F2F" stroke-width="5" />
            <path
                id="25"
                d="M577.614 518.381C577.614 517.841 577.254 517.461 576.694 517.461H572.834C572.274 517.461 571.914 517.841 571.914 518.381V521.461H574.014V519.461H575.514V521.461L571.914 528.561V531.461H577.614V529.461H574.014V528.841L577.614 521.741V518.381ZM582.713 524.061V529.461H581.213V526.861H579.113V530.541C579.113 531.081 579.473 531.461 580.033 531.461H583.893C584.453 531.461 584.813 531.081 584.813 530.541V522.981C584.813 522.441 584.453 522.061 583.893 522.061H581.213V519.461H584.713V517.461H579.113V524.861H581.213V524.061H582.713Z"
                fill="#E51F2F"
            />
        </g>
        <g class="figure 26"  id="figure 26">
            <rect id="Rectangle 382_2" x="670.963" y="529.998" width="39.5315" height="26.8118" transform="rotate(127.951 670.963 529.998)" fill="white" stroke="#E51F2F" stroke-width="5" />
            <path
                id="26"
                d="M646.614 531.381V534.741L643.014 541.841V542.461H646.614V544.461H640.914V541.561L644.514 534.461V532.461H643.014V534.461H640.914V531.381C640.914 530.841 641.274 530.461 641.834 530.461H645.694C646.254 530.461 646.614 530.841 646.614 531.381ZM651.713 537.861H650.213V542.461H651.713V537.861ZM653.813 531.381V534.461H651.713V532.461H650.213V535.861H652.893C653.453 535.861 653.813 536.241 653.813 536.781V543.541C653.813 544.081 653.453 544.461 652.893 544.461H649.033C648.473 544.461 648.113 544.081 648.113 543.541V531.381C648.113 530.841 648.473 530.461 649.033 530.461H652.893C653.453 530.461 653.813 530.841 653.813 531.381Z"
                fill="#E51F2F"
            />
        </g>
        <g class="figure 28"  id="figure 28">
            <rect id="Rectangle 381" x="645.478" y="582.409" width="44.0053" height="24.4231" transform="rotate(29.6155 645.478 582.409)" fill="white" stroke="#E51F2F" stroke-width="5" />
            <path
                id="28"
                d="M657.752 598.101V601.461L654.152 608.561V609.181H657.752V611.181H652.052V608.281L655.652 601.181V599.181H654.152V601.181H652.052V598.101C652.052 597.561 652.412 597.181 652.972 597.181H656.832C657.392 597.181 657.752 597.561 657.752 598.101ZM664.951 605.141V610.261C664.951 610.801 664.591 611.181 664.031 611.181H660.171C659.611 611.181 659.251 610.801 659.251 610.261V605.141C659.251 604.321 659.631 603.801 660.251 603.581C659.631 603.361 659.251 602.821 659.251 602.021V598.101C659.251 597.561 659.611 597.181 660.171 597.181H664.031C664.591 597.181 664.951 597.561 664.951 598.101V602.021C664.951 602.821 664.571 603.361 663.931 603.581C664.571 603.801 664.951 604.321 664.951 605.141ZM662.851 604.581H661.351V609.181H662.851V604.581ZM661.351 602.581H662.851V599.181H661.351V602.581Z"
                fill="#E51F2F"
            />
        </g>
        <g class="figure 1"  id="figure 1">
            <rect id="Rectangle 376" x="750.5" y="694.5" width="21" height="21" fill="white" stroke="#E51F2F" stroke-width="5" />
            <path id="1" d="M759.349 700H760.249V712H762.349V698H759.349V700Z" fill="#E51F2F" />
        </g>
        <g class="figure 1" id="figure 1-2">
            <rect id="f1" x="311.5" y="346.5" width="24" height="22" fill="white" stroke="#E51F2F" stroke-width="5" />
            <path id="l1" d="M322.349 352H323.249V364H325.349V350H322.349V352Z" fill="#E51F2F" />
            <path id="Vector 12" d="M316 340L293 305" stroke="#E51F2F" />
        </g>
        <g class="figure 2" id="figure 2">
            <rect id="Rectangle 377" x="779.5" y="694.5" width="21" height="21" fill="white" stroke="#E51F2F" stroke-width="5" />
            <path id="2" d="M792.85 698.92C792.85 698.38 792.49 698 791.93 698H788.07C787.51 698 787.15 698.38 787.15 698.92V702H789.25V700H790.75V702L787.15 709.1V712H792.85V710H789.25V709.38L792.85 702.28V698.92Z" fill="#E51F2F" />
        </g>
        <g class="figure 3" id="figure 3">
            <rect id="Rectangle 378" x="750.5" y="663.5" width="50" height="23" fill="white" stroke="#E51F2F" stroke-width="5" />
            <path
                id="3"
                d="M777.933 682C778.493 682 778.853 681.62 778.853 681.08V673.96C778.853 673.42 778.493 673.04 777.933 673.04H776.833L778.753 669.8V668H773.253V670H776.553L774.653 673.18V675.04H776.753V680H775.253V677.4H773.153V681.08C773.153 681.62 773.513 682 774.073 682H777.933Z"
                fill="#E51F2F"
            />
        </g>
        <g class="figure 4" id="figure 4">
            <rect id="Rectangle 379" x="750.5" y="612.5" width="50" height="43" fill="white" stroke="#E51F2F" stroke-width="5" />
            <path id="4" d="M778.396 641V638.4H779.196V636.4H778.396V634.2L776.296 634.6V636.4H775.056L777.756 627H775.556L772.796 636.6V638.4H776.296V641H778.396Z" fill="#E51F2F" />
        </g>
        <g class="figure 5" id="figure 5">
            <rect id="Rectangle 380" x="750.5" y="581.5" width="50" height="23" fill="white" stroke="#E51F2F" stroke-width="5" />
            <path
                id="5"
                d="M776.753 592.6V598H775.253V595.4H773.153V599.08C773.153 599.62 773.513 600 774.073 600H777.933C778.493 600 778.853 599.62 778.853 599.08V591.52C778.853 590.98 778.493 590.6 777.933 590.6H775.253V588H778.753V586H773.153V593.4H775.253V592.6H776.753Z"
                fill="#E51F2F"
            />
        </g>
        <g class="figure 19" id="figure 19">
            <rect id="Rectangle 386" x="592.5" y="396.5" width="24" height="25" fill="white" stroke="#E51F2F" stroke-width="5" />
            <path
                id="19"
                d="M599.702 404H600.602V416H602.702V402H599.702V404ZM606.504 408V404H608.004V408H606.504ZM604.404 409.08C604.404 409.62 604.764 410 605.324 410H608.004V414H606.504V411.4H604.404V415.08C604.404 415.62 604.764 416 605.324 416H609.184C609.744 416 610.104 415.62 610.104 415.08V402.92C610.104 402.38 609.744 402 609.184 402H605.324C604.764 402 604.404 402.38 604.404 402.92V409.08Z"
                fill="#E51F2F"
            />
        </g>
        <g class="figure 20" id="figure 20">
            <rect id="Rectangle 384" x="563.5" y="426.5" width="24" height="26" fill="white" stroke="#E51F2F" stroke-width="5" />
            <path
                id="20"
                d="M575.203 433.92C575.203 433.38 574.843 433 574.283 433H570.423C569.863 433 569.503 433.38 569.503 433.92V437H571.603V435H573.103V437L569.503 444.1V447H575.203V445H571.603V444.38L575.203 437.28V433.92ZM578.802 445V435H580.302V445H578.802ZM581.482 447C582.042 447 582.402 446.62 582.402 446.08V433.92C582.402 433.38 582.042 433 581.482 433H577.622C577.062 433 576.702 433.38 576.702 433.92V446.08C576.702 446.62 577.062 447 577.622 447H581.482Z"
                fill="#E51F2F"
            />
        </g>
        <g class="figure 22" id="figure 22">
            <rect id="Rectangle 383" x="592.5" y="457.5" width="24" height="25" fill="white" stroke="#E51F2F" stroke-width="5" />
            <path
                id="22"
                d="M603.301 463.92C603.301 463.38 602.941 463 602.381 463H598.521C597.961 463 597.601 463.38 597.601 463.92V467H599.701V465H601.201V467L597.601 474.1V477H603.301V475H599.701V474.38L603.301 467.28V463.92ZM610.4 463.92C610.4 463.38 610.04 463 609.48 463H605.62C605.06 463 604.7 463.38 604.7 463.92V467H606.8V465H608.3V467L604.7 474.1V477H610.4V475H606.8V474.38L610.4 467.28V463.92Z"
                fill="#E51F2F"
            />
        </g>
        <g class="figure 21" id="figure 21">
            <rect id="Rectangle 385" x="621.5" y="426.5" width="25" height="26" fill="white" stroke="#E51F2F" stroke-width="5" />
            <path
                id="21"
                d="M634.6 433.92C634.6 433.38 634.24 433 633.68 433H629.82C629.26 433 628.9 433.38 628.9 433.92V437H631V435H632.5V437L628.9 444.1V447H634.6V445H631V444.38L634.6 437.28V433.92ZM635.899 435H636.799V447H638.899V433H635.899V435Z"
                fill="#E51F2F"
            />
        </g>
        <g class="figure 29" id="figure 29">
            <path class="rect"  id="Rectangle 404" d="M729 365.5H748.5V431.5H729C713.812 431.5 701.5 419.188 701.5 404V393C701.5 377.812 713.812 365.5 729 365.5Z" fill="white" stroke="#E51F2F" stroke-width="5" />
            <path
                id="29"
                d="M724.203 392.92V396.28L720.603 403.38V404H724.203V406H718.503V403.1L722.103 396V394H720.603V396H718.503V392.92C718.503 392.38 718.863 392 719.423 392H723.283C723.843 392 724.203 392.38 724.203 392.92ZM727.802 398H729.302V394H727.802V398ZM725.702 399.08V392.92C725.702 392.38 726.062 392 726.622 392H730.482C731.042 392 731.402 392.38 731.402 392.92V405.08C731.402 405.62 731.042 406 730.482 406H726.622C726.062 406 725.702 405.62 725.702 405.08V401.4H727.802V404H729.302V400H726.622C726.062 400 725.702 399.62 725.702 399.08Z"
                fill="#E51F2F"
            />
        </g>
        <g class="figure 31" id="figure 31">
            <path class="rect"  id="Rectangle 405" d="M819 431.5L799.5 431.5L799.5 365.5L819 365.5C834.188 365.5 846.5 377.812 846.5 393L846.5 404C846.5 419.188 834.188 431.5 819 431.5Z" fill="white" stroke="#E51F2F" stroke-width="5" />
            <path
                id="31"
                d="M821.978 406H818.118C817.558 406 817.198 405.62 817.198 405.08V401.4H819.298V404H820.798V399.04H818.698V397.18L820.598 394H817.298V392H822.798V393.8L820.878 397.04H821.978C822.538 397.04 822.898 397.42 822.898 397.96V405.08C822.898 405.62 822.538 406 821.978 406ZM824.293 394V392H827.293V406H825.193V394H824.293Z"
                fill="#E51F2F"
            />
        </g>
        <g class="figure 6" id="figure 6-4">
            <rect id="Rectangle 387" x="630.363" y="365.26" width="22.335" height="22.0906" transform="rotate(-62.9793 630.363 365.26)" fill="white" stroke="#E51F2F" stroke-width="5" />
            <path
                id="6"
                d="M646.159 360.914V365.514H644.659V360.914H646.159ZM648.259 354.434C648.259 353.894 647.899 353.514 647.339 353.514H643.479C642.919 353.514 642.559 353.894 642.559 354.434V366.594C642.559 367.134 642.919 367.514 643.479 367.514H647.339C647.899 367.514 648.259 367.134 648.259 366.594V359.834C648.259 359.294 647.899 358.914 647.339 358.914H644.659V355.514H646.159V357.514H648.259V354.434Z"
                fill="#E51F2F"
            />
        </g>
        <g class="figure 6" id="figure 6">
            <rect id="Rectangle 408" x="676.363" y="523.26" width="22.335" height="22.0906" transform="rotate(-62.9793 676.363 523.26)" fill="white" stroke="#E51F2F" stroke-width="5" />
            <path
                id="6_2"
                d="M691.753 518.4V523H690.253V518.4H691.753ZM693.853 511.92C693.853 511.38 693.493 511 692.933 511H689.073C688.513 511 688.153 511.38 688.153 511.92V524.08C688.153 524.62 688.513 525 689.073 525H692.933C693.493 525 693.853 524.62 693.853 524.08V517.32C693.853 516.78 693.493 516.4 692.933 516.4H690.253V513H691.753V515H693.853V511.92Z"
                fill="#E51F2F"
            />
        </g>
        <g class="figure 6" id="figure 6-2">
            <rect id="Rectangle 409" x="874.363" y="496.26" width="22.335" height="22.0906" transform="rotate(-62.9793 874.363 496.26)" fill="white" stroke="#E51F2F" stroke-width="5" />
            <path
                id="6_3"
                d="M889.753 491.4V496H888.253V491.4H889.753ZM891.853 484.92C891.853 484.38 891.493 484 890.933 484H887.073C886.513 484 886.153 484.38 886.153 484.92V497.08C886.153 497.62 886.513 498 887.073 498H890.933C891.493 498 891.853 497.62 891.853 497.08V490.32C891.853 489.78 891.493 489.4 890.933 489.4H888.253V486H889.753V488H891.853V484.92Z"
                fill="#E51F2F"
            />
        </g>
        <g class="figure 7" id="figure 7">
            <rect id="Rectangle 394" x="865.524" y="529.676" width="23.3641" height="21.0806" transform="rotate(-40.429 865.524 529.676)" fill="white" stroke="#E51F2F" stroke-width="5" />
            <path id="7" d="M880.251 538.073H882.351V531.673L884.091 525.873V524.073H878.491V526.073H881.931L880.251 531.673V538.073Z" fill="#E51F2F" />
        </g>
        <g class="figure 8" id="figure 8-1">
            <rect id="Rectangle 389" x="952.415" y="535.421" width="45.0406" height="27.3872" transform="rotate(-60 952.415 535.421)" fill="white" stroke="#E51F2F" stroke-width="5" />
            <path
                id="8"
                d="M978.306 524.406C978.306 523.586 977.926 523.066 977.286 522.846C977.926 522.626 978.306 522.086 978.306 521.286V517.366C978.306 516.826 977.946 516.446 977.386 516.446H973.526C972.966 516.446 972.606 516.826 972.606 517.366V521.286C972.606 522.086 972.986 522.626 973.606 522.846C972.986 523.066 972.606 523.586 972.606 524.406V529.526C972.606 530.066 972.966 530.446 973.526 530.446H977.386C977.946 530.446 978.306 530.066 978.306 529.526V524.406ZM976.206 523.846V528.446H974.706V523.846H976.206ZM974.706 521.846V518.446H976.206V521.846H974.706Z"
                fill="#E51F2F"
            />
        </g>
        <g class="figure 8" id="figure 8-2">
            <rect id="Rectangle 388" x="871.415" y="604.418" width="44.0053" height="24.4231" transform="rotate(-30 871.415 604.418)" fill="white" stroke="#E51F2F" stroke-width="5" />
            <path
                id="8_2"
                d="M899.681 604.551C899.681 603.731 899.301 603.211 898.661 602.991C899.301 602.771 899.681 602.231 899.681 601.431V597.511C899.681 596.971 899.321 596.591 898.761 596.591H894.901C894.341 596.591 893.981 596.971 893.981 597.511V601.431C893.981 602.231 894.361 602.771 894.981 602.991C894.361 603.211 893.981 603.731 893.981 604.551V609.671C893.981 610.211 894.341 610.591 894.901 610.591H898.761C899.321 610.591 899.681 610.211 899.681 609.671V604.551ZM897.581 603.991V608.591H896.081V603.991H897.581ZM896.081 601.991V598.591H897.581V601.991H896.081Z"
                fill="#E51F2F"
            />
        </g>
        <g class="figure 9" id="figure 9">
            <rect id="Rectangle 392" x="926.888" y="540.536" width="35.6687" height="21.6936" transform="rotate(45.0504 926.888 540.536)" fill="white" stroke="#E51F2F" stroke-width="5" />
            <path
                id="9"
                d="M931.456 560.403V556.403H932.956V560.403H931.456ZM929.356 561.483C929.356 562.023 929.716 562.403 930.276 562.403H932.956V566.403H931.456V563.803H929.356V567.483C929.356 568.023 929.716 568.403 930.276 568.403H934.136C934.696 568.403 935.056 568.023 935.056 567.483V555.323C935.056 554.783 934.696 554.403 934.136 554.403H930.276C929.716 554.403 929.356 554.783 929.356 555.323V561.483Z"
                fill="#E51F2F"
            />
        </g>
        <g class="figure 10" id="figure 10">
            <rect id="Rectangle 391" x="1025.5" y="560.5" width="120" height="54" rx="26.5" fill="white" stroke="#E51F2F" stroke-width="5" />
            <path
                id="10"
                d="M1080.7 582H1081.6V594H1083.7V580H1080.7V582ZM1087.5 592V582H1089V592H1087.5ZM1090.18 594C1090.74 594 1091.1 593.62 1091.1 593.08V580.92C1091.1 580.38 1090.74 580 1090.18 580H1086.32C1085.76 580 1085.4 580.38 1085.4 580.92V593.08C1085.4 593.62 1085.76 594 1086.32 594H1090.18Z"
                fill="#E51F2F"
            />
        </g>
        <g class="figure 12" id="figure 12">
            <rect id="Rectangle 399" x="1018.5" y="383.5" width="138" height="63" fill="white" stroke="#E51F2F" stroke-width="5" />
            <path
                id="12"
                d="M1082.8 410V408H1085.8V422H1083.7V410H1082.8ZM1093.1 408.92V412.28L1089.5 419.38V420H1093.1V422H1087.4V419.1L1091 412V410H1089.5V412H1087.4V408.92C1087.4 408.38 1087.76 408 1088.32 408H1092.18C1092.74 408 1093.1 408.38 1093.1 408.92Z"
                fill="#E51F2F"
            />
        </g>
        <g class="figure 13" id="figure 13">
            <rect id="Rectangle 398" x="970.5" y="416.5" width="19" height="25" fill="white" stroke="#E51F2F" stroke-width="5" />
            <path
                id="13"
                d="M974.702 424V422H977.702V436H975.602V424H974.702ZM984.184 436H980.324C979.764 436 979.404 435.62 979.404 435.08V431.4H981.504V434H983.004V429.04H980.904V427.18L982.804 424H979.504V422H985.004V423.8L983.084 427.04H984.184C984.744 427.04 985.104 427.42 985.104 427.96V435.08C985.104 435.62 984.744 436 984.184 436Z"
                fill="#E51F2F"
            />
        </g>
        <g class="figure 8" id="figure 8-3">
            <rect id="Rectangle 390" x="966.5" y="656.5" width="150" height="50" fill="white" stroke="#E51F2F" stroke-width="5" />
            <path
                id="8_3"
                d="M1044.85 681.96C1044.85 681.14 1044.47 680.62 1043.83 680.4C1044.47 680.18 1044.85 679.64 1044.85 678.84V674.92C1044.85 674.38 1044.49 674 1043.93 674H1040.07C1039.51 674 1039.15 674.38 1039.15 674.92V678.84C1039.15 679.64 1039.53 680.18 1040.15 680.4C1039.53 680.62 1039.15 681.14 1039.15 681.96V687.08C1039.15 687.62 1039.51 688 1040.07 688H1043.93C1044.49 688 1044.85 687.62 1044.85 687.08V681.96ZM1042.75 681.4V686H1041.25V681.4H1042.75ZM1041.25 679.4V676H1042.75V679.4H1041.25Z"
                fill="#E51F2F"
            />
        </g>
        <g class="figure 6" id="figure 6-3">
            <rect id="Rectangle 410" x="861.518" y="326.797" width="22.335" height="22.0906" transform="rotate(-50.6818 861.518 326.797)" fill="white" stroke="#E51F2F" stroke-width="5" />
            <path
                id="6_4"
                d="M877.616 325.227V329.827H876.116V325.227H877.616ZM879.716 318.747C879.716 318.207 879.356 317.827 878.796 317.827H874.936C874.376 317.827 874.016 318.207 874.016 318.747V330.907C874.016 331.447 874.376 331.827 874.936 331.827H878.796C879.356 331.827 879.716 331.447 879.716 330.907V324.147C879.716 323.607 879.356 323.227 878.796 323.227H876.116V319.827H877.616V321.827H879.716V318.747Z"
                fill="#E51F2F"
            />
        </g>
        <g class="figure 14" id="figure 14">
            <rect id="Rectangle 397" x="919.526" y="305.335" width="44.0053" height="24.4231" transform="rotate(-40.8939 919.526 305.335)" fill="white" stroke="#E51F2F" stroke-width="5" />
            <path
                id="14"
                d="M938.753 295.47V293.47H941.753V307.47H939.653V295.47H938.753ZM948.854 307.47H946.754V304.87H943.254V303.07L946.014 293.47H948.214L945.514 302.87H946.754V301.07L948.854 300.67V302.87H949.654V304.87H948.854V307.47Z"
                fill="#E51F2F"
            />
        </g>
        <g  class="figure 15" id="figure 15">
            <rect id="Rectangle 401" x="825.082" y="287.978" width="35.2648" height="23.8015" transform="rotate(12.3841 825.082 287.978)" fill="white" stroke="#E51F2F" stroke-width="5" />
            <path
                id="15"
                d="M834.348 297.92V295.92H837.348V309.92H835.248V297.92H834.348ZM842.65 302.52H841.15V303.32H839.05V295.92H844.65V297.92H841.15V300.52H843.83C844.39 300.52 844.75 300.9 844.75 301.44V309C844.75 309.54 844.39 309.92 843.83 309.92H839.97C839.41 309.92 839.05 309.54 839.05 309V305.32H841.15V307.92H842.65V302.52Z"
                fill="#E51F2F"
            />
        </g>
        <g  class="figure 18" id="figure 18">
            <rect id="Rectangle 400" x="602.967" y="275.532" width="44.0053" height="24.4231" transform="rotate(42.2943 602.967 275.532)" fill="white" stroke="#E51F2F" stroke-width="5" />
            <path
                id="18"
                d="M605.745 294.47V292.47H608.745V306.47H606.645V294.47H605.745ZM616.146 300.43V305.55C616.146 306.09 615.786 306.47 615.226 306.47H611.366C610.806 306.47 610.446 306.09 610.446 305.55V300.43C610.446 299.61 610.826 299.09 611.446 298.87C610.826 298.65 610.446 298.11 610.446 297.31V293.39C610.446 292.85 610.806 292.47 611.366 292.47H615.226C615.786 292.47 616.146 292.85 616.146 293.39V297.31C616.146 298.11 615.766 298.65 615.126 298.87C615.766 299.09 616.146 299.61 616.146 300.43ZM614.046 299.87H612.546V304.47H614.046V299.87ZM612.546 297.87H614.046V294.47H612.546V297.87Z"
                fill="#E51F2F"
            />
        </g>
        <g  class="figure 16" id="figure 16">
            <rect id="Rectangle 402" x="750.5" y="182.5" width="50" height="95" fill="white" stroke="#E51F2F" stroke-width="5" />
            <path
                id="16"
                d="M770.702 224.727V222.727H773.702V236.727H771.602V224.727H770.702ZM779.004 230.127H777.504V234.727H779.004V230.127ZM781.104 223.647V226.727H779.004V224.727H777.504V228.127H780.184C780.744 228.127 781.104 228.507 781.104 229.047V235.807C781.104 236.347 780.744 236.727 780.184 236.727H776.324C775.764 236.727 775.404 236.347 775.404 235.807V223.647C775.404 223.107 775.764 222.727 776.324 222.727H780.184C780.744 222.727 781.104 223.107 781.104 223.647Z"
                fill="#E51F2F"
            />
        </g>
        <g  class="figure 17" id="figure 17">
            <rect id="Rectangle 403" x="696.996" y="159.18" width="155.65" height="23.7935" transform="rotate(-9.13748 696.996 159.18)" fill="white" stroke="#E51F2F" stroke-width="5" />
            <path id="17" d="M771.152 154V152H774.152V166H772.052V154H771.152ZM777.214 166V159.6L778.894 154H775.454V152H781.054V153.8L779.314 159.6V166H777.214Z" fill="#E51F2F" />
        </g>
        <g  class="figure 27" id="figure 27">
            <rect id="Rectangle 374" x="409.5" y="561.5" width="121" height="54" rx="26.5" fill="white" stroke="#E51F2F" stroke-width="5" />
            <path
                id="27"
                d="M469.652 581.92V585.28L466.052 592.38V593H469.652V595H463.952V592.1L467.552 585V583H466.052V585H463.952V581.92C463.952 581.38 464.312 581 464.872 581H468.732C469.292 581 469.652 581.38 469.652 581.92ZM472.512 595V588.6L474.192 583H470.752V581H476.352V582.8L474.612 588.6V595H472.512Z"
                fill="#E51F2F"
            />
        </g>
        <g class="figure 30" id="figure 30">
            <rect id="Rectangle 441" x="756.5" y="365.5" width="35" height="66" fill="white" stroke="#E51F2F" stroke-width="5" />
            <path
                id="30"
                d="M772.231 406H768.371C767.811 406 767.451 405.62 767.451 405.08V401.4H769.551V404H771.051V399.04H768.951V397.18L770.851 394H767.551V392H773.051V393.8L771.131 397.04H772.231C772.791 397.04 773.151 397.42 773.151 397.96V405.08C773.151 405.62 772.791 406 772.231 406ZM776.846 404H778.346V394H776.846V404ZM779.526 406H775.666C775.106 406 774.746 405.62 774.746 405.08V392.92C774.746 392.38 775.106 392 775.666 392H779.526C780.086 392 780.446 392.38 780.446 392.92V405.08C780.446 405.62 780.086 406 779.526 406Z"
                fill="#E51F2F"
            />
        </g>
        <g  class="figure 32" id="figure 32">
            <rect id="Rectangle 441_2" x="756.5" y="508.5" width="41" height="21" fill="white" stroke="#E51F2F" stroke-width="5" />
            <path
                id="32"
                d="M775.329 526H771.469C770.909 526 770.549 525.62 770.549 525.08V521.4H772.649V524H774.149V519.04H772.049V517.18L773.949 514H770.649V512H776.149V513.8L774.229 517.04H775.329C775.889 517.04 776.249 517.42 776.249 517.96V525.08C776.249 525.62 775.889 526 775.329 526ZM783.444 512.92V516.28L779.844 523.38V524H783.444V526H777.744V523.1L781.344 516V514H779.844V516H777.744V512.92C777.744 512.38 778.104 512 778.664 512H782.524C783.084 512 783.444 512.38 783.444 512.92Z"
                fill="#E51F2F"
            />
        </g>
        <g  class="figure 11" id="figure 11">
            <rect id="Rectangle 441_3" x="1075.5" y="487.5" width="19" height="23.2648" fill="white" stroke="#E51F2F" stroke-width="5" />
            <path id="11" d="M1081.07 495.083V493.083H1084.07V507.083H1081.97V495.083H1081.07ZM1085.57 495.083V493.083H1088.57V507.083H1086.47V495.083H1085.57Z" fill="#E51F2F" />
        </g>
    </g>
</svg>
