<?xml version="1.0" encoding="utf-8"?>
<!-- Generator: Adobe Illustrator 24.1.0, SVG Export Plug-In . SVG Version: 6.00 Build 0)  -->
<svg version="1.1" id="Слой_1" xmlns="http://www.w3.org/2000/svg" xmlns:xlink="http://www.w3.org/1999/xlink" x="0px" y="0px"
	 viewBox="0 0 1679.9 1158.6" style="enable-background:new 0 0 1679.9 1158.6;" xml:space="preserve">
<style type="text/css">
	.st0{fill:#3A4067;}
</style>
<path class="st0" d="M432.1,922.2h87v-87h-73.8V0H115.9v428.1c0,122.5-5.3,299-67.2,407.1H0v87L432.1,922.2L432.1,922.2z
	 M202.9,428.2V87h155.4v748.3H144.9C196.3,708.8,202.9,557.3,202.9,428.2L202.9,428.2z"/>
<polygon class="st0" points="848.9,835.2 685.5,835.2 685.5,465 829.1,465 829.1,384.7 685.5,384.7 685.5,87 850.2,87 850.2,0 
	598.6,0 598.6,922.2 848.9,922.2 "/>
<polygon class="st0" points="1043.1,87 1199.8,87 1199.8,922.2 1286.8,922.2 1286.8,0 956.1,0 956.1,922.2 1043.1,922.2 "/>
<path class="st0" d="M1504.2,765.3h72.5c57.1,0,103.2-45.8,103.2-102.4V105.4c0-56.6-46.1-102.4-103.2-102.4h-72.5
	c-56,0-103.2,45.7-103.2,102.4v557.5C1401,719.5,1448.2,765.3,1504.2,765.3z M1473.5,105.4c0-16.3,14.3-30.5,30.7-30.5h72.5
	c16.5,0,30.7,14.2,30.7,30.5v557.6c0,16.9-13.8,30.5-30.6,30.5c0,0-0.1,0-0.1,0h-72.5c-16.9,0.1-30.6-13.5-30.7-30.4
	c0,0,0-0.1,0-0.1V105.4z"/>
<rect x="1401" y="847.9" class="st0" width="278.8" height="74.3"/>
<polygon class="st0" points="24.5,1153.8 45.7,1153.8 45.7,1053.2 70.2,1053.2 70.2,1033.8 0,1033.8 0,1053.2 24.5,1053.2 "/>
<path class="st0" d="M156.2,1033.9H118v120h21.2v-47.4h17c11.7,0,20.6-2.9,26.7-8.8s9.1-14.4,9.1-25.8v-3.7
	c0-11.1-3.1-19.6-9.2-25.5C176.6,1036.8,167.8,1033.9,156.2,1033.9z M170.8,1071.9c0,5.4-1.4,9.2-4.2,11.6
	c-2.8,2.4-6.8,3.6-12.1,3.6h-15.4v-33.8h15.4c10.8,0,16.3,5,16.3,15V1071.9z"/>
<polygon class="st0" points="263.5,1109.4 263.5,1033.8 242.7,1033.8 242.7,1153.8 264.6,1153.8 295.3,1078.1 295.3,1153.8 
	316.2,1153.8 316.2,1033.8 294.6,1033.8 "/>
<path class="st0" d="M521,1067.7v-3.7c0-9.5-3-16.9-9-22.2c-6-5.3-14.4-8-25.2-8h-36.8v120h38.8c10.7,0,19.1-2.7,25.2-8.2
	c6.1-5.5,9.1-13,9.1-22.7v-3.6c0.2-5.6-1.2-11.1-4-16c-2.8-4.5-6.9-8.1-11.7-10.3C516.5,1087.8,521,1079.4,521,1067.7z M471.3,1053
	h13c5.3,0,9.2,1.1,11.7,3.3c2.6,2.2,3.8,5.6,3.8,10.1v3.3c0,9.4-5.1,14.1-15.4,14.1h-13.2L471.3,1053z M502,1120.5
	c0,9.4-5.2,14.1-15.7,14.1h-15v-31.8h15.2c5,0,8.8,1.3,11.5,3.8s4,6.1,4,10.7L502,1120.5z"/>
<path class="st0" d="M612.4,1156c11.7,0,20.9-3.1,27.7-9.4c6.8-6.3,10.1-14.8,10.2-25.7v-54.1c0-10.7-3.4-19.3-10.2-25.6
	s-16-9.5-27.7-9.5c-11.6,0-20.8,3.2-27.6,9.5c-6.8,6.3-10.2,14.9-10.2,25.6v54.1c0,10.9,3.4,19.4,10.2,25.7S600.7,1156,612.4,1156z
	 M595.8,1068.4c0-5.6,1.4-9.9,4.3-12.9c2.9-3,7-4.5,12.3-4.5c5.3,0,9.5,1.5,12.4,4.5c3,3,4.4,7.3,4.4,12.9v51
	c0,5.5-1.5,9.7-4.4,12.7c-2.9,3-7.1,4.5-12.4,4.5c-5.4,0-9.5-1.5-12.3-4.5c-2.9-3-4.3-7.2-4.3-12.7V1068.4z"/>
<polygon class="st0" points="779.6,1037 779.6,1033.8 758,1033.8 736.4,1084.3 726.4,1084.3 726.4,1033.8 705.2,1033.8 
	705.2,1153.8 726.4,1153.8 726.4,1103.5 736.6,1103.5 758.5,1153.8 780.7,1153.8 780.7,1150.7 755.5,1093.7 "/>
<path class="st0" d="M823.1,1069.7v5.5h21.2v-5.5c0-12.4,5.3-18.6,15.9-18.6c4.6,0,8.3,1.4,11,4.2c2.7,2.8,4,6.6,4,11.3v3.7
	c0,4.3-1.2,7.6-3.6,10.1c-2.5,2.6-6,3.9-9.6,3.7h-11.5v19.2h10.8c5,0,8.8,1.2,11.5,3.7s4,5.9,4,10.4v3.7c0.2,4.2-1.4,8.3-4.4,11.2
	c-2.9,2.9-6.8,4.3-11.5,4.3c-6.2,0-10.7-1.4-13.3-4.2c-2.7-2.8-4-7.4-4-13.9v-5.9h-21.2v5.9c0,12.3,3.2,21.6,9.7,28
	c6.5,6.4,16,9.5,28.5,9.5c6.7,0.1,13.4-1.3,19.5-4.1c5.4-2.5,10-6.5,13.2-11.5c3.2-5.1,4.9-10.9,4.8-16.9v-6.4
	c0.3-10-5.2-19.3-14.1-23.8c3.8-2.3,6.9-5.6,9.1-9.4c2.2-4,3.4-8.5,3.3-13.1v-6.4c0.3-12.2-6.6-23.3-17.6-28.6
	c-5.9-2.8-12.3-4.2-18.8-4.1c-11.9,0-21.1,3.3-27.4,9.8C826.3,1048,823.1,1057.4,823.1,1069.7z"/>
<path class="st0" d="M967.4,1130.6h30.5l5.3,23.2h21.6v-3.1l-29.6-116.9h-25l-29.8,116.9v3.1h21.5L967.4,1130.6z M982.6,1064.6
	l11,47h-21.8L982.6,1064.6z"/>
<path class="st0" d="M1084.2,1053.4h0.4l-0.9,63.8c-0.1,6-1.2,10.4-3.3,13.1c-2.1,2.8-5.3,4.1-9.7,4.1h-4.4v19.4h7.3
	c9.9,0,17.3-2.8,22.2-8.5c4.9-5.7,7.5-14.3,7.6-25.9l0.9-66h25.1v100.4h21.2v-120h-66.4L1084.2,1053.4z"/>
<path class="st0" d="M1229.8,1033.9l-29.8,116.9v3.1h21.6l5.5-23.2h30.5l5.3,23.2h21.6v-3.1l-29.6-116.9H1229.8z M1231.5,1111.6
	l10.8-47l11,47H1231.5z"/>
<path class="st0" d="M1563.9,1035.4L1563.9,1035.4c-14.6-8.4-32.4-8.4-47,0l0,0c-22.6,13-30.4,41.8-17.5,64.4
	c0.7,1.2,1.5,2.5,2.3,3.6l38.7,55.1l38.7-55.1c15-21.3,9.8-50.8-11.5-65.8C1566.3,1036.8,1565.1,1036.1,1563.9,1035.4z
	 M1540.4,1092.8c-9.9,0-18-8.1-18-18s8.1-18,18-18s18,8.1,18,18l0,0C1558.4,1084.7,1550.4,1092.8,1540.4,1092.8L1540.4,1092.8z"/>
</svg>
