<svg width="453" height="214" viewBox="0 0 453 214" fill="none" xmlns="http://www.w3.org/2000/svg">
<path d="M160 63.7488C160 33.6973 160 18.6716 169.336 9.3358C178.672 0 193.697 0 223.749 0H229.061C259.113 0 274.138 0 283.474 9.3358C292.81 18.6716 292.81 33.6973 292.81 63.7488V69.0612C292.81 99.1127 292.81 114.138 283.474 123.474C274.138 132.81 259.113 132.81 229.061 132.81H223.749C193.697 132.81 178.672 132.81 169.336 123.474C160 114.138 160 99.1127 160 69.0612V63.7488Z" fill="#0077FF"/>
<path d="M230.666 95.6751C200.396 95.6751 183.131 74.9235 182.412 40.3929H197.574C198.072 65.7375 209.25 76.4729 218.104 78.6864V40.3929H232.382V62.2512C241.125 61.3104 250.31 51.3498 253.409 40.3929H267.686C265.307 53.8953 255.346 63.8559 248.263 67.9509C255.346 71.2712 266.691 79.9592 271.007 95.6751H255.291C251.915 85.1609 243.504 77.0263 232.382 75.9195V95.6751H230.666Z" fill="white"/>
<path d="M13.0062 206H9.33126V184.236H0.589921V180.846H21.7832V184.236H13.0062V206ZM38.8932 196.652C38.8932 197.128 38.8813 197.497 38.8575 197.758H23.6226C23.8129 199.399 24.4551 200.708 25.5493 201.683C26.6434 202.658 28.0349 203.146 29.7237 203.146C30.8892 203.146 31.9239 202.92 32.8278 202.468C33.7554 201.992 34.4571 201.374 34.9328 200.612L38.2153 201.148C37.5017 202.813 36.3481 204.097 34.7545 205.001C33.1846 205.905 31.4363 206.357 29.5096 206.357C27.6781 206.357 26.0369 205.952 24.586 205.144C23.135 204.311 22.0052 203.169 21.1965 201.719C20.3877 200.268 19.9834 198.626 19.9834 196.795C19.9834 194.94 20.3877 193.286 21.1965 191.835C22.0052 190.385 23.1231 189.255 24.5503 188.446C25.9774 187.613 27.6068 187.197 29.4383 187.197C31.246 187.197 32.8635 187.613 34.2906 188.446C35.7416 189.255 36.8714 190.385 37.6801 191.835C38.4888 193.263 38.8932 194.868 38.8932 196.652ZM29.4383 190.301C28.0349 190.301 26.8218 190.718 25.799 191.55C24.8 192.383 24.134 193.5 23.801 194.904H35.0756C34.7663 193.524 34.1003 192.418 33.0775 191.586C32.0785 190.729 30.8654 190.301 29.4383 190.301ZM43.7085 206H39.7124L45.7422 196.545L40.426 187.554H44.422L48.204 194.119H48.8106L52.7352 187.554H56.6242L51.3081 196.331L57.2665 206H53.1991L48.8819 198.65H48.2754L43.7085 206ZM72.2491 195.082V187.554H75.7456V206H72.2491V198.293H63.3651V206H59.8685V187.554H63.3651V195.082H72.2491ZM89.2351 206.357C87.356 206.357 85.6791 205.952 84.2043 205.144C82.7296 204.335 81.576 203.205 80.7435 201.754C79.911 200.303 79.4947 198.65 79.4947 196.795C79.4947 194.94 79.911 193.286 80.7435 191.835C81.576 190.385 82.7296 189.255 84.2043 188.446C85.6791 187.613 87.356 187.197 89.2351 187.197C91.1142 187.197 92.7911 187.613 94.2658 188.446C95.7405 189.255 96.8941 190.385 97.7266 191.835C98.5592 193.286 98.9754 194.94 98.9754 196.795C98.9754 198.65 98.5592 200.303 97.7266 201.754C96.8941 203.205 95.7405 204.335 94.2658 205.144C92.7911 205.952 91.1142 206.357 89.2351 206.357ZM89.2351 203.146C91.0428 203.146 92.5056 202.563 93.6236 201.397C94.7653 200.232 95.3362 198.698 95.3362 196.795C95.3362 194.892 94.7653 193.358 93.6236 192.192C92.5056 191.003 91.0428 190.408 89.2351 190.408C87.4273 190.408 85.9645 191.003 84.8466 192.192C83.7286 193.358 83.1696 194.892 83.1696 196.795C83.1696 198.674 83.7286 200.208 84.8466 201.397C85.9645 202.563 87.4273 203.146 89.2351 203.146ZM104.775 187.554H117.727V206H114.23V190.765H108.022L107.487 199.471C107.368 201.635 106.809 203.3 105.81 204.466C104.811 205.608 103.455 206.178 101.743 206.178C101.291 206.178 100.791 206.143 100.244 206.071L99.8875 202.718C100.197 202.741 100.66 202.753 101.279 202.753C102.23 202.753 102.908 202.515 103.313 202.04C103.717 201.564 103.955 200.731 104.026 199.542L104.775 187.554ZM131.221 206.357C129.341 206.357 127.665 205.952 126.19 205.144C124.715 204.335 123.561 203.205 122.729 201.754C121.896 200.303 121.48 198.65 121.48 196.795C121.48 194.94 121.896 193.286 122.729 191.835C123.561 190.385 124.715 189.255 126.19 188.446C127.665 187.613 129.341 187.197 131.221 187.197C133.1 187.197 134.777 187.613 136.251 188.446C137.726 189.255 138.88 190.385 139.712 191.835C140.545 193.286 140.961 194.94 140.961 196.795C140.961 198.65 140.545 200.303 139.712 201.754C138.88 203.205 137.726 204.335 136.251 205.144C134.777 205.952 133.1 206.357 131.221 206.357ZM131.221 203.146C133.028 203.146 134.491 202.563 135.609 201.397C136.751 200.232 137.322 198.698 137.322 196.795C137.322 194.892 136.751 193.358 135.609 192.192C134.491 191.003 133.028 190.408 131.221 190.408C129.413 190.408 127.95 191.003 126.832 192.192C125.714 193.358 125.155 194.892 125.155 196.795C125.155 198.674 125.714 200.208 126.832 201.397C127.95 202.563 129.413 203.146 131.221 203.146ZM148.207 206H144.711V187.554H156.877V190.765H148.207V206ZM164.866 206H159.693V187.554H163.082V202.075H163.618L171.074 187.554H176.248V206H172.858V191.514H172.323L164.866 206ZM190.828 199.292C190.257 199.554 189.58 199.756 188.795 199.899C188.01 200.042 187.237 200.113 186.475 200.113C184.263 200.113 182.563 199.495 181.373 198.258C180.184 197.021 179.589 195.273 179.589 193.013V187.554H183.086V193.013C183.086 195.653 184.359 196.973 186.904 196.973C188.45 196.973 189.758 196.7 190.828 196.153V187.554H194.325V206H190.828V199.292ZM216.974 196.652C216.974 197.128 216.962 197.497 216.939 197.758H201.704C201.894 199.399 202.536 200.708 203.63 201.683C204.725 202.658 206.116 203.146 207.805 203.146C208.97 203.146 210.005 202.92 210.909 202.468C211.837 201.992 212.538 201.374 213.014 200.612L216.296 201.148C215.583 202.813 214.429 204.097 212.836 205.001C211.266 205.905 209.517 206.357 207.591 206.357C205.759 206.357 204.118 205.952 202.667 205.144C201.216 204.311 200.086 203.169 199.278 201.719C198.469 200.268 198.064 198.626 198.064 196.795C198.064 194.94 198.469 193.286 199.278 191.835C200.086 190.385 201.204 189.255 202.631 188.446C204.059 187.613 205.688 187.197 207.519 187.197C209.327 187.197 210.945 187.613 212.372 188.446C213.823 189.255 214.952 190.385 215.761 191.835C216.57 193.263 216.974 194.868 216.974 196.652ZM207.519 190.301C206.116 190.301 204.903 190.718 203.88 191.55C202.881 192.383 202.215 193.5 201.882 194.904H213.157C212.847 193.524 212.181 192.418 211.159 191.586C210.16 190.729 208.947 190.301 207.519 190.301ZM228.846 206.357C227.014 206.357 225.361 205.952 223.886 205.144C222.435 204.311 221.305 203.169 220.497 201.719C219.688 200.268 219.284 198.626 219.284 196.795C219.284 194.94 219.688 193.286 220.497 191.835C221.305 190.385 222.435 189.255 223.886 188.446C225.337 187.613 226.99 187.197 228.846 187.197C230.82 187.197 232.58 187.673 234.126 188.624C235.696 189.576 236.814 190.943 237.48 192.727L234.197 193.263C233.769 192.406 233.091 191.717 232.164 191.193C231.26 190.67 230.225 190.408 229.06 190.408C227.252 190.408 225.777 191.003 224.635 192.192C223.518 193.382 222.959 194.916 222.959 196.795C222.959 198.674 223.518 200.208 224.635 201.397C225.777 202.563 227.252 203.146 229.06 203.146C230.273 203.146 231.343 202.872 232.271 202.325C233.222 201.778 233.912 201.053 234.34 200.149L237.623 200.684C236.957 202.492 235.815 203.895 234.197 204.894C232.604 205.869 230.82 206.357 228.846 206.357ZM256.687 206H252.085L245.27 198.365H244.164V206H240.667V187.554H244.164V195.011H245.234L251.763 187.554H255.974L248.053 196.474L256.687 206ZM264.307 206H259.134V187.554H262.523V202.075H263.059L270.516 187.554H275.689V206H272.299V191.514H271.764L264.307 206ZM285.631 206H280.458V187.554H283.847V202.075H284.382L291.839 187.554H297.013V206H293.623V191.514H293.088L285.631 206ZM288.771 185.164C287.225 185.164 285.928 184.759 284.882 183.95C283.859 183.118 283.253 181.881 283.062 180.24H285.917C286.035 181.001 286.333 181.584 286.809 181.988C287.308 182.369 287.962 182.559 288.771 182.559C289.58 182.559 290.222 182.369 290.698 181.988C291.197 181.584 291.494 181.001 291.59 180.24H294.48C294.265 181.881 293.635 183.118 292.589 183.95C291.566 184.759 290.293 185.164 288.771 185.164ZM313.849 206H310.353V187.554H326.051V206H322.555V190.765H313.849V206ZM338.154 187.197C340.437 187.197 342.233 187.946 343.541 189.445C344.873 190.92 345.539 192.989 345.539 195.653V206H343.042L342.221 203.11C341.626 204.038 340.829 204.811 339.83 205.429C338.831 206.048 337.63 206.357 336.227 206.357C334.99 206.357 333.884 206.107 332.909 205.608C331.934 205.108 331.172 204.418 330.625 203.538C330.078 202.634 329.805 201.623 329.805 200.505C329.805 198.769 330.495 197.378 331.874 196.331C333.254 195.284 335.252 194.761 337.868 194.761H342.043C341.947 193.31 341.543 192.192 340.829 191.407C340.116 190.599 339.164 190.194 337.975 190.194C337.071 190.194 336.274 190.408 335.585 190.836C334.895 191.265 334.372 191.824 334.015 192.513L330.768 191.978C331.244 190.503 332.16 189.338 333.515 188.482C334.871 187.625 336.417 187.197 338.154 187.197ZM336.976 203.395C338.475 203.395 339.688 202.908 340.615 201.933C341.567 200.934 342.043 199.566 342.043 197.83V197.615H337.975C334.883 197.615 333.337 198.543 333.337 200.398C333.337 201.302 333.67 202.028 334.336 202.575C335.002 203.122 335.882 203.395 336.976 203.395ZM350.143 213.314V187.554H352.676L353.533 190.622C354.294 189.647 355.257 188.838 356.423 188.196C357.612 187.53 358.991 187.197 360.561 187.197C362.298 187.197 363.844 187.613 365.2 188.446C366.555 189.255 367.614 190.385 368.375 191.835C369.16 193.286 369.552 194.94 369.552 196.795C369.552 198.626 369.16 200.268 368.375 201.719C367.614 203.169 366.555 204.311 365.2 205.144C363.844 205.952 362.298 206.357 360.561 206.357C359.039 206.357 357.695 206.048 356.53 205.429C355.364 204.787 354.401 204.002 353.64 203.074V213.314H350.143ZM359.812 203.217C361.001 203.217 362.06 202.944 362.988 202.396C363.915 201.849 364.629 201.088 365.128 200.113C365.652 199.138 365.913 198.032 365.913 196.795C365.913 195.558 365.652 194.452 365.128 193.477C364.629 192.501 363.915 191.74 362.988 191.193C362.06 190.646 361.001 190.373 359.812 190.373C358.623 190.373 357.552 190.646 356.601 191.193C355.673 191.74 354.948 192.501 354.425 193.477C353.901 194.452 353.64 195.558 353.64 196.795C353.64 198.032 353.901 199.138 354.425 200.113C354.948 201.088 355.673 201.849 356.601 202.396C357.552 202.944 358.623 203.217 359.812 203.217ZM380.716 206H377.219V190.765H370.833V187.554H387.102V190.765H380.716V206ZM402.523 195.082V187.554H406.02V206H402.523V198.293H393.639V206H390.143V187.554H393.639V195.082H402.523ZM428.679 196.652C428.679 197.128 428.667 197.497 428.643 197.758H413.408C413.598 199.399 414.24 200.708 415.335 201.683C416.429 202.658 417.82 203.146 419.509 203.146C420.675 203.146 421.709 202.92 422.613 202.468C423.541 201.992 424.242 201.374 424.718 200.612L428.001 201.148C427.287 202.813 426.133 204.097 424.54 205.001C422.97 205.905 421.222 206.357 419.295 206.357C417.463 206.357 415.822 205.952 414.371 205.144C412.92 204.311 411.791 203.169 410.982 201.719C410.173 200.268 409.769 198.626 409.769 196.795C409.769 194.94 410.173 193.286 410.982 191.835C411.791 190.385 412.908 189.255 414.336 188.446C415.763 187.613 417.392 187.197 419.224 187.197C421.031 187.197 422.649 187.613 424.076 188.446C425.527 189.255 426.657 190.385 427.465 191.835C428.274 193.263 428.679 194.868 428.679 196.652ZM419.224 190.301C417.82 190.301 416.607 190.718 415.584 191.55C414.585 192.383 413.919 193.5 413.586 194.904H424.861C424.552 193.524 423.886 192.418 422.863 191.586C421.864 190.729 420.651 190.301 419.224 190.301ZM432.058 213.314V187.554H434.592L435.448 190.622C436.209 189.647 437.172 188.838 438.338 188.196C439.527 187.53 440.907 187.197 442.477 187.197C444.213 187.197 445.759 187.613 447.115 188.446C448.471 189.255 449.529 190.385 450.29 191.835C451.075 193.286 451.468 194.94 451.468 196.795C451.468 198.626 451.075 200.268 450.29 201.719C449.529 203.169 448.471 204.311 447.115 205.144C445.759 205.952 444.213 206.357 442.477 206.357C440.954 206.357 439.61 206.048 438.445 205.429C437.279 204.787 436.316 204.002 435.555 203.074V213.314H432.058ZM441.727 203.217C442.917 203.217 443.975 202.944 444.903 202.396C445.83 201.849 446.544 201.088 447.043 200.113C447.567 199.138 447.828 198.032 447.828 196.795C447.828 195.558 447.567 194.452 447.043 193.477C446.544 192.501 445.83 191.74 444.903 191.193C443.975 190.646 442.917 190.373 441.727 190.373C440.538 190.373 439.468 190.646 438.516 191.193C437.589 191.74 436.863 192.501 436.34 193.477C435.816 194.452 435.555 195.558 435.555 196.795C435.555 198.032 435.816 199.138 436.34 200.113C436.863 201.088 437.589 201.849 438.516 202.396C439.468 202.944 440.538 203.217 441.727 203.217Z" fill="black"/>
</svg>
