<svg width="914" height="741" viewBox="0 0 914 741" fill="none" xmlns="http://www.w3.org/2000/svg">
<g clip-path="url(#clip0_896_45)">
<path d="M275.199 176.4C275.199 93.2 275.199 51.5 301.099 25.7C326.999 -0.199957 368.599 -0.199951 451.799 -0.199951H466.499C549.699 -0.199951 591.399 -0.199957 617.199 25.7C643.099 51.6 643.099 93.2 643.099 176.4V191.1C643.099 274.3 643.099 316 617.199 341.8C591.299 367.7 549.699 367.7 466.499 367.7H451.799C368.599 367.7 326.899 367.7 301.099 341.8C275.199 315.9 275.199 274.3 275.199 191.1V176.4Z" fill="#0077FF"/>
<path d="M471.001 264.9C387.201 264.9 339.301 207.4 337.301 111.8H379.301C380.701 182 411.601 211.7 436.201 217.9V111.7H475.701V172.2C499.901 169.6 525.401 142 533.901 111.7H573.401C566.801 149.1 539.201 176.7 519.601 188C539.201 197.2 570.601 221.3 582.601 264.8H539.101C529.801 235.7 506.501 213.1 475.601 210.1V264.8H471.001V264.9Z" fill="white"/>
<path d="M54.4008 581.7H44.1008V536.8H25.3008V527.3H73.2008V536.8H54.4008V581.7ZM132.601 554.2C132.601 555.6 132.601 556.7 132.501 557.5H87.6008C88.2008 562.3 90.1008 566.2 93.3008 569.1C96.5008 572 100.601 573.4 105.601 573.4C109.001 573.4 112.101 572.7 114.701 571.4C117.401 570 119.501 568.2 120.901 565.9L130.601 567.5C128.501 572.4 125.101 576.2 120.401 578.8C115.801 581.5 110.601 582.8 104.901 582.8C99.5008 582.8 94.7008 581.6 90.4008 579.2C86.1008 576.7 82.8008 573.4 80.4008 569.1C78.0008 564.8 76.8008 560 76.8008 554.6C76.8008 549.1 78.0008 544.3 80.4008 540C82.8008 535.7 86.1008 532.4 90.3008 530C94.5008 527.5 99.3008 526.3 104.701 526.3C110.001 526.3 114.801 527.5 119.001 530C123.301 532.4 126.601 535.7 129.001 540C131.501 544.2 132.601 548.9 132.601 554.2ZM104.801 535.5C100.701 535.5 97.1008 536.7 94.1008 539.2C91.2008 541.7 89.2008 544.9 88.2008 549.1H121.401C120.501 545 118.501 541.8 115.501 539.3C112.601 536.7 109.001 535.5 104.801 535.5ZM146.801 581.7H135.001L152.801 553.8L137.101 527.3H148.901L160.001 546.6H161.801L173.401 527.3H184.901L169.201 553.2L186.801 581.7H174.801L162.101 560H160.301L146.801 581.7ZM230.901 549.5V527.3H241.201V581.6H230.901V559H204.701V581.7H194.401V527.4H204.701V549.6H230.901V549.5ZM280.901 582.7C275.401 582.7 270.401 581.5 266.101 579.1C261.801 576.7 258.401 573.4 255.901 569.1C253.401 564.8 252.201 560 252.201 554.5C252.201 549 253.401 544.2 255.901 539.9C258.401 535.6 261.701 532.3 266.101 529.9C270.401 527.4 275.401 526.2 280.901 526.2C286.401 526.2 291.401 527.4 295.701 529.9C300.001 532.3 303.401 535.6 305.901 539.9C308.401 544.2 309.601 549 309.601 554.5C309.601 560 308.401 564.8 305.901 569.1C303.401 573.4 300.001 576.7 295.701 579.1C291.401 581.6 286.501 582.7 280.901 582.7ZM280.901 573.3C286.201 573.3 290.501 571.6 293.801 568.1C297.201 564.7 298.801 560.1 298.801 554.5C298.801 548.9 297.101 544.4 293.801 540.9C290.501 537.4 286.201 535.6 280.901 535.6C275.601 535.6 271.301 537.4 268.001 540.9C264.701 544.3 263.101 548.9 263.101 554.5C263.101 560 264.701 564.6 268.001 568.1C271.301 571.6 275.601 573.3 280.901 573.3ZM326.701 527.4H364.901V581.7H354.601V536.8H336.301L334.701 562.4C334.401 568.8 332.701 573.7 329.801 577.1C326.901 580.5 322.901 582.1 317.801 582.1C316.501 582.1 315.001 582 313.401 581.8L312.301 571.9C313.201 572 314.601 572 316.401 572C319.201 572 321.201 571.3 322.401 569.9C323.601 568.5 324.301 566 324.501 562.5L326.701 527.4ZM404.601 582.7C399.101 582.7 394.101 581.5 389.801 579.1C385.501 576.7 382.101 573.4 379.601 569.1C377.101 564.8 375.901 560 375.901 554.5C375.901 549 377.101 544.2 379.601 539.9C382.101 535.6 385.401 532.3 389.801 529.9C394.101 527.4 399.101 526.2 404.601 526.2C410.101 526.2 415.101 527.4 419.401 529.9C423.701 532.3 427.101 535.6 429.601 539.9C432.101 544.2 433.301 549 433.301 554.5C433.301 560 432.101 564.8 429.601 569.1C427.101 573.4 423.701 576.7 419.401 579.1C415.101 581.6 410.201 582.7 404.601 582.7ZM404.601 573.3C409.901 573.3 414.201 571.6 417.501 568.1C420.901 564.7 422.501 560.1 422.501 554.5C422.501 548.9 420.801 544.4 417.501 540.9C414.201 537.4 409.901 535.6 404.601 535.6C399.301 535.6 395.001 537.4 391.701 540.9C388.401 544.3 386.801 548.9 386.801 554.5C386.801 560 388.401 564.6 391.701 568.1C395.001 571.6 399.301 573.3 404.601 573.3ZM454.701 581.7H444.401V527.4H480.201V536.9H454.701V581.7ZM503.701 581.7H488.501V527.4H498.501V570.2H500.101L522.101 527.4H537.301V581.7H527.301V539H525.701L503.701 581.7ZM580.201 561.9C578.501 562.7 576.501 563.3 574.201 563.7C571.901 564.1 569.601 564.3 567.401 564.3C560.901 564.3 555.901 562.5 552.401 558.8C548.901 555.2 547.101 550 547.101 543.3V527.2H557.401V543.3C557.401 551.1 561.101 555 568.601 555C573.201 555 577.001 554.2 580.201 552.6V527.3H590.501V581.6H580.201V561.9ZM657.201 554.2C657.201 555.6 657.201 556.7 657.101 557.5H612.201C612.801 562.3 614.701 566.2 617.901 569.1C621.101 572 625.201 573.4 630.201 573.4C633.601 573.4 636.701 572.7 639.301 571.4C642.001 570 644.101 568.2 645.501 565.9L655.201 567.5C653.101 572.4 649.701 576.2 645.001 578.8C640.401 581.5 635.201 582.8 629.501 582.8C624.101 582.8 619.301 581.6 615.001 579.2C610.701 576.7 607.401 573.4 605.001 569.1C602.601 564.8 601.401 560 601.401 554.6C601.401 549.1 602.601 544.3 605.001 540C607.401 535.7 610.701 532.4 614.901 530C619.101 527.5 623.901 526.3 629.301 526.3C634.601 526.3 639.401 527.5 643.601 530C647.901 532.4 651.201 535.7 653.601 540C656.101 544.2 657.201 548.9 657.201 554.2ZM629.401 535.5C625.301 535.5 621.701 536.7 618.701 539.2C615.801 541.7 613.801 544.9 612.801 549.1H646.001C645.101 545 643.101 541.8 640.101 539.3C637.201 536.7 633.601 535.5 629.401 535.5ZM692.201 582.7C686.801 582.7 681.901 581.5 677.601 579.1C673.301 576.6 670.001 573.3 667.601 569C665.201 564.7 664.001 559.9 664.001 554.5C664.001 549 665.201 544.2 667.601 539.9C670.001 535.6 673.301 532.3 677.601 529.9C681.901 527.4 686.701 526.2 692.201 526.2C698.001 526.2 703.201 527.6 707.801 530.4C712.401 533.2 715.701 537.2 717.701 542.5L708.001 544.1C706.701 541.6 704.701 539.5 702.001 538C699.301 536.5 696.301 535.7 692.901 535.7C687.601 535.7 683.201 537.5 679.901 541C676.601 544.5 675.001 549 675.001 554.6C675.001 560.1 676.601 564.7 679.901 568.2C683.301 571.6 687.601 573.4 692.901 573.4C696.501 573.4 699.601 572.6 702.401 571C705.201 569.4 707.201 567.3 708.501 564.6L718.201 566.2C716.201 571.5 712.901 575.7 708.101 578.6C703.301 581.3 698.001 582.7 692.201 582.7ZM774.201 581.7H760.601L740.501 559.2H737.201V581.7H727.001V527.4H737.301V549.4H740.501L759.701 527.4H772.101L748.801 553.7L774.201 581.7ZM796.701 581.7H781.501V527.4H791.501V570.2H793.101L815.101 527.4H830.301V581.7H820.301V539H818.701L796.701 581.7ZM859.501 581.7H844.301V527.4H854.301V570.2H855.901L877.901 527.4H893.101V581.7H883.101V539H881.501L859.501 581.7ZM868.701 520.3C864.101 520.3 860.301 519.1 857.201 516.7C854.201 514.2 852.401 510.6 851.801 505.8H860.201C860.501 508 861.401 509.8 862.801 511C864.301 512.1 866.201 512.7 868.601 512.7C871.001 512.7 872.901 512.1 874.301 511C875.801 509.8 876.601 508.1 876.901 505.8H885.401C884.801 510.6 882.901 514.3 879.801 516.7C877.001 519.1 873.201 520.3 868.701 520.3ZM265.701 712.6H255.401V658.3H301.601V712.6H291.301V667.7H265.701V712.6ZM337.301 657.2C344.001 657.2 349.301 659.4 353.201 663.8C357.101 668.1 359.101 674.2 359.101 682.1V712.6H351.701L349.301 704.1C347.501 706.8 345.201 709.1 342.301 710.9C339.401 712.7 335.801 713.6 331.701 713.6C328.101 713.6 324.801 712.9 321.901 711.4C319.001 709.9 316.801 707.9 315.201 705.3C313.601 702.6 312.801 699.7 312.801 696.4C312.801 691.3 314.801 687.2 318.901 684.1C323.001 681 328.901 679.5 336.601 679.5H348.901C348.601 675.2 347.401 671.9 345.301 669.6C343.201 667.2 340.401 666 336.901 666C334.201 666 331.901 666.6 329.901 667.9C327.901 669.2 326.301 670.8 325.301 672.8L315.701 671.2C317.101 666.9 319.801 663.4 323.801 660.9C327.601 658.5 332.201 657.2 337.301 657.2ZM333.801 704.9C338.201 704.9 341.801 703.5 344.501 700.6C347.301 697.7 348.701 693.6 348.701 688.5V687.9H336.701C327.601 687.9 323.001 690.6 323.001 696.1C323.001 698.8 324.001 700.9 325.901 702.5C328.001 704.1 330.601 704.9 333.801 704.9ZM372.601 734.1V658.2H380.101L382.601 667.2C384.801 664.3 387.701 661.9 391.101 660.1C394.601 658.1 398.701 657.2 403.301 657.2C408.401 657.2 413.001 658.4 417.001 660.9C421.001 663.3 424.101 666.6 426.401 670.9C428.701 675.2 429.901 680 429.901 685.5C429.901 690.9 428.701 695.7 426.401 700C424.201 704.3 421.001 707.6 417.001 710.1C413.001 712.5 408.501 713.7 403.301 713.7C398.801 713.7 394.901 712.8 391.401 711C388.001 709.1 385.101 706.8 382.901 704.1V734.3H372.601V734.1ZM401.101 704.4C404.601 704.4 407.701 703.6 410.501 702C413.201 700.4 415.301 698.1 416.801 695.3C418.301 692.4 419.101 689.2 419.101 685.5C419.101 681.8 418.301 678.6 416.801 675.7C415.301 672.8 413.201 670.6 410.501 669C407.801 667.4 404.701 666.6 401.101 666.6C397.501 666.6 394.401 667.4 391.601 669C388.901 670.6 386.701 672.9 385.201 675.7C383.701 678.6 382.901 681.8 382.901 685.5C382.901 689.2 383.701 692.4 385.201 695.3C386.701 698.2 388.901 700.4 391.601 702C394.401 703.6 397.601 704.4 401.101 704.4ZM462.701 712.6H452.401V667.7H433.601V658.2H481.501V667.7H462.701V712.6ZM526.901 680.4V658.2H537.201V712.5H526.901V689.8H500.701V712.5H490.401V658.2H500.701V680.4H526.901ZM604.001 685.1C604.001 686.5 604.001 687.6 603.901 688.4H559.001C559.601 693.2 561.501 697.1 564.701 700C567.901 702.9 572.001 704.3 577.001 704.3C580.401 704.3 583.501 703.6 586.101 702.3C588.801 700.9 590.901 699.1 592.301 696.8L602.001 698.4C599.901 703.3 596.501 707.1 591.801 709.7C587.201 712.4 582.001 713.7 576.301 713.7C570.901 713.7 566.101 712.5 561.801 710.1C557.501 707.6 554.201 704.3 551.801 700C549.401 695.7 548.201 690.9 548.201 685.5C548.201 680 549.401 675.2 551.801 670.9C554.201 666.6 557.501 663.3 561.701 660.9C565.901 658.4 570.701 657.2 576.101 657.2C581.401 657.2 586.201 658.4 590.401 660.9C594.701 663.3 598.001 666.6 600.401 670.9C602.801 675.1 604.001 679.8 604.001 685.1ZM576.101 666.4C572.001 666.4 568.401 667.6 565.401 670.1C562.501 672.6 560.501 675.8 559.501 680H592.701C591.801 675.9 589.801 672.7 586.801 670.2C583.901 667.6 580.301 666.4 576.101 666.4ZM565.201 649.6C563.201 649.6 561.601 649 560.401 647.8C559.101 646.5 558.501 645 558.501 643.1C558.501 641.2 559.101 639.7 560.401 638.5C561.701 637.2 563.301 636.6 565.201 636.6C567.001 636.6 568.601 637.2 569.801 638.5C571.101 639.7 571.701 641.2 571.701 643.1C571.701 645 571.101 646.6 569.801 647.8C568.601 649 567.001 649.6 565.201 649.6ZM586.901 649.6C584.901 649.6 583.301 649 582.101 647.8C580.901 646.5 580.301 645 580.301 643.1C580.301 641.2 580.901 639.7 582.101 638.5C583.401 637.2 585.001 636.6 586.901 636.6C588.801 636.6 590.401 637.2 591.601 638.5C592.901 639.7 593.501 641.2 593.501 643.1C593.501 645 592.901 646.6 591.601 647.8C590.401 649 588.801 649.6 586.901 649.6ZM613.901 734.1V658.2H621.401L623.901 667.2C626.101 664.3 629.001 661.9 632.401 660.1C635.901 658.1 640.001 657.2 644.601 657.2C649.701 657.2 654.301 658.4 658.301 660.9C662.301 663.3 665.401 666.6 667.701 670.9C670.001 675.2 671.201 680 671.201 685.5C671.201 690.9 670.001 695.7 667.701 700C665.501 704.3 662.301 707.6 658.301 710.1C654.301 712.5 649.801 713.7 644.601 713.7C640.101 713.7 636.201 712.8 632.701 711C629.301 709.1 626.401 706.8 624.201 704.1V734.3H613.901V734.1ZM642.401 704.4C645.901 704.4 649.001 703.6 651.801 702C654.501 700.4 656.601 698.1 658.101 695.3C659.601 692.4 660.401 689.2 660.401 685.5C660.401 681.8 659.601 678.6 658.101 675.7C656.601 672.8 654.501 670.6 651.801 669C649.101 667.4 646.001 666.6 642.401 666.6C638.901 666.6 635.701 667.4 632.901 669C630.201 670.6 628.001 672.9 626.501 675.7C625.001 678.6 624.201 681.8 624.201 685.5C624.201 689.2 625.001 692.4 626.501 695.3C628.001 698.2 630.201 700.4 632.901 702C635.801 703.6 638.901 704.4 642.401 704.4Z" fill="black"/>
</g>
<defs>
<clipPath id="clip0_896_45">
<rect width="914" height="741" fill="white"/>
</clipPath>
</defs>
</svg>
