<svg width="843" height="102" viewBox="0 0 843 102" fill="none" xmlns="http://www.w3.org/2000/svg">
<path d="M258.739 38.6748H185.879V0.321289H162.675V101.235H185.879V60.8773H258.739V101.235H281.984V0.321289H258.739V38.6748Z" fill="#5F6568"/>
<path d="M110.011 69.7343L86.1651 34.8273H67.2089L43.4032 69.7343L24.0062 0.321289H0L28.4547 101.235H48.6533L76.707 60.0758L104.761 101.235H124.92L153.414 0.321289H129.368L110.011 69.7343Z" fill="#5F6568"/>
<path d="M818.855 0.321289V38.6748H745.996V0.321289H722.791V101.235H745.996V60.8773H818.855V101.235H842.06V0.321289H818.855Z" fill="#5F6568"/>
<path d="M538.07 0.321289H472.905C453.708 0.321289 443.649 9.17826 443.649 27.3731V74.1828C443.649 92.3376 453.708 101.235 472.905 101.235H538.07C557.267 101.235 567.366 92.3376 567.366 74.1828V27.3731C567.366 9.17826 557.267 0.321289 538.07 0.321289ZM544.122 79.032H467.014V22.5239H544.282L544.122 79.032Z" fill="#5F6568"/>
<path d="M676.339 38.8745H608.209V21.6015H701.668V0H612.256C593.26 0 585.004 7.25398 585.004 25.008V35.3078C585.004 53.4626 593.019 60.5561 612.256 60.5561H680.387V79.5125H586.928V101.114H676.339C695.536 101.114 703.591 94.0603 703.591 75.8655V63.8424C703.591 45.6876 695.576 38.8344 676.339 38.8344" fill="#5F6568"/>
<path d="M396.194 0.321289H330.99C311.833 0.321289 301.733 9.17826 301.733 27.3731V74.1828C301.733 92.3376 311.833 101.235 330.99 101.235H396.194C415.351 101.235 425.45 92.3376 425.45 74.1828V27.3731C425.45 9.17826 415.351 0.321289 396.194 0.321289ZM402.246 79.032H324.938V22.5239H402.246V79.032Z" fill="#5F6568"/>
</svg>
