<svg width="78" height="78" viewBox="0 0 78 78" fill="none" xmlns="http://www.w3.org/2000/svg">
<path d="M38.4672 8.02115e-07L0 38.4672L38.5827 77.0498C59.8374 55.7951 59.7743 21.3072 38.4672 8.02115e-07Z" fill="#3B3393"/>
<path d="M19.1464 38.1464C18.9512 38.3417 18.9512 38.6583 19.1464 38.8536L22.3284 42.0355C22.5237 42.2308 22.8403 42.2308 23.0355 42.0355C23.2308 41.8403 23.2308 41.5237 23.0355 41.3284L20.2071 38.5L23.0355 35.6716C23.2308 35.4763 23.2308 35.1597 23.0355 34.9645C22.8403 34.7692 22.5237 34.7692 22.3284 34.9645L19.1464 38.1464ZM40 38L19.5 38L19.5 39L40 39L40 38Z" fill="white"/>
</svg>
