<svg width="25" height="24" viewBox="0 0 25 24" fill="none" xmlns="http://www.w3.org/2000/svg">
<path fill-rule="evenodd" clip-rule="evenodd" d="M4.99219 0C2.78305 0 0.992188 1.79086 0.992188 4V19.218C0.992188 21.4272 2.78305 23.218 4.99219 23.218H20.2102C22.4194 23.218 24.2102 21.4272 24.2102 19.218V4C24.2102 1.79086 22.4194 0 20.2102 0H4.99219ZM7.96205 12.395L3.85637 11.0161C3.43884 10.8907 3.43884 10.3266 3.85637 10.2012L20.7662 4.3094C21.1141 4.18404 21.462 4.49743 21.3924 4.81083L18.3306 17.9735C18.261 18.2868 17.8435 18.4122 17.5651 18.2242L13.4595 15.529C13.1811 15.3409 12.8332 15.3409 12.6244 15.529L10.328 17.2213C10.0497 17.4093 9.63214 17.3467 9.56256 17.0333L7.96205 12.395ZM17.4259 7.25532L9.3538 11.7055C9.00587 11.8309 8.86667 12.207 9.07544 12.5204L9.91049 15.2782C9.98008 15.529 10.328 15.4663 10.328 15.2782L10.5368 13.7739C10.5368 13.4606 10.7455 13.2098 10.9543 13.0218L17.5651 7.44336C17.7043 7.38068 17.5651 7.19264 17.4259 7.25532Z" fill="white"/>
</svg>
